LXGWWenKaiMono-Light.ufo
<glyph name="exclam" format="2">
  <advance height="1000" width="500"/>
  <unicode hex="0021"/>
  <outline>
    <contour>
      <point x="269" y="173" type="qcurve"/>
      <point x="269" y="166"/>
      <point x="246" y="166"/>
      <point x="221" y="178"/>
      <point x="221" y="188" type="qcurve"/>
      <point x="223" y="208"/>
      <point x="221" y="629"/>
      <point x="220" y="644" type="qcurve"/>
      <point x="216" y="694" type="line"/>
      <point x="216" y="711"/>
      <point x="236" y="711" type="qcurve"/>
      <point x="250" y="711"/>
      <point x="283" y="693"/>
      <point x="283" y="682" type="qcurve"/>
      <point x="277" y="609" type="line"/>
      <point x="269" y="223"/>
    </contour>
    <contour>
      <point x="251" y="-5" type="qcurve"/>
      <point x="231" y="-5"/>
      <point x="200" y="32"/>
      <point x="200" y="51" type="qcurve"/>
      <point x="200" y="92"/>
      <point x="241" y="95" type="qcurve"/>
      <point x="259" y="95"/>
      <point x="291" y="57"/>
      <point x="291" y="37" type="qcurve"/>
      <point x="291" y="-5"/>
    </contour>
  </outline>
</glyph>
<glyph name="quotedbl" format="2">
  <advance height="1000" width="500"/>
  <unicode hex="0022"/>
  <outline>
    <contour>
      <point x="324" y="477" type="qcurve"/>
      <point x="300" y="477"/>
      <point x="300" y="492" type="qcurve"/>
      <point x="294" y="703" type="line"/>
      <point x="294" y="723"/>
      <point x="324" y="723" type="qcurve"/>
      <point x="354" y="723"/>
      <point x="354" y="703" type="qcurve"/>
      <point x="348" y="492" type="line"/>
      <point x="348" y="477"/>
    </contour>
    <contour>
      <point x="176" y="477" type="qcurve"/>
      <point x="152" y="477"/>
      <point x="152" y="492" type="qcurve"/>
      <point x="146" y="703" type="line"/>
      <point x="146" y="723"/>
      <point x="176" y="723" type="qcurve"/>
      <point x="206" y="723"/>
      <point x="206" y="703" type="qcurve"/>
      <point x="200" y="492" type="line"/>
      <point x="200" y="477"/>
    </contour>
  </outline>
</glyph>
<glyph name="numbersign" format="2">
  <advance height="1000" width="500"/>
  <unicode hex="0023"/>
  <outline>
    <contour>
      <point x="298" y="260" type="line"/>
      <point x="323" y="467" type="line"/>
      <point x="202" y="467" type="line"/>
      <point x="175" y="260" type="line"/>
    </contour>
    <contour>
      <point x="289" y="-6" type="qcurve"/>
      <point x="263" y="-6"/>
      <point x="263" y="7" type="qcurve"/>
      <point x="263" y="10"/>
      <point x="273" y="52"/>
      <point x="292" y="212" type="qcurve"/>
      <point x="170" y="212" type="line"/>
      <point x="153" y="72"/>
      <point x="148" y="12" type="qcurve"/>
      <point x="146" y="-6"/>
      <point x="118" y="-6" type="qcurve"/>
      <point x="91" y="-6"/>
      <point x="91" y="7" type="qcurve"/>
      <point x="91" y="14"/>
      <point x="96" y="34" type="qcurve"/>
      <point x="102" y="58"/>
      <point x="121" y="212" type="qcurve"/>
      <point x="67" y="212"/>
      <point x="51" y="209" type="qcurve"/>
      <point x="29" y="209"/>
      <point x="29" y="241" type="qcurve"/>
      <point x="29" y="262"/>
      <point x="46" y="262" type="qcurve"/>
      <point x="76" y="260"/>
      <point x="126" y="260" type="qcurve"/>
      <point x="151" y="467" type="line"/>
      <point x="91" y="467"/>
      <point x="74" y="464" type="qcurve"/>
      <point x="52" y="464"/>
      <point x="52" y="502" type="qcurve"/>
      <point x="52" y="517"/>
      <point x="69" y="517" type="qcurve"/>
      <point x="100" y="515"/>
      <point x="158" y="515" type="qcurve"/>
      <point x="178" y="679"/>
      <point x="179" y="705" type="qcurve"/>
      <point x="179" y="716"/>
      <point x="197" y="716" type="qcurve"/>
      <point x="234" y="716"/>
      <point x="234" y="697" type="qcurve"/>
      <point x="226" y="669"/>
      <point x="207" y="515" type="qcurve"/>
      <point x="330" y="515" type="line"/>
      <point x="349" y="679"/>
      <point x="351" y="705" type="qcurve"/>
      <point x="351" y="716"/>
      <point x="369" y="716" type="qcurve"/>
      <point x="406" y="716"/>
      <point x="406" y="697" type="qcurve"/>
      <point x="400" y="683"/>
      <point x="379" y="515" type="qcurve"/>
      <point x="410" y="515"/>
      <point x="449" y="518" type="qcurve"/>
      <point x="460" y="518"/>
      <point x="470" y="497"/>
      <point x="470" y="487" type="qcurve"/>
      <point x="470" y="466"/>
      <point x="453" y="466" type="qcurve"/>
      <point x="434" y="467"/>
      <point x="373" y="467" type="qcurve"/>
      <point x="348" y="260" type="line"/>
      <point x="386" y="260"/>
      <point x="425" y="263" type="qcurve"/>
      <point x="436" y="263"/>
      <point x="446" y="242"/>
      <point x="446" y="232" type="qcurve"/>
      <point x="446" y="211"/>
      <point x="430" y="211" type="qcurve"/>
      <point x="396" y="212"/>
      <point x="342" y="212" type="qcurve"/>
      <point x="326" y="80"/>
      <point x="319" y="9" type="qcurve"/>
      <point x="319" y="3"/>
      <point x="300" y="-6"/>
    </contour>
  </outline>
</glyph>
<glyph name="dollar" format="2">
  <advance height="1000" width="500"/>
  <unicode hex="0024"/>
  <outline>
    <contour>
      <point x="230" y="418" type="line"/>
      <point x="230" y="654" type="line"/>
      <point x="200" y="649"/>
      <point x="175" y="631" type="qcurve"/>
      <point x="118" y="586"/>
      <point x="118" y="532" type="qcurve"/>
      <point x="118" y="452"/>
      <point x="216" y="423" type="qcurve"/>
    </contour>
    <contour>
      <point x="281" y="42" type="line"/>
      <point x="332" y="52"/>
      <point x="403" y="131"/>
      <point x="403" y="184" type="qcurve"/>
      <point x="403" y="313"/>
      <point x="281" y="349" type="qcurve"/>
    </contour>
    <contour>
      <point x="269" y="-121" type="qcurve"/>
      <point x="266" y="-121" type="line"/>
      <point x="253" y="-121"/>
      <point x="228" y="-108"/>
      <point x="228" y="-98" type="qcurve"/>
      <point x="230" y="-14" type="line"/>
      <point x="112" y="-6"/>
      <point x="43" y="95" type="qcurve"/>
      <point x="39" y="101"/>
      <point x="39" y="113" type="qcurve"/>
      <point x="39" y="124"/>
      <point x="58" y="155"/>
      <point x="68" y="155" type="qcurve"/>
      <point x="78" y="155"/>
      <point x="82" y="147" type="qcurve"/>
      <point x="113" y="90"/>
      <point x="196" y="40"/>
      <point x="230" y="38" type="qcurve"/>
      <point x="230" y="366" type="line"/>
      <point x="192" y="377" type="line"/>
      <point x="61" y="418"/>
      <point x="61" y="534" type="qcurve"/>
      <point x="61" y="575"/>
      <point x="83" y="613" type="qcurve"/>
      <point x="130" y="692"/>
      <point x="229" y="707" type="qcurve"/>
      <point x="227" y="761" type="line"/>
      <point x="227" y="770"/>
      <point x="242" y="770" type="qcurve"/>
      <point x="257" y="770"/>
      <point x="283" y="757"/>
      <point x="283" y="747" type="qcurve"/>
      <point x="282" y="708" type="line"/>
      <point x="321" y="704"/>
      <point x="355" y="686" type="qcurve"/>
      <point x="427" y="646"/>
      <point x="427" y="612" type="qcurve"/>
      <point x="427" y="596"/>
      <point x="414" y="572"/>
      <point x="403" y="572" type="qcurve"/>
      <point x="393" y="572"/>
      <point x="383" y="586" type="qcurve"/>
      <point x="336" y="649"/>
      <point x="281" y="655" type="qcurve"/>
      <point x="281" y="402" type="line"/>
      <point x="306" y="395" type="line"/>
      <point x="460" y="344"/>
      <point x="460" y="192" type="qcurve"/>
      <point x="460" y="141"/>
      <point x="439" y="97" type="qcurve"/>
      <point x="394" y="5"/>
      <point x="281" y="-12" type="qcurve"/>
      <point x="283" y="-43" type="line"/>
      <point x="283" y="-64"/>
      <point x="284" y="-84" type="qcurve"/>
      <point x="284" y="-114" type="line"/>
      <point x="284" y="-121"/>
    </contour>
  </outline>
</glyph>
<glyph name="percent" format="2">
  <advance height="1000" width="500"/>
  <unicode hex="0025"/>
  <outline>
    <contour>
      <point x="136" y="421" type="qcurve"/>
      <point x="163" y="421"/>
      <point x="190" y="492"/>
      <point x="190" y="548" type="qcurve"/>
      <point x="190" y="669"/>
      <point x="138" y="669" type="qcurve"/>
      <point x="122" y="669"/>
      <point x="84" y="606"/>
      <point x="84" y="543" type="qcurve"/>
      <point x="84" y="473"/>
      <point x="107" y="439" type="qcurve"/>
      <point x="119" y="421"/>
    </contour>
    <contour>
      <point x="364" y="29" type="qcurve"/>
      <point x="391" y="29"/>
      <point x="418" y="100"/>
      <point x="418" y="156" type="qcurve"/>
      <point x="418" y="277"/>
      <point x="366" y="277" type="qcurve"/>
      <point x="349" y="277"/>
      <point x="312" y="214"/>
      <point x="312" y="151" type="qcurve"/>
      <point x="312" y="81"/>
      <point x="336" y="47" type="qcurve"/>
      <point x="347" y="29"/>
    </contour>
    <contour>
      <point x="132" y="-31" type="qcurve"/>
      <point x="121" y="-31"/>
      <point x="101" y="-6"/>
      <point x="101" y="3" type="qcurve"/>
      <point x="101" y="12"/>
      <point x="129" y="78" type="qcurve"/>
      <point x="326" y="649" type="line"/>
      <point x="336" y="677"/>
      <point x="348" y="727" type="qcurve"/>
      <point x="352" y="739"/>
      <point x="363" y="739" type="qcurve"/>
      <point x="374" y="739"/>
      <point x="395" y="710"/>
      <point x="395" y="704" type="qcurve"/>
      <point x="395" y="697"/>
      <point x="388" y="680" type="qcurve"/>
      <point x="376" y="650"/>
      <point x="158" y="22"/>
      <point x="147" y="-18" type="qcurve"/>
      <point x="144" y="-31"/>
    </contour>
    <contour>
      <point x="366" y="-15" type="qcurve"/>
      <point x="317" y="-15"/>
      <point x="266" y="79"/>
      <point x="266" y="151" type="qcurve"/>
      <point x="266" y="231"/>
      <point x="293" y="277" type="qcurve"/>
      <point x="304" y="295"/>
      <point x="312" y="295" type="qcurve"/>
      <point x="320" y="295" type="line"/>
      <point x="338" y="320"/>
      <point x="368" y="320" type="qcurve"/>
      <point x="414" y="320"/>
      <point x="464" y="226"/>
      <point x="464" y="151" type="qcurve"/>
      <point x="464" y="108"/>
      <point x="453" y="70" type="qcurve"/>
      <point x="430" y="-15"/>
    </contour>
    <contour>
      <point x="138" y="377" type="qcurve"/>
      <point x="90" y="377"/>
      <point x="38" y="471"/>
      <point x="38" y="543" type="qcurve"/>
      <point x="38" y="623"/>
      <point x="65" y="669" type="qcurve"/>
      <point x="76" y="687"/>
      <point x="84" y="687" type="qcurve"/>
      <point x="92" y="687" type="line"/>
      <point x="110" y="712"/>
      <point x="141" y="712" type="qcurve"/>
      <point x="187" y="712"/>
      <point x="236" y="618"/>
      <point x="236" y="543" type="qcurve"/>
      <point x="236" y="500"/>
      <point x="226" y="462" type="qcurve"/>
      <point x="202" y="377"/>
    </contour>
  </outline>
</glyph>
<glyph name="ampersand" format="2">
  <advance height="1000" width="500"/>
  <unicode hex="0026"/>
  <outline>
    <contour>
      <point x="183" y="436" type="qcurve"/>
      <point x="278" y="516"/>
      <point x="278" y="583" type="qcurve"/>
      <point x="278" y="662"/>
      <point x="217" y="662" type="qcurve"/>
      <point x="190" y="662"/>
      <point x="151" y="606"/>
      <point x="151" y="561" type="qcurve"/>
      <point x="151" y="515"/>
    </contour>
    <contour>
      <point x="179" y="33" type="qcurve"/>
      <point x="242" y="33"/>
      <point x="299" y="125" type="qcurve"/>
      <point x="232" y="228"/>
      <point x="165" y="355" type="qcurve"/>
      <point x="89" y="281"/>
      <point x="89" y="155" type="qcurve"/>
      <point x="89" y="105"/>
      <point x="136" y="33"/>
    </contour>
    <contour>
      <point x="178" y="-15" type="qcurve"/>
      <point x="133" y="-15"/>
      <point x="69" y="34"/>
      <point x="37" y="110"/>
      <point x="37" y="153" type="qcurve"/>
      <point x="37" y="308"/>
      <point x="143" y="402" type="qcurve"/>
      <point x="98" y="497"/>
      <point x="98" y="560" type="qcurve"/>
      <point x="98" y="623"/>
      <point x="164" y="709"/>
      <point x="216" y="709" type="qcurve"/>
      <point x="267" y="709"/>
      <point x="330" y="645"/>
      <point x="330" y="587" type="qcurve"/>
      <point x="330" y="549"/>
      <point x="312" y="514" type="qcurve"/>
      <point x="273" y="443"/>
      <point x="204" y="388" type="qcurve"/>
      <point x="264" y="268"/>
      <point x="326" y="175" type="qcurve"/>
      <point x="370" y="266"/>
      <point x="385" y="361" type="qcurve"/>
      <point x="387" y="373"/>
      <point x="393" y="391"/>
      <point x="405" y="391" type="qcurve"/>
      <point x="416" y="391"/>
      <point x="442" y="371"/>
      <point x="442" y="355" type="qcurve"/>
      <point x="442" y="339"/>
      <point x="393" y="190"/>
      <point x="358" y="125" type="qcurve"/>
      <point x="370" y="109" type="line"/>
      <point x="418" y="36"/>
      <point x="452" y="19" type="qcurve"/>
      <point x="483" y="5"/>
      <point x="483" y="-6" type="qcurve"/>
      <point x="483" y="-13"/>
      <point x="462" y="-13" type="qcurve"/>
      <point x="440" y="-13"/>
      <point x="421" y="-7" type="qcurve"/>
      <point x="384" y="-1"/>
      <point x="330" y="78" type="qcurve"/>
      <point x="295" y="28"/>
      <point x="223" y="-15"/>
    </contour>
  </outline>
</glyph>
<glyph name="quotesingle" format="2">
  <advance height="1000" width="500"/>
  <unicode hex="0027"/>
  <outline>
    <contour>
      <point x="250" y="477" type="qcurve"/>
      <point x="226" y="477"/>
      <point x="226" y="492" type="qcurve"/>
      <point x="220" y="703" type="line"/>
      <point x="220" y="723"/>
      <point x="250" y="723" type="qcurve"/>
      <point x="280" y="723"/>
      <point x="280" y="703" type="qcurve"/>
      <point x="274" y="492" type="line"/>
      <point x="274" y="477"/>
    </contour>
  </outline>
</glyph>
<glyph name="parenleft" format="2">
  <advance height="1000" width="500"/>
  <unicode hex="0028"/>
  <outline>
    <contour>
      <point x="388" y="-140" type="qcurve"/>
      <point x="388" y="-157"/>
      <point x="374" y="-157" type="qcurve"/>
      <point x="366" y="-157"/>
      <point x="341" y="-136" type="qcurve"/>
      <point x="283" y="-92"/>
      <point x="142" y="141"/>
      <point x="142" y="413"/>
      <point x="262" y="695"/>
      <point x="366" y="784" type="qcurve"/>
      <point x="372" y="789"/>
      <point x="387" y="789"/>
      <point x="398" y="781"/>
      <point x="398" y="768"/>
      <point x="392" y="761" type="qcurve"/>
      <point x="298" y="665"/>
      <point x="207" y="389"/>
      <point x="207" y="187"/>
      <point x="297" y="-51"/>
      <point x="379" y="-121" type="qcurve"/>
      <point x="388" y="-128"/>
    </contour>
  </outline>
</glyph>
<glyph name="parenright" format="2">
  <advance height="1000" width="500"/>
  <unicode hex="0029"/>
  <outline>
    <contour>
      <point x="126" y="-157" type="qcurve"/>
      <point x="112" y="-157"/>
      <point x="112" y="-140" type="qcurve"/>
      <point x="112" y="-128"/>
      <point x="121" y="-121" type="qcurve"/>
      <point x="203" y="-51"/>
      <point x="293" y="187"/>
      <point x="293" y="389"/>
      <point x="202" y="665"/>
      <point x="108" y="761" type="qcurve"/>
      <point x="102" y="768"/>
      <point x="102" y="781"/>
      <point x="113" y="789"/>
      <point x="128" y="789"/>
      <point x="134" y="784" type="qcurve"/>
      <point x="238" y="695"/>
      <point x="298" y="557" type="qcurve"/>
      <point x="358" y="413"/>
      <point x="358" y="143"/>
      <point x="286" y="18" type="qcurve"/>
      <point x="217" y="-92"/>
      <point x="160" y="-136" type="qcurve"/>
      <point x="134" y="-157"/>
    </contour>
  </outline>
</glyph>
<glyph name="asterisk" format="2">
  <advance height="1000" width="500"/>
  <unicode hex="002A"/>
  <outline>
    <contour>
      <point x="246" y="69" type="qcurve"/>
      <point x="221" y="69"/>
      <point x="221" y="87" type="qcurve"/>
      <point x="228" y="329" type="line"/>
      <point x="142" y="255"/>
      <point x="97" y="214"/>
      <point x="83" y="202"/>
      <point x="74" y="202" type="qcurve"/>
      <point x="65" y="202"/>
      <point x="49" y="230"/>
      <point x="49" y="239" type="qcurve"/>
      <point x="49" y="249"/>
      <point x="55" y="253" type="qcurve"/>
      <point x="88" y="275"/>
      <point x="214" y="369" type="qcurve"/>
      <point x="117" y="443"/>
      <point x="59" y="483" type="qcurve"/>
      <point x="53" y="489"/>
      <point x="53" y="501" type="qcurve"/>
      <point x="53" y="513"/>
      <point x="66" y="540"/>
      <point x="75" y="540" type="qcurve"/>
      <point x="80" y="540"/>
      <point x="84" y="536" type="qcurve"/>
      <point x="119" y="503"/>
      <point x="228" y="409" type="qcurve"/>
      <point x="225" y="568" type="line"/>
      <point x="222" y="622"/>
      <point x="222" y="640" type="qcurve"/>
      <point x="222" y="668"/>
      <point x="255" y="668" type="qcurve"/>
      <point x="281" y="668"/>
      <point x="281" y="651" type="qcurve"/>
      <point x="278" y="593"/>
      <point x="274" y="409" type="qcurve"/>
      <point x="352" y="476"/>
      <point x="378" y="500" type="qcurve"/>
      <point x="412" y="531"/>
      <point x="423" y="536" type="qcurve"/>
      <point x="435" y="536"/>
      <point x="451" y="509"/>
      <point x="451" y="499" type="qcurve"/>
      <point x="451" y="488"/>
      <point x="445" y="484" type="qcurve"/>
      <point x="397" y="451"/>
      <point x="287" y="369" type="qcurve"/>
      <point x="385" y="295"/>
      <point x="432" y="263"/>
      <point x="443" y="254" type="qcurve"/>
      <point x="449" y="251"/>
      <point x="449" y="238" type="qcurve"/>
      <point x="449" y="226"/>
      <point x="436" y="198"/>
      <point x="426" y="198" type="qcurve"/>
      <point x="421" y="198"/>
      <point x="386" y="232"/>
      <point x="308" y="299"/>
      <point x="274" y="329" type="qcurve"/>
      <point x="276" y="193"/>
      <point x="280" y="91" type="qcurve"/>
      <point x="280" y="82"/>
      <point x="259" y="69"/>
    </contour>
  </outline>
</glyph>
<glyph name="plus" format="2">
  <advance height="1000" width="500"/>
  <unicode hex="002B"/>
  <outline>
    <contour>
      <point x="252" y="91" type="qcurve"/>
      <point x="242" y="91"/>
      <point x="223" y="103"/>
      <point x="223" y="112" type="qcurve"/>
      <point x="226" y="159"/>
      <point x="226" y="321" type="qcurve"/>
      <point x="87" y="321"/>
      <point x="71" y="318" type="qcurve"/>
      <point x="49" y="318"/>
      <point x="49" y="350" type="qcurve"/>
      <point x="49" y="371"/>
      <point x="66" y="371" type="qcurve"/>
      <point x="96" y="369"/>
      <point x="226" y="369" type="qcurve"/>
      <point x="226" y="540"/>
      <point x="224" y="574" type="qcurve"/>
      <point x="224" y="589"/>
      <point x="241" y="589" type="qcurve"/>
      <point x="277" y="589"/>
      <point x="277" y="569" type="qcurve"/>
      <point x="275" y="530"/>
      <point x="275" y="369" type="qcurve"/>
      <point x="373" y="369"/>
      <point x="428" y="372" type="qcurve"/>
      <point x="439" y="372"/>
      <point x="449" y="351"/>
      <point x="449" y="341" type="qcurve"/>
      <point x="449" y="320"/>
      <point x="433" y="320" type="qcurve"/>
      <point x="393" y="321"/>
      <point x="275" y="321" type="qcurve"/>
      <point x="275" y="171"/>
      <point x="276" y="150" type="qcurve"/>
      <point x="276" y="106" type="line"/>
      <point x="276" y="91"/>
    </contour>
  </outline>
</glyph>
<glyph name="comma" format="2">
  <advance height="1000" width="500"/>
  <unicode hex="002C"/>
  <outline>
    <contour>
      <point x="184" y="-120" type="qcurve"/>
      <point x="168" y="-120"/>
      <point x="168" y="-104" type="qcurve"/>
      <point x="168" y="-94"/>
      <point x="200" y="-73"/>
      <point x="239" y="-27"/>
      <point x="244" y="-6" type="qcurve"/>
      <point x="233" y="-2"/>
      <point x="227" y="4" type="qcurve"/>
      <point x="198" y="29"/>
      <point x="198" y="62" type="qcurve"/>
      <point x="198" y="117"/>
      <point x="247" y="117" type="qcurve"/>
      <point x="274" y="117"/>
      <point x="307" y="75"/>
      <point x="311" y="41"/>
      <point x="312" y="40" type="qcurve"/>
      <point x="312" y="38" type="line"/>
      <point x="312" y="-24"/>
      <point x="211" y="-120"/>
    </contour>
  </outline>
</glyph>
<glyph name="period" format="2">
  <advance height="1000" width="500"/>
  <unicode hex="002E"/>
  <outline>
    <contour>
      <point x="256" y="-18" type="qcurve"/>
      <point x="231" y="-18"/>
      <point x="192" y="30"/>
      <point x="192" y="52" type="qcurve"/>
      <point x="192" y="108"/>
      <point x="242" y="108" type="qcurve"/>
      <point x="267" y="108"/>
      <point x="308" y="61"/>
      <point x="308" y="36" type="qcurve"/>
      <point x="308" y="-18"/>
    </contour>
  </outline>
</glyph>
<glyph name="slash" format="2">
  <advance height="1000" width="500"/>
  <unicode hex="002F"/>
  <outline>
    <contour>
      <point x="83" y="-71" type="qcurve"/>
      <point x="72" y="-71"/>
      <point x="52" y="-43"/>
      <point x="52" y="-33" type="qcurve"/>
      <point x="52" y="-24"/>
      <point x="71" y="5"/>
      <point x="84" y="32" type="qcurve"/>
      <point x="404" y="758"/>
      <point x="412" y="779" type="qcurve"/>
      <point x="416" y="790"/>
      <point x="427" y="790" type="qcurve"/>
      <point x="439" y="790"/>
      <point x="461" y="758"/>
      <point x="461" y="748" type="qcurve"/>
      <point x="459" y="743" type="line"/>
      <point x="437" y="707"/>
      <point x="422" y="675" type="qcurve"/>
      <point x="116" y="-11"/>
      <point x="102" y="-46"/>
      <point x="93" y="-71"/>
    </contour>
  </outline>
</glyph>
<glyph name="zero" format="2">
  <advance height="1000" width="500"/>
  <unicode hex="0030"/>
  <outline>
    <contour>
      <point x="117" y="167" type="qcurve"/>
      <point x="354" y="596" type="line"/>
      <point x="319" y="661"/>
      <point x="264" y="661" type="qcurve"/>
      <point x="206" y="661"/>
      <point x="154" y="582" type="qcurve"/>
      <point x="97" y="494"/>
      <point x="97" y="339" type="qcurve"/>
      <point x="97" y="242"/>
    </contour>
    <contour>
      <point x="240" y="38" type="qcurve"/>
      <point x="320" y="38"/>
      <point x="361" y="140" type="qcurve"/>
      <point x="398" y="244"/>
      <point x="398" y="358" type="qcurve"/>
      <point x="398" y="472"/>
      <point x="377" y="537" type="qcurve"/>
      <point x="139" y="108" type="line"/>
      <point x="178" y="38"/>
    </contour>
    <contour>
      <point x="243" y="-16" type="qcurve"/>
      <point x="159" y="-16"/>
      <point x="105" y="57" type="qcurve"/>
      <point x="92" y="76"/>
      <point x="81" y="103" type="qcurve"/>
      <point x="39" y="200"/>
      <point x="39" y="337" type="qcurve"/>
      <point x="39" y="397"/>
      <point x="49" y="453" type="qcurve"/>
      <point x="70" y="571"/>
      <point x="103" y="629" type="qcurve"/>
      <point x="119" y="657"/>
      <point x="132" y="657" type="qcurve"/>
      <point x="145" y="657"/>
      <point x="149" y="653" type="qcurve"/>
      <point x="194" y="711"/>
      <point x="269" y="711" type="qcurve"/>
      <point x="344" y="711"/>
      <point x="388" y="646" type="qcurve"/>
      <point x="456" y="543"/>
      <point x="456" y="372" type="qcurve"/>
      <point x="456" y="201"/>
      <point x="405" y="98" type="qcurve"/>
      <point x="348" y="-16"/>
    </contour>
  </outline>
</glyph>
<glyph name="one" format="2">
  <advance height="1000" width="500"/>
  <unicode hex="0031"/>
  <outline>
    <contour>
      <point x="229" y="623" type="qcurve"/>
      <point x="157" y="580"/>
      <point x="142" y="569" type="qcurve"/>
      <point x="114" y="550"/>
      <point x="105" y="550" type="qcurve"/>
      <point x="93" y="550"/>
      <point x="76" y="575"/>
      <point x="76" y="585" type="qcurve"/>
      <point x="76" y="590"/>
      <point x="80" y="592" type="qcurve"/>
      <point x="226" y="684" type="line"/>
      <point x="244" y="708"/>
      <point x="257" y="708" type="qcurve"/>
      <point x="269" y="708"/>
      <point x="293" y="684"/>
      <point x="293" y="672" type="qcurve"/>
      <point x="293" y="659"/>
      <point x="288" y="623"/>
      <point x="288" y="600" type="qcurve"/>
      <point x="288" y="118"/>
      <point x="289" y="97" type="qcurve"/>
      <point x="289" y="55" type="line"/>
      <point x="385" y="57"/>
      <point x="401" y="59" type="qcurve"/>
      <point x="409" y="59" type="line"/>
      <point x="422" y="59"/>
      <point x="438" y="26"/>
      <point x="438" y="13" type="qcurve"/>
      <point x="438" y="0"/>
      <point x="427" y="0" type="qcurve"/>
      <point x="401" y="3"/>
      <point x="351" y="3" type="qcurve"/>
      <point x="122" y="-1" type="line"/>
      <point x="105" y="-4"/>
      <point x="93" y="-4" type="qcurve"/>
      <point x="91" y="-4" type="line"/>
      <point x="80" y="-4"/>
      <point x="63" y="26"/>
      <point x="63" y="39" type="qcurve"/>
      <point x="63" y="52"/>
      <point x="76" y="52" type="qcurve"/>
      <point x="121" y="52"/>
      <point x="227" y="54" type="qcurve"/>
      <point x="229" y="151"/>
    </contour>
  </outline>
</glyph>
<glyph name="two" format="2">
  <advance height="1000" width="500"/>
  <unicode hex="0032"/>
  <outline>
    <contour>
      <point x="84" y="-2" type="qcurve"/>
      <point x="79" y="-2" type="line"/>
      <point x="63" y="-2"/>
      <point x="43" y="29"/>
      <point x="43" y="42" type="qcurve"/>
      <point x="43" y="56"/>
      <point x="61" y="80" type="qcurve"/>
      <point x="121" y="197"/>
      <point x="267" y="341" type="qcurve"/>
      <point x="387" y="455"/>
      <point x="387" y="547" type="qcurve"/>
      <point x="387" y="594"/>
      <point x="331" y="657"/>
      <point x="279" y="657" type="qcurve"/>
      <point x="228" y="657"/>
      <point x="152" y="597"/>
      <point x="136" y="552" type="qcurve"/>
      <point x="129" y="527"/>
      <point x="113" y="527" type="qcurve"/>
      <point x="108" y="527"/>
      <point x="100" y="533" type="qcurve"/>
      <point x="79" y="546"/>
      <point x="79" y="571" type="qcurve"/>
      <point x="79" y="582"/>
      <point x="105" y="627"/>
      <point x="131" y="652" type="qcurve"/>
      <point x="192" y="711"/>
      <point x="276" y="711" type="qcurve"/>
      <point x="359" y="711"/>
      <point x="449" y="619"/>
      <point x="449" y="551" type="qcurve"/>
      <point x="449" y="484"/>
      <point x="376" y="365"/>
      <point x="311" y="303" type="qcurve"/>
      <point x="178" y="175"/>
      <point x="113" y="56" type="qcurve"/>
      <point x="169" y="61"/>
      <point x="315" y="61" type="qcurve"/>
      <point x="375" y="60" type="line"/>
      <point x="431" y="61" type="line"/>
      <point x="443" y="61"/>
      <point x="462" y="29"/>
      <point x="462" y="15" type="qcurve"/>
      <point x="462" y="1"/>
      <point x="447" y="1" type="qcurve"/>
      <point x="439" y="1"/>
      <point x="383" y="9"/>
      <point x="189" y="9" type="qcurve"/>
      <point x="143" y="9"/>
    </contour>
  </outline>
</glyph>
<glyph name="three" format="2">
  <advance height="1000" width="500"/>
  <unicode hex="0033"/>
  <outline>
    <contour>
      <point x="237" y="-16" type="qcurve"/>
      <point x="168" y="-16"/>
      <point x="81" y="26"/>
      <point x="46" y="64" type="qcurve"/>
      <point x="39" y="72"/>
      <point x="39" y="85" type="qcurve"/>
      <point x="39" y="98"/>
      <point x="57" y="129"/>
      <point x="67" y="129" type="qcurve"/>
      <point x="77" y="129"/>
      <point x="82" y="122" type="qcurve"/>
      <point x="109" y="83"/>
      <point x="175" y="37"/>
      <point x="230" y="37" type="qcurve"/>
      <point x="284" y="37"/>
      <point x="359" y="89"/>
      <point x="397" y="170"/>
      <point x="397" y="225" type="qcurve"/>
      <point x="397" y="280"/>
      <point x="321" y="355"/>
      <point x="264" y="355" type="qcurve"/>
      <point x="218" y="355"/>
      <point x="196" y="345"/>
      <point x="186" y="345" type="qcurve"/>
      <point x="177" y="345"/>
      <point x="160" y="374"/>
      <point x="160" y="386" type="qcurve"/>
      <point x="160" y="399"/>
      <point x="171" y="399" type="qcurve"/>
      <point x="288" y="416"/>
      <point x="330" y="464" type="qcurve"/>
      <point x="370" y="508"/>
      <point x="370" y="555" type="qcurve"/>
      <point x="370" y="602"/>
      <point x="313" y="659"/>
      <point x="265" y="659" type="qcurve"/>
      <point x="181" y="659"/>
      <point x="115" y="567" type="qcurve"/>
      <point x="110" y="560"/>
      <point x="103" y="560" type="qcurve"/>
      <point x="96" y="560"/>
      <point x="89" y="567" type="qcurve"/>
      <point x="72" y="583"/>
      <point x="72" y="603" type="qcurve"/>
      <point x="72" y="623"/>
      <point x="126" y="666" type="qcurve"/>
      <point x="187" y="711"/>
      <point x="262" y="711" type="qcurve"/>
      <point x="338" y="711"/>
      <point x="428" y="629"/>
      <point x="428" y="562" type="qcurve"/>
      <point x="428" y="495"/>
      <point x="352" y="409"/>
      <point x="291" y="390" type="qcurve"/>
      <point x="343" y="390"/>
      <point x="379" y="369" type="qcurve"/>
      <point x="456" y="322"/>
      <point x="456" y="213" type="qcurve"/>
      <point x="456" y="156"/>
      <point x="407" y="48"/>
      <point x="306" y="-16"/>
    </contour>
  </outline>
</glyph>
<glyph name="four" format="2">
  <advance height="1000" width="500"/>
  <unicode hex="0034"/>
  <outline>
    <contour>
      <point x="366" y="-11" type="qcurve"/>
      <point x="350" y="-11"/>
      <point x="320" y="5"/>
      <point x="320" y="17" type="qcurve"/>
      <point x="320" y="42"/>
      <point x="322" y="80" type="qcurve"/>
      <point x="322" y="159" type="line"/>
      <point x="115" y="147" type="line"/>
      <point x="77" y="140" type="line"/>
      <point x="61" y="140"/>
      <point x="35" y="168"/>
      <point x="35" y="181" type="qcurve"/>
      <point x="35" y="202"/>
      <point x="62" y="237" type="qcurve"/>
      <point x="72" y="250"/>
      <point x="137" y="369" type="qcurve"/>
      <point x="280" y="632"/>
      <point x="300" y="700" type="qcurve"/>
      <point x="304" y="710"/>
      <point x="312" y="710" type="qcurve"/>
      <point x="330" y="710"/>
      <point x="348" y="681" type="qcurve"/>
      <point x="354" y="669"/>
      <point x="354" y="662" type="qcurve"/>
      <point x="354" y="651"/>
      <point x="320" y="594" type="qcurve"/>
      <point x="182" y="338"/>
      <point x="101" y="198" type="qcurve"/>
      <point x="322" y="209" type="line"/>
      <point x="322" y="418"/>
      <point x="319" y="525" type="qcurve"/>
      <point x="319" y="535"/>
      <point x="335" y="535" type="qcurve"/>
      <point x="350" y="535"/>
      <point x="380" y="519"/>
      <point x="380" y="507" type="qcurve"/>
      <point x="378" y="389"/>
      <point x="378" y="212" type="qcurve"/>
      <point x="448" y="219" type="line"/>
      <point x="461" y="219"/>
      <point x="479" y="186"/>
      <point x="479" y="174" type="qcurve"/>
      <point x="479" y="161"/>
      <point x="467" y="161" type="qcurve"/>
      <point x="386" y="163" type="line"/>
      <point x="378" y="162" type="line"/>
      <point x="378" y="103" type="line"/>
      <point x="382" y="41"/>
      <point x="382" y="-1" type="qcurve"/>
      <point x="382" y="-11"/>
    </contour>
  </outline>
</glyph>
<glyph name="five" format="2">
  <advance height="1000" width="500"/>
  <unicode hex="0035"/>
  <outline>
    <contour>
      <point x="241" y="-17" type="qcurve"/>
      <point x="172" y="-17"/>
      <point x="82" y="36"/>
      <point x="49" y="76" type="qcurve"/>
      <point x="43" y="83"/>
      <point x="43" y="97" type="qcurve"/>
      <point x="43" y="111"/>
      <point x="62" y="145"/>
      <point x="71" y="145" type="qcurve"/>
      <point x="81" y="145"/>
      <point x="85" y="137" type="qcurve"/>
      <point x="142" y="38"/>
      <point x="229" y="38" type="qcurve"/>
      <point x="287" y="38"/>
      <point x="360" y="90"/>
      <point x="395" y="174"/>
      <point x="395" y="223" type="qcurve"/>
      <point x="395" y="301"/>
      <point x="318" y="387"/>
      <point x="255" y="387" type="qcurve"/>
      <point x="191" y="387"/>
      <point x="142" y="334" type="qcurve"/>
      <point x="117" y="308" type="line"/>
      <point x="113" y="304"/>
      <point x="103" y="304" type="qcurve"/>
      <point x="93" y="304"/>
      <point x="67" y="331"/>
      <point x="67" y="348" type="qcurve"/>
      <point x="67" y="353"/>
      <point x="76" y="392"/>
      <point x="111" y="647"/>
      <point x="111" y="679" type="qcurve"/>
      <point x="111" y="691"/>
      <point x="127" y="691" type="qcurve"/>
      <point x="143" y="691"/>
      <point x="162" y="679" type="qcurve"/>
      <point x="388" y="698"/>
      <point x="398" y="700" type="qcurve"/>
      <point x="413" y="700"/>
      <point x="429" y="670"/>
      <point x="429" y="658" type="qcurve"/>
      <point x="429" y="646"/>
      <point x="405" y="644"/>
      <point x="386" y="644" type="qcurve"/>
      <point x="163" y="625" type="line"/>
      <point x="129" y="389" type="line"/>
      <point x="180" y="439"/>
      <point x="269" y="439" type="qcurve"/>
      <point x="318" y="439"/>
      <point x="404" y="387"/>
      <point x="454" y="291"/>
      <point x="454" y="226" type="qcurve"/>
      <point x="454" y="162"/>
      <point x="409" y="51"/>
      <point x="309" y="-17"/>
    </contour>
  </outline>
</glyph>
<glyph name="six" format="2">
  <advance height="1000" width="500"/>
  <unicode hex="0036"/>
  <outline>
    <contour>
      <point x="250" y="35" type="qcurve"/>
      <point x="320" y="35"/>
      <point x="400" y="138"/>
      <point x="400" y="220" type="qcurve"/>
      <point x="400" y="265"/>
      <point x="367" y="338"/>
      <point x="306" y="382"/>
      <point x="261" y="382" type="qcurve"/>
      <point x="217" y="382"/>
      <point x="179" y="358" type="qcurve"/>
      <point x="100" y="299"/>
      <point x="100" y="197" type="qcurve"/>
      <point x="100" y="151"/>
      <point x="136" y="77"/>
      <point x="204" y="35"/>
    </contour>
    <contour>
      <point x="253" y="-16" type="qcurve"/>
      <point x="186" y="-16"/>
      <point x="91" y="43"/>
      <point x="42" y="138"/>
      <point x="42" y="203" type="qcurve"/>
      <point x="42" y="363"/>
      <point x="234" y="677" type="qcurve"/>
      <point x="248" y="700"/>
      <point x="261" y="711"/>
      <point x="274" y="711" type="qcurve"/>
      <point x="286" y="711"/>
      <point x="316" y="700"/>
      <point x="316" y="690" type="qcurve"/>
      <point x="316" y="685"/>
      <point x="308" y="674"/>
      <point x="306" y="669" type="qcurve"/>
      <point x="205" y="535"/>
      <point x="131" y="366" type="qcurve"/>
      <point x="159" y="432"/>
      <point x="266" y="432" type="qcurve"/>
      <point x="325" y="432"/>
      <point x="369" y="404" type="qcurve"/>
      <point x="459" y="344"/>
      <point x="459" y="223" type="qcurve"/>
      <point x="459" y="157"/>
      <point x="414" y="48"/>
      <point x="321" y="-16"/>
    </contour>
  </outline>
</glyph>
<glyph name="seven" format="2">
  <advance height="1000" width="500"/>
  <unicode hex="0037"/>
  <outline>
    <contour>
      <point x="182" y="-9" type="qcurve"/>
      <point x="142" y="-9"/>
      <point x="142" y="10" type="qcurve"/>
      <point x="142" y="15"/>
      <point x="179" y="132"/>
      <point x="303" y="464"/>
      <point x="384" y="644" type="qcurve"/>
      <point x="98" y="615" type="line"/>
      <point x="71" y="615"/>
      <point x="56" y="650" type="qcurve"/>
      <point x="52" y="662"/>
      <point x="52" y="667" type="qcurve"/>
      <point x="52" y="672"/>
      <point x="59" y="672" type="qcurve"/>
      <point x="90" y="670" type="line"/>
      <point x="379" y="693"/>
      <point x="396" y="698" type="qcurve"/>
      <point x="405" y="700"/>
      <point x="416" y="700" type="qcurve"/>
      <point x="428" y="700"/>
      <point x="455" y="671"/>
      <point x="455" y="657" type="qcurve"/>
      <point x="451" y="643"/>
      <point x="433" y="609" type="qcurve"/>
      <point x="310" y="342"/>
      <point x="230" y="91" type="qcurve"/>
      <point x="208" y="6" type="line"/>
      <point x="205" y="-9"/>
    </contour>
  </outline>
</glyph>
<glyph name="eight" format="2">
  <advance height="1000" width="500"/>
  <unicode hex="0038"/>
  <outline>
    <contour>
      <point x="232" y="428" type="qcurve"/>
      <point x="323" y="493"/>
      <point x="384" y="560" type="qcurve"/>
      <point x="388" y="563"/>
      <point x="388" y="565" type="qcurve"/>
      <point x="388" y="567"/>
      <point x="373" y="567"/>
      <point x="365" y="581" type="qcurve"/>
      <point x="346" y="618"/>
      <point x="296" y="660"/>
      <point x="256" y="660" type="qcurve"/>
      <point x="216" y="660"/>
      <point x="160" y="628"/>
      <point x="131" y="575"/>
      <point x="131" y="540" type="qcurve"/>
      <point x="131" y="505"/>
      <point x="179" y="454"/>
    </contour>
    <contour>
      <point x="236" y="38" type="qcurve"/>
      <point x="307" y="38"/>
      <point x="399" y="117"/>
      <point x="399" y="178" type="qcurve"/>
      <point x="399" y="240"/>
      <point x="324" y="330"/>
      <point x="235" y="367" type="qcurve"/>
      <point x="175" y="322"/>
      <point x="102" y="230"/>
      <point x="102" y="176" type="qcurve"/>
      <point x="102" y="97"/>
      <point x="161" y="57" type="qcurve"/>
      <point x="190" y="38"/>
    </contour>
    <contour>
      <point x="236" y="-15" type="qcurve"/>
      <point x="174" y="-15"/>
      <point x="88" y="36"/>
      <point x="44" y="121"/>
      <point x="44" y="180" type="qcurve"/>
      <point x="44" y="294"/>
      <point x="183" y="393" type="qcurve"/>
      <point x="122" y="428"/>
      <point x="74" y="497"/>
      <point x="74" y="543" type="qcurve"/>
      <point x="74" y="588"/>
      <point x="115" y="664"/>
      <point x="197" y="710"/>
      <point x="245" y="710" type="qcurve"/>
      <point x="294" y="710"/>
      <point x="325" y="695" type="qcurve"/>
      <point x="384" y="662"/>
      <point x="407" y="624" type="qcurve"/>
      <point x="417" y="607"/>
      <point x="417" y="600" type="qcurve"/>
      <point x="417" y="597"/>
      <point x="418" y="597" type="qcurve"/>
      <point x="419" y="597"/>
      <point x="422" y="601"/>
      <point x="434" y="601" type="qcurve"/>
      <point x="452" y="601"/>
      <point x="452" y="582" type="qcurve"/>
      <point x="452" y="570"/>
      <point x="431" y="541" type="qcurve"/>
      <point x="383" y="479"/>
      <point x="283" y="403" type="qcurve"/>
      <point x="374" y="360"/>
      <point x="457" y="258"/>
      <point x="457" y="186" type="qcurve"/>
      <point x="457" y="96"/>
      <point x="340" y="-15"/>
    </contour>
  </outline>
</glyph>
<glyph name="nine" format="2">
  <advance height="1000" width="500"/>
  <unicode hex="0039"/>
  <outline>
    <contour>
      <point x="189" y="317" type="qcurve"/>
      <point x="283" y="317"/>
      <point x="355" y="459" type="qcurve"/>
      <point x="377" y="502"/>
      <point x="390" y="569" type="qcurve"/>
      <point x="390" y="570"/>
      <point x="370" y="570"/>
      <point x="365" y="584" type="qcurve"/>
      <point x="334" y="658"/>
      <point x="266" y="658" type="qcurve"/>
      <point x="190" y="658"/>
      <point x="98" y="517"/>
      <point x="98" y="445" type="qcurve"/>
      <point x="98" y="318"/>
    </contour>
    <contour>
      <point x="312" y="-11" type="qcurve"/>
      <point x="289" y="-11"/>
      <point x="289" y="6" type="qcurve"/>
      <point x="289" y="11"/>
      <point x="292" y="19"/>
      <point x="293" y="30"/>
      <point x="305" y="95" type="qcurve"/>
      <point x="352" y="366" type="line"/>
      <point x="291" y="262"/>
      <point x="190" y="262" type="qcurve"/>
      <point x="125" y="262"/>
      <point x="41" y="358"/>
      <point x="41" y="450" type="qcurve"/>
      <point x="41" y="542"/>
      <point x="167" y="710"/>
      <point x="262" y="710" type="qcurve"/>
      <point x="340" y="710"/>
      <point x="384" y="657" type="qcurve"/>
      <point x="400" y="637"/>
      <point x="402" y="632" type="qcurve"/>
      <point x="404" y="645"/>
      <point x="407" y="681"/>
      <point x="422" y="681" type="qcurve"/>
      <point x="436" y="681"/>
      <point x="464" y="658"/>
      <point x="464" y="647" type="qcurve"/>
      <point x="434" y="547"/>
      <point x="381" y="212" type="qcurve"/>
      <point x="358" y="76"/>
      <point x="352" y="9" type="qcurve"/>
      <point x="351" y="-9"/>
    </contour>
  </outline>
</glyph>
<glyph name="semicolon" format="2">
  <advance height="1000" width="500"/>
  <unicode hex="003B"/>
  <outline>
    <contour>
      <point x="269" y="467" type="qcurve"/>
      <point x="245" y="467"/>
      <point x="208" y="511"/>
      <point x="208" y="534" type="qcurve"/>
      <point x="208" y="583"/>
      <point x="257" y="587" type="qcurve"/>
      <point x="279" y="587"/>
      <point x="317" y="541"/>
      <point x="317" y="517" type="qcurve"/>
      <point x="317" y="467"/>
    </contour>
    <contour>
      <point x="195" y="-11" type="qcurve"/>
      <point x="188" y="-11"/>
      <point x="179" y="-1"/>
      <point x="179" y="14"/>
      <point x="185" y="16" type="qcurve"/>
      <point x="245" y="59"/>
      <point x="255" y="105" type="qcurve"/>
      <point x="241" y="112"/>
      <point x="239" y="113" type="qcurve"/>
      <point x="211" y="137"/>
      <point x="211" y="169" type="qcurve"/>
      <point x="211" y="221"/>
      <point x="260" y="221" type="qcurve"/>
      <point x="284" y="221"/>
      <point x="315" y="181"/>
      <point x="319" y="148"/>
      <point x="320" y="147" type="qcurve"/>
      <point x="320" y="141" type="line"/>
      <point x="320" y="89"/>
      <point x="219" y="-11"/>
    </contour>
  </outline>
</glyph>
<glyph name="less" format="2">
  <advance height="1000" width="500"/>
  <unicode hex="003C"/>
  <outline>
    <contour>
      <point x="415" y="88" type="qcurve"/>
      <point x="411" y="88"/>
      <point x="405" y="92" type="qcurve"/>
      <point x="327" y="156"/>
      <point x="146" y="269"/>
      <point x="101" y="295"/>
      <point x="87" y="297"/>
      <point x="71" y="308"/>
      <point x="61" y="338"/>
      <point x="61" y="349" type="qcurve"/>
      <point x="61" y="359"/>
      <point x="68" y="373"/>
      <point x="96" y="382"/>
      <point x="131" y="403" type="qcurve"/>
      <point x="316" y="511"/>
      <point x="405" y="588" type="qcurve"/>
      <point x="411" y="592"/>
      <point x="415" y="592" type="qcurve"/>
      <point x="426" y="592"/>
      <point x="437" y="566"/>
      <point x="437" y="552" type="qcurve"/>
      <point x="437" y="538"/>
      <point x="429" y="532" type="qcurve"/>
      <point x="371" y="496"/>
      <point x="228" y="399"/>
      <point x="119" y="338" type="qcurve"/>
      <point x="255" y="263"/>
      <point x="395" y="169" type="qcurve"/>
      <point x="423" y="151" type="line"/>
      <point x="432" y="145"/>
      <point x="432" y="117" type="qcurve"/>
      <point x="432" y="88"/>
    </contour>
  </outline>
</glyph>
<glyph name="equal" format="2">
  <advance height="1000" width="500"/>
  <unicode hex="003D"/>
  <outline>
    <contour>
      <point x="80" y="408" type="qcurve"/>
      <point x="59" y="408"/>
      <point x="59" y="440" type="qcurve"/>
      <point x="59" y="461"/>
      <point x="76" y="461" type="qcurve"/>
      <point x="106" y="459"/>
      <point x="253" y="459" type="qcurve"/>
      <point x="382" y="459"/>
      <point x="421" y="462" type="qcurve"/>
      <point x="444" y="462"/>
      <point x="444" y="424" type="qcurve"/>
      <point x="444" y="409"/>
      <point x="428" y="409" type="qcurve"/>
      <point x="252" y="411" type="line"/>
      <point x="97" y="411"/>
    </contour>
    <contour>
      <point x="80" y="218" type="qcurve"/>
      <point x="59" y="218"/>
      <point x="59" y="250" type="qcurve"/>
      <point x="59" y="271"/>
      <point x="76" y="271" type="qcurve"/>
      <point x="106" y="269"/>
      <point x="253" y="269" type="qcurve"/>
      <point x="382" y="269"/>
      <point x="421" y="272" type="qcurve"/>
      <point x="444" y="272"/>
      <point x="444" y="234" type="qcurve"/>
      <point x="444" y="219"/>
      <point x="428" y="219" type="qcurve"/>
      <point x="252" y="221" type="line"/>
      <point x="97" y="221"/>
    </contour>
  </outline>
</glyph>
<glyph name="greater" format="2">
  <advance height="1000" width="500"/>
  <unicode hex="003E"/>
  <outline>
    <contour>
      <point x="76" y="88" type="qcurve"/>
      <point x="65" y="88"/>
      <point x="54" y="115"/>
      <point x="54" y="129" type="qcurve"/>
      <point x="54" y="144"/>
      <point x="62" y="148" type="qcurve"/>
      <point x="121" y="185" type="line"/>
      <point x="231" y="262"/>
      <point x="372" y="342" type="qcurve"/>
      <point x="158" y="467"/>
      <point x="81" y="522"/>
      <point x="67" y="529" type="qcurve"/>
      <point x="59" y="537"/>
      <point x="59" y="553" type="qcurve"/>
      <point x="59" y="592"/>
      <point x="76" y="592" type="qcurve"/>
      <point x="81" y="592"/>
      <point x="86" y="588" type="qcurve"/>
      <point x="203" y="492"/>
      <point x="384" y="389" type="qcurve"/>
      <point x="391" y="386"/>
      <point x="397" y="385" type="qcurve"/>
      <point x="430" y="377"/>
      <point x="430" y="332" type="qcurve"/>
      <point x="430" y="321"/>
      <point x="423" y="307"/>
      <point x="391" y="296" type="qcurve"/>
      <point x="172" y="166"/>
      <point x="86" y="92" type="qcurve"/>
      <point x="81" y="88"/>
    </contour>
  </outline>
</glyph>
<glyph name="question" format="2">
  <advance height="1000" width="500"/>
  <unicode hex="003F"/>
  <outline>
    <contour>
      <point x="248" y="168" type="qcurve"/>
      <point x="221" y="168"/>
      <point x="211" y="204"/>
      <point x="211" y="224" type="qcurve"/>
      <point x="211" y="335"/>
      <point x="284" y="394" type="qcurve"/>
      <point x="336" y="441" type="line"/>
      <point x="393" y="496"/>
      <point x="393" y="568" type="qcurve"/>
      <point x="393" y="658"/>
      <point x="302" y="662" type="qcurve"/>
      <point x="220" y="662"/>
      <point x="169" y="610" type="qcurve"/>
      <point x="123" y="561"/>
      <point x="117" y="527" type="qcurve"/>
      <point x="114" y="513"/>
      <point x="99" y="513" type="qcurve"/>
      <point x="85" y="513"/>
      <point x="60" y="535"/>
      <point x="60" y="543" type="qcurve"/>
      <point x="60" y="551"/>
      <point x="63" y="555" type="qcurve"/>
      <point x="144" y="711"/>
      <point x="297" y="711" type="qcurve"/>
      <point x="371" y="711"/>
      <point x="452" y="638"/>
      <point x="452" y="580" type="qcurve"/>
      <point x="452" y="523"/>
      <point x="435" y="487" type="qcurve"/>
      <point x="409" y="433"/>
      <point x="267" y="316"/>
      <point x="267" y="256" type="qcurve"/>
      <point x="267" y="220"/>
      <point x="274" y="190"/>
      <point x="276" y="186"/>
      <point x="276" y="182" type="qcurve"/>
      <point x="276" y="168"/>
    </contour>
    <contour>
      <point x="248" y="-5" type="qcurve"/>
      <point x="227" y="-5"/>
      <point x="199" y="33"/>
      <point x="199" y="51" type="qcurve"/>
      <point x="199" y="92"/>
      <point x="239" y="95" type="qcurve"/>
      <point x="257" y="95"/>
      <point x="287" y="56"/>
      <point x="287" y="37" type="qcurve"/>
      <point x="287" y="-5"/>
    </contour>
  </outline>
</glyph>
<glyph name="at" format="2">
  <advance height="1000" width="500"/>
  <unicode hex="0040"/>
  <outline>
    <contour>
      <point x="211" y="204" type="qcurve"/>
      <point x="242" y="204"/>
      <point x="266" y="261" type="qcurve"/>
      <point x="291" y="321"/>
      <point x="296" y="431" type="qcurve"/>
      <point x="296" y="512"/>
      <point x="264" y="512" type="qcurve"/>
      <point x="242" y="512"/>
      <point x="223" y="484" type="qcurve"/>
      <point x="180" y="416"/>
      <point x="180" y="310" type="qcurve"/>
      <point x="180" y="204"/>
    </contour>
    <contour>
      <point x="251" y="-15" type="qcurve"/>
      <point x="182" y="-15"/>
      <point x="86" y="64"/>
      <point x="33" y="207"/>
      <point x="33" y="306" type="qcurve"/>
      <point x="33" y="466"/>
      <point x="155" y="708"/>
      <point x="261" y="708" type="qcurve"/>
      <point x="326" y="708"/>
      <point x="372" y="669" type="qcurve"/>
      <point x="461" y="591"/>
      <point x="461" y="415" type="qcurve"/>
      <point x="461" y="336"/>
      <point x="427" y="217"/>
      <point x="377" y="150"/>
      <point x="350" y="150" type="qcurve"/>
      <point x="291" y="150"/>
      <point x="291" y="227" type="qcurve"/>
      <point x="291" y="222" type="line"/>
      <point x="282" y="193"/>
      <point x="230" y="151"/>
      <point x="208" y="151" type="qcurve"/>
      <point x="171" y="151"/>
      <point x="128" y="230"/>
      <point x="128" y="299" type="qcurve"/>
      <point x="128" y="369"/>
      <point x="145" y="426" type="qcurve"/>
      <point x="187" y="558"/>
      <point x="258" y="558" type="qcurve"/>
      <point x="300" y="558"/>
      <point x="307" y="537" type="qcurve"/>
      <point x="307" y="521" type="line"/>
      <point x="309" y="533"/>
      <point x="309" y="550"/>
      <point x="321" y="550" type="qcurve"/>
      <point x="333" y="550"/>
      <point x="363" y="525"/>
      <point x="363" y="509" type="qcurve"/>
      <point x="353" y="452"/>
      <point x="342" y="303" type="qcurve"/>
      <point x="341" y="272"/>
      <point x="339" y="257" type="qcurve"/>
      <point x="338" y="237" type="line"/>
      <point x="338" y="201"/>
      <point x="351" y="201" type="qcurve"/>
      <point x="358" y="201"/>
      <point x="385" y="249"/>
      <point x="408" y="344"/>
      <point x="408" y="415" type="qcurve"/>
      <point x="408" y="486"/>
      <point x="390" y="543" type="qcurve"/>
      <point x="353" y="660"/>
      <point x="260" y="660" type="qcurve"/>
      <point x="192" y="660"/>
      <point x="86" y="458"/>
      <point x="86" y="318" type="qcurve"/>
      <point x="86" y="178"/>
      <point x="175" y="35"/>
      <point x="246" y="35" type="qcurve"/>
      <point x="349" y="35"/>
      <point x="424" y="181" type="qcurve"/>
      <point x="431" y="194"/>
      <point x="441" y="194" type="qcurve"/>
      <point x="456" y="194"/>
      <point x="456" y="180" type="qcurve"/>
      <point x="456" y="171"/>
      <point x="455" y="169" type="qcurve"/>
      <point x="424" y="87"/>
      <point x="320" y="-15"/>
    </contour>
  </outline>
</glyph>
<glyph name="B" format="2">
  <advance height="1000" width="500"/>
  <unicode hex="0042"/>
  <outline>
    <contour>
      <point x="131" y="403" type="line"/>
      <point x="191" y="403"/>
      <point x="258" y="420"/>
      <point x="315" y="454"/>
      <point x="354" y="512"/>
      <point x="354" y="551" type="qcurve"/>
      <point x="354" y="658"/>
      <point x="234" y="658" type="qcurve"/>
      <point x="178" y="658"/>
      <point x="124" y="642" type="qcurve"/>
      <point x="124" y="403" type="line"/>
    </contour>
    <contour>
      <point x="124" y="33" type="line"/>
      <point x="143" y="33"/>
      <point x="178" y="35" type="qcurve"/>
      <point x="249" y="37"/>
      <point x="320" y="71" type="qcurve"/>
      <point x="396" y="112"/>
      <point x="396" y="211" type="qcurve"/>
      <point x="396" y="311"/>
      <point x="317" y="347" type="qcurve"/>
      <point x="285" y="362"/>
      <point x="256" y="363" type="qcurve"/>
      <point x="181" y="363"/>
      <point x="124" y="356" type="qcurve"/>
    </contour>
    <contour>
      <point x="162" y="-8" type="qcurve"/>
      <point x="28" y="-8"/>
      <point x="28" y="17" type="qcurve"/>
      <point x="28" y="23"/>
      <point x="38" y="34"/>
      <point x="52" y="34"/>
      <point x="69" y="36" type="qcurve"/>
      <point x="69" y="628" type="line"/>
      <point x="60" y="631"/>
      <point x="44" y="656"/>
      <point x="44" y="665" type="qcurve"/>
      <point x="44" y="674"/>
      <point x="51" y="678" type="qcurve"/>
      <point x="67" y="687"/>
      <point x="175" y="709"/>
      <point x="236" y="709" type="qcurve"/>
      <point x="328" y="709"/>
      <point x="411" y="620"/>
      <point x="411" y="557" type="qcurve"/>
      <point x="411" y="515"/>
      <point x="394" y="483" type="qcurve"/>
      <point x="355" y="417"/>
      <point x="304" y="397" type="qcurve"/>
      <point x="344" y="394"/>
      <point x="411" y="345"/>
      <point x="454" y="265"/>
      <point x="454" y="207" type="qcurve"/>
      <point x="454" y="150"/>
      <point x="432" y="108" type="qcurve"/>
      <point x="384" y="26"/>
      <point x="295" y="8" type="qcurve"/>
      <point x="228" y="-8"/>
    </contour>
  </outline>
</glyph>
<glyph name="C" format="2">
  <advance height="1000" width="500"/>
  <unicode hex="0043"/>
  <outline>
    <contour>
      <point x="246" y="-14" type="qcurve"/>
      <point x="187" y="-14"/>
      <point x="138" y="18" type="qcurve"/>
      <point x="36" y="84"/>
      <point x="36" y="293" type="qcurve"/>
      <point x="36" y="468"/>
      <point x="176" y="710"/>
      <point x="279" y="710" type="qcurve"/>
      <point x="323" y="710"/>
      <point x="356" y="696" type="qcurve"/>
      <point x="420" y="662"/>
      <point x="442" y="628" type="qcurve"/>
      <point x="451" y="612"/>
      <point x="451" y="605" type="qcurve"/>
      <point x="451" y="598"/>
      <point x="432" y="570"/>
      <point x="421" y="570" type="qcurve"/>
      <point x="411" y="570"/>
      <point x="406" y="580" type="qcurve"/>
      <point x="365" y="657"/>
      <point x="276" y="657" type="qcurve"/>
      <point x="224" y="657"/>
      <point x="182" y="610" type="qcurve"/>
      <point x="91" y="500"/>
      <point x="91" y="295" type="qcurve"/>
      <point x="91" y="158"/>
      <point x="179" y="38"/>
      <point x="250" y="38" type="qcurve"/>
      <point x="352" y="38"/>
      <point x="431" y="172" type="qcurve"/>
      <point x="440" y="186"/>
      <point x="450" y="186" type="qcurve"/>
      <point x="466" y="186"/>
      <point x="466" y="170" type="qcurve"/>
      <point x="466" y="167"/>
      <point x="458" y="146" type="qcurve"/>
      <point x="442" y="102"/>
      <point x="389" y="47" type="qcurve"/>
      <point x="328" y="-14"/>
    </contour>
  </outline>
</glyph>
<glyph name="D" format="2">
  <advance height="1000" width="500"/>
  <unicode hex="0044"/>
  <outline>
    <contour>
      <point x="120" y="34" type="line"/>
      <point x="186" y="37"/>
      <point x="279" y="72"/>
      <point x="355" y="147"/>
      <point x="406" y="276"/>
      <point x="406" y="376" type="qcurve"/>
      <point x="406" y="476"/>
      <point x="346" y="603"/>
      <point x="252" y="658"/>
      <point x="204" y="658" type="qcurve"/>
      <point x="157" y="658"/>
      <point x="120" y="646" type="qcurve"/>
    </contour>
    <contour>
      <point x="133" y="-6" type="qcurve"/>
      <point x="78" y="-6"/>
      <point x="28" y="2"/>
      <point x="28" y="16" type="qcurve"/>
      <point x="28" y="34"/>
      <point x="64" y="34" type="qcurve"/>
      <point x="64" y="631" type="line"/>
      <point x="55" y="634"/>
      <point x="40" y="658"/>
      <point x="40" y="668" type="qcurve"/>
      <point x="40" y="678"/>
      <point x="49" y="683" type="qcurve"/>
      <point x="111" y="710"/>
      <point x="213" y="710" type="qcurve"/>
      <point x="278" y="710"/>
      <point x="395" y="639"/>
      <point x="463" y="488"/>
      <point x="463" y="374" type="qcurve"/>
      <point x="463" y="260"/>
      <point x="402" y="110"/>
      <point x="310" y="23"/>
      <point x="259" y="10" type="qcurve"/>
      <point x="188" y="-6"/>
    </contour>
  </outline>
</glyph>
<glyph name="F" format="2">
  <advance height="1000" width="500"/>
  <unicode hex="0046"/>
  <outline>
    <contour>
      <point x="118" y="-9" type="qcurve"/>
      <point x="103" y="-9"/>
      <point x="74" y="7"/>
      <point x="74" y="19" type="qcurve"/>
      <point x="76" y="81"/>
      <point x="76" y="349" type="qcurve"/>
      <point x="65" y="356"/>
      <point x="50" y="382"/>
      <point x="50" y="390" type="qcurve"/>
      <point x="50" y="399"/>
      <point x="58" y="399" type="qcurve"/>
      <point x="76" y="398" type="line"/>
      <point x="76" y="629" type="line"/>
      <point x="69" y="687" type="line"/>
      <point x="69" y="692"/>
      <point x="72" y="698"/>
      <point x="84" y="698" type="qcurve"/>
      <point x="106" y="698"/>
      <point x="135" y="687" type="qcurve"/>
      <point x="338" y="699"/>
      <point x="413" y="707" type="qcurve"/>
      <point x="429" y="707"/>
      <point x="445" y="677"/>
      <point x="445" y="665" type="qcurve"/>
      <point x="445" y="652"/>
      <point x="433" y="651" type="qcurve"/>
      <point x="365" y="651" type="line"/>
      <point x="356" y="651"/>
      <point x="131" y="637" type="qcurve"/>
      <point x="131" y="398" type="line"/>
      <point x="288" y="408"/>
      <point x="364" y="415" type="qcurve"/>
      <point x="377" y="415"/>
      <point x="394" y="386"/>
      <point x="394" y="374" type="qcurve"/>
      <point x="394" y="362"/>
      <point x="368" y="361"/>
      <point x="322" y="361"/>
      <point x="131" y="349" type="qcurve"/>
      <point x="131" y="107" type="line"/>
      <point x="134" y="1" type="line"/>
      <point x="134" y="-9"/>
    </contour>
  </outline>
</glyph>
<glyph name="H" format="2">
  <advance height="1000" width="500"/>
  <unicode hex="0048"/>
  <outline>
    <contour>
      <point x="113" y="-11" type="qcurve"/>
      <point x="98" y="-11"/>
      <point x="68" y="5"/>
      <point x="68" y="17" type="qcurve"/>
      <point x="68" y="29"/>
      <point x="69" y="81"/>
      <point x="69" y="337" type="qcurve"/>
      <point x="71" y="337" type="line"/>
      <point x="64" y="335" type="line"/>
      <point x="47" y="335"/>
      <point x="36" y="365" type="qcurve"/>
      <point x="32" y="376"/>
      <point x="32" y="383" type="qcurve"/>
      <point x="32" y="394"/>
      <point x="44" y="394" type="qcurve"/>
      <point x="69" y="393" type="line"/>
      <point x="69" y="589" type="line"/>
      <point x="69" y="623"/>
      <point x="67" y="695" type="qcurve"/>
      <point x="67" y="705"/>
      <point x="82" y="705" type="qcurve"/>
      <point x="98" y="705"/>
      <point x="128" y="689"/>
      <point x="128" y="677" type="qcurve"/>
      <point x="128" y="665"/>
      <point x="126" y="614"/>
      <point x="126" y="395" type="qcurve"/>
      <point x="293" y="404" type="line"/>
      <point x="310" y="406"/>
      <point x="339" y="407"/>
      <point x="344" y="408" type="qcurve"/>
      <point x="365" y="409" type="line"/>
      <point x="374" y="409"/>
      <point x="380" y="403" type="qcurve"/>
      <point x="380" y="587"/>
      <point x="377" y="695" type="qcurve"/>
      <point x="377" y="705"/>
      <point x="393" y="705" type="qcurve"/>
      <point x="409" y="705"/>
      <point x="438" y="689"/>
      <point x="438" y="677" type="qcurve"/>
      <point x="438" y="665"/>
      <point x="436" y="614"/>
      <point x="436" y="106" type="qcurve"/>
      <point x="439" y="0" type="line"/>
      <point x="439" y="-10"/>
      <point x="424" y="-10" type="qcurve"/>
      <point x="409" y="-10"/>
      <point x="378" y="6"/>
      <point x="378" y="18" type="qcurve"/>
      <point x="378" y="30"/>
      <point x="380" y="82"/>
      <point x="380" y="353" type="qcurve"/>
      <point x="375" y="354"/>
      <point x="365" y="354" type="qcurve"/>
      <point x="318" y="354"/>
      <point x="126" y="343" type="qcurve"/>
      <point x="126" y="105" type="line"/>
      <point x="129" y="-1" type="line"/>
      <point x="129" y="-11"/>
    </contour>
  </outline>
</glyph>
<glyph name="J" format="2">
  <advance height="1000" width="500"/>
  <unicode hex="004A"/>
  <outline>
    <contour>
      <point x="245" y="-15" type="qcurve"/>
      <point x="156" y="-15"/>
      <point x="105" y="44" type="qcurve"/>
      <point x="64" y="95"/>
      <point x="64" y="126" type="qcurve"/>
      <point x="64" y="140"/>
      <point x="92" y="172"/>
      <point x="105" y="172" type="qcurve"/>
      <point x="118" y="172"/>
      <point x="118" y="162" type="qcurve"/>
      <point x="129" y="109"/>
      <point x="193" y="41"/>
      <point x="235" y="41" type="qcurve"/>
      <point x="260" y="41"/>
      <point x="283" y="53" type="qcurve"/>
      <point x="340" y="80"/>
      <point x="340" y="180" type="qcurve"/>
      <point x="340" y="587"/>
      <point x="337" y="695" type="qcurve"/>
      <point x="337" y="705"/>
      <point x="353" y="705" type="qcurve"/>
      <point x="369" y="705"/>
      <point x="400" y="689"/>
      <point x="400" y="677" type="qcurve"/>
      <point x="400" y="665"/>
      <point x="398" y="614"/>
      <point x="398" y="177" type="qcurve"/>
      <point x="398" y="103"/>
      <point x="376" y="61" type="qcurve"/>
      <point x="334" y="-15"/>
    </contour>
  </outline>
</glyph>
<glyph name="K" format="2">
  <advance height="1000" width="500"/>
  <unicode hex="004B"/>
  <outline>
    <contour>
      <point x="108" y="-11" type="qcurve"/>
      <point x="93" y="-11"/>
      <point x="64" y="5"/>
      <point x="64" y="17" type="qcurve"/>
      <point x="64" y="29"/>
      <point x="66" y="84"/>
      <point x="66" y="366" type="qcurve"/>
      <point x="66" y="647"/>
      <point x="63" y="690" type="qcurve"/>
      <point x="63" y="696" type="line"/>
      <point x="63" y="706"/>
      <point x="79" y="706" type="qcurve"/>
      <point x="95" y="706"/>
      <point x="123" y="690"/>
      <point x="123" y="678" type="qcurve"/>
      <point x="122" y="641"/>
      <point x="122" y="410" type="qcurve"/>
      <point x="268" y="564"/>
      <point x="371" y="701" type="qcurve"/>
      <point x="375" y="705"/>
      <point x="383" y="705" type="qcurve"/>
      <point x="392" y="705"/>
      <point x="403" y="699" type="qcurve"/>
      <point x="428" y="685"/>
      <point x="428" y="673" type="qcurve"/>
      <point x="428" y="671"/>
      <point x="425" y="668" type="qcurve"/>
      <point x="398" y="642"/>
      <point x="294" y="518"/>
      <point x="185" y="399" type="qcurve"/>
      <point x="280" y="259"/>
      <point x="439" y="50"/>
      <point x="467" y="22"/>
      <point x="467" y="16" type="qcurve"/>
      <point x="467" y="10"/>
      <point x="438" y="-8"/>
      <point x="420" y="-8" type="qcurve"/>
      <point x="402" y="-8"/>
      <point x="395" y="6" type="qcurve"/>
      <point x="390" y="22"/>
      <point x="370" y="47" type="qcurve"/>
      <point x="223" y="250"/>
      <point x="148" y="361" type="qcurve"/>
      <point x="122" y="333" type="line"/>
      <point x="123" y="-1" type="line"/>
      <point x="123" y="-11"/>
    </contour>
  </outline>
</glyph>
<glyph name="L" format="2">
  <advance height="1000" width="500"/>
  <unicode hex="004C"/>
  <outline>
    <contour>
      <point x="110" y="-7" type="qcurve"/>
      <point x="87" y="-7"/>
      <point x="74" y="22" type="qcurve"/>
      <point x="69" y="32"/>
      <point x="69" y="38" type="qcurve"/>
      <point x="69" y="44"/>
      <point x="75" y="57"/>
      <point x="75" y="330" type="qcurve"/>
      <point x="75" y="623"/>
      <point x="73" y="695" type="qcurve"/>
      <point x="73" y="705"/>
      <point x="88" y="705" type="qcurve"/>
      <point x="104" y="705"/>
      <point x="134" y="689"/>
      <point x="134" y="677" type="qcurve"/>
      <point x="134" y="665"/>
      <point x="132" y="614"/>
      <point x="132" y="51" type="qcurve"/>
      <point x="201" y="56"/>
      <point x="417" y="56" type="qcurve"/>
      <point x="431" y="56"/>
      <point x="448" y="22"/>
      <point x="448" y="10" type="qcurve"/>
      <point x="448" y="-3"/>
      <point x="432" y="-3" type="qcurve"/>
      <point x="377" y="2"/>
      <point x="342" y="3" type="qcurve"/>
      <point x="224" y="3" type="line"/>
      <point x="137" y="3"/>
    </contour>
  </outline>
</glyph>
<glyph name="M" format="2">
  <advance height="1000" width="500"/>
  <unicode hex="004D"/>
  <outline>
    <contour>
      <point x="66" y="-6" type="qcurve"/>
      <point x="35" y="-6"/>
      <point x="35" y="7" type="qcurve"/>
      <point x="35" y="14"/>
      <point x="43" y="84" type="qcurve"/>
      <point x="74" y="626"/>
      <point x="74" y="653" type="qcurve"/>
      <point x="73" y="668" type="line"/>
      <point x="73" y="683"/>
      <point x="109" y="702"/>
      <point x="124" y="702" type="qcurve"/>
      <point x="139" y="702"/>
      <point x="141" y="694"/>
      <point x="143" y="691"/>
      <point x="144" y="684"/>
      <point x="146" y="677" type="qcurve"/>
      <point x="154" y="645"/>
      <point x="242" y="208" type="qcurve"/>
      <point x="286" y="406"/>
      <point x="359" y="683"/>
      <point x="362" y="709"/>
      <point x="372" y="709" type="qcurve"/>
      <point x="383" y="709"/>
      <point x="398" y="704" type="qcurve"/>
      <point x="433" y="689"/>
      <point x="433" y="676" type="qcurve"/>
      <point x="429" y="630" type="line"/>
      <point x="431" y="591" type="line"/>
      <point x="438" y="506"/>
      <point x="456" y="140"/>
      <point x="460" y="54"/>
      <point x="468" y="18" type="qcurve"/>
      <point x="468" y="7"/>
      <point x="444" y="-5"/>
      <point x="430" y="-5" type="qcurve"/>
      <point x="403" y="-5"/>
      <point x="403" y="11" type="qcurve"/>
      <point x="403" y="123"/>
      <point x="398" y="241" type="qcurve"/>
      <point x="381" y="570" type="line"/>
      <point x="383" y="580" type="line"/>
      <point x="364" y="511"/>
      <point x="279" y="165"/>
      <point x="279" y="134" type="qcurve"/>
      <point x="278" y="123"/>
      <point x="251" y="107"/>
      <point x="231" y="107" type="qcurve"/>
      <point x="211" y="107"/>
      <point x="206" y="147"/>
      <point x="170" y="321" type="qcurve"/>
      <point x="120" y="562"/>
      <point x="120" y="568" type="qcurve"/>
      <point x="121" y="566" type="line"/>
      <point x="115" y="459"/>
      <point x="103" y="171" type="qcurve"/>
      <point x="98" y="92"/>
      <point x="98" y="12" type="qcurve"/>
      <point x="97" y="-6"/>
    </contour>
  </outline>
</glyph>
<glyph name="O" format="2">
  <advance height="1000" width="500"/>
  <unicode hex="004F"/>
  <outline>
    <contour>
      <point x="240" y="38" type="qcurve"/>
      <point x="331" y="38"/>
      <point x="372" y="140" type="qcurve"/>
      <point x="408" y="231"/>
      <point x="408" y="353" type="qcurve"/>
      <point x="408" y="475"/>
      <point x="375" y="569" type="qcurve"/>
      <point x="339" y="661"/>
      <point x="267" y="661" type="qcurve"/>
      <point x="206" y="661"/>
      <point x="153" y="582" type="qcurve"/>
      <point x="93" y="493"/>
      <point x="93" y="339" type="qcurve"/>
      <point x="93" y="154"/>
      <point x="153" y="78" type="qcurve"/>
      <point x="186" y="38"/>
    </contour>
    <contour>
      <point x="244" y="-16" type="qcurve"/>
      <point x="174" y="-16"/>
      <point x="127" y="31" type="qcurve"/>
      <point x="38" y="122"/>
      <point x="38" y="337" type="qcurve"/>
      <point x="38" y="396"/>
      <point x="48" y="452" type="qcurve"/>
      <point x="68" y="570"/>
      <point x="103" y="627" type="qcurve"/>
      <point x="120" y="655"/>
      <point x="134" y="655" type="qcurve"/>
      <point x="148" y="655"/>
      <point x="153" y="647" type="qcurve"/>
      <point x="198" y="711"/>
      <point x="266" y="711" type="qcurve"/>
      <point x="335" y="711"/>
      <point x="377" y="665" type="qcurve"/>
      <point x="463" y="565"/>
      <point x="463" y="363" type="qcurve"/>
      <point x="463" y="210"/>
      <point x="411" y="98" type="qcurve"/>
      <point x="352" y="-16"/>
    </contour>
  </outline>
</glyph>
<glyph name="P" format="2">
  <advance height="1000" width="500"/>
  <unicode hex="0050"/>
  <outline>
    <contour>
      <point x="139" y="366" type="qcurve"/>
      <point x="199" y="366"/>
      <point x="269" y="382" type="qcurve"/>
      <point x="338" y="400"/>
      <point x="405" y="471"/>
      <point x="405" y="538" type="qcurve"/>
      <point x="405" y="604"/>
      <point x="323" y="654"/>
      <point x="251" y="654" type="qcurve"/>
      <point x="179" y="654"/>
      <point x="122" y="635" type="qcurve"/>
      <point x="122" y="368" type="line"/>
      <point x="122" y="366"/>
    </contour>
    <contour>
      <point x="109" y="-11" type="qcurve"/>
      <point x="94" y="-11"/>
      <point x="64" y="5"/>
      <point x="64" y="17" type="qcurve"/>
      <point x="64" y="29"/>
      <point x="66" y="88"/>
      <point x="66" y="618" type="qcurve"/>
      <point x="52" y="618"/>
      <point x="30" y="649"/>
      <point x="30" y="658" type="qcurve"/>
      <point x="30" y="668"/>
      <point x="44" y="678"/>
      <point x="172" y="702" type="qcurve"/>
      <point x="203" y="707"/>
      <point x="245" y="707" type="qcurve"/>
      <point x="462" y="707"/>
      <point x="462" y="538" type="qcurve"/>
      <point x="462" y="324"/>
      <point x="182" y="324" type="qcurve"/>
      <point x="124" y="324"/>
      <point x="122" y="326" type="qcurve"/>
      <point x="122" y="115" type="line"/>
      <point x="125" y="-1" type="line"/>
      <point x="125" y="-11"/>
    </contour>
  </outline>
</glyph>
<glyph name="Q" format="2">
  <advance height="1000" width="500"/>
  <unicode hex="0051"/>
  <outline>
    <contour>
      <point x="238" y="38" type="qcurve"/>
      <point x="291" y="38"/>
      <point x="324" y="70" type="qcurve"/>
      <point x="265" y="157"/>
      <point x="257" y="167" type="qcurve"/>
      <point x="241" y="184"/>
      <point x="241" y="190" type="qcurve"/>
      <point x="241" y="197"/>
      <point x="265" y="211"/>
      <point x="279" y="211" type="qcurve"/>
      <point x="293" y="211"/>
      <point x="310" y="190"/>
      <point x="359" y="113" type="qcurve"/>
      <point x="408" y="196"/>
      <point x="408" y="371" type="qcurve"/>
      <point x="408" y="475"/>
      <point x="375" y="569" type="qcurve"/>
      <point x="339" y="661"/>
      <point x="267" y="661" type="qcurve"/>
      <point x="206" y="661"/>
      <point x="153" y="582" type="qcurve"/>
      <point x="93" y="493"/>
      <point x="93" y="339" type="qcurve"/>
      <point x="93" y="154"/>
      <point x="153" y="78" type="qcurve"/>
      <point x="185" y="38"/>
    </contour>
    <contour>
      <point x="469" y="-64" type="qcurve"/>
      <point x="456" y="-64"/>
      <point x="435" y="-51" type="qcurve"/>
      <point x="393" y="-31"/>
      <point x="354" y="24" type="qcurve"/>
      <point x="311" y="-16"/>
      <point x="243" y="-16" type="qcurve"/>
      <point x="174" y="-16"/>
      <point x="127" y="31" type="qcurve"/>
      <point x="38" y="122"/>
      <point x="38" y="337" type="qcurve"/>
      <point x="38" y="396"/>
      <point x="48" y="452" type="qcurve"/>
      <point x="68" y="570"/>
      <point x="102" y="627" type="qcurve"/>
      <point x="120" y="655"/>
      <point x="134" y="655" type="qcurve"/>
      <point x="148" y="655"/>
      <point x="153" y="647" type="qcurve"/>
      <point x="198" y="711"/>
      <point x="266" y="711" type="qcurve"/>
      <point x="335" y="711"/>
      <point x="377" y="665" type="qcurve"/>
      <point x="463" y="565"/>
      <point x="463" y="368" type="qcurve"/>
      <point x="463" y="171"/>
      <point x="391" y="65" type="qcurve"/>
      <point x="443" y="-10"/>
      <point x="474" y="-39" type="qcurve"/>
      <point x="482" y="-47"/>
      <point x="482" y="-55" type="qcurve"/>
      <point x="482" y="-64"/>
    </contour>
  </outline>
</glyph>
<glyph name="R" format="2">
  <advance height="1000" width="500"/>
  <unicode hex="0052"/>
  <outline>
    <contour>
      <point x="119" y="378" type="line"/>
      <point x="121" y="383"/>
      <point x="149" y="383" type="qcurve"/>
      <point x="164" y="382" type="line"/>
      <point x="337" y="382"/>
      <point x="378" y="486" type="qcurve"/>
      <point x="389" y="512"/>
      <point x="389" y="535" type="qcurve"/>
      <point x="389" y="649"/>
      <point x="250" y="653" type="qcurve"/>
      <point x="168" y="653"/>
      <point x="119" y="635" type="qcurve"/>
    </contour>
    <contour>
      <point x="107" y="-11" type="qcurve"/>
      <point x="91" y="-11"/>
      <point x="64" y="5"/>
      <point x="64" y="17" type="qcurve"/>
      <point x="65" y="59" type="line"/>
      <point x="65" y="616" type="line"/>
      <point x="51" y="616"/>
      <point x="29" y="650"/>
      <point x="29" y="661" type="qcurve"/>
      <point x="29" y="673"/>
      <point x="39" y="674" type="qcurve"/>
      <point x="57" y="678"/>
      <point x="91" y="684"/>
      <point x="127" y="693" type="qcurve"/>
      <point x="161" y="705"/>
      <point x="244" y="705" type="qcurve"/>
      <point x="326" y="705"/>
      <point x="368" y="679" type="qcurve"/>
      <point x="443" y="635"/>
      <point x="443" y="539" type="qcurve"/>
      <point x="443" y="488"/>
      <point x="421" y="447" type="qcurve"/>
      <point x="364" y="353"/>
      <point x="253" y="344" type="qcurve"/>
      <point x="219" y="340"/>
      <point x="210" y="340" type="qcurve"/>
      <point x="201" y="339" type="line"/>
      <point x="244" y="292"/>
      <point x="292" y="225" type="qcurve"/>
      <point x="419" y="45"/>
      <point x="469" y="14" type="qcurve"/>
      <point x="482" y="6"/>
      <point x="482" y="-2" type="qcurve"/>
      <point x="482" y="-9"/>
      <point x="468" y="-9" type="qcurve"/>
      <point x="446" y="-9"/>
      <point x="385" y="21"/>
      <point x="357" y="52" type="qcurve"/>
      <point x="343" y="69"/>
      <point x="269" y="170" type="qcurve"/>
      <point x="150" y="338"/>
      <point x="119" y="338" type="qcurve"/>
      <point x="119" y="115" type="line"/>
      <point x="122" y="-1" type="line"/>
      <point x="122" y="-11"/>
    </contour>
  </outline>
</glyph>
<glyph name="S" format="2">
  <advance height="1000" width="500"/>
  <unicode hex="0053"/>
  <outline>
    <contour>
      <point x="246" y="-14" type="qcurve"/>
      <point x="121" y="-14"/>
      <point x="43" y="95" type="qcurve"/>
      <point x="39" y="101"/>
      <point x="39" y="113" type="qcurve"/>
      <point x="39" y="124"/>
      <point x="58" y="155"/>
      <point x="68" y="155" type="qcurve"/>
      <point x="78" y="155"/>
      <point x="82" y="147" type="qcurve"/>
      <point x="125" y="70"/>
      <point x="174" y="53" type="qcurve"/>
      <point x="211" y="38"/>
      <point x="251" y="38" type="qcurve"/>
      <point x="291" y="38"/>
      <point x="326" y="58" type="qcurve"/>
      <point x="403" y="109"/>
      <point x="403" y="189" type="qcurve"/>
      <point x="403" y="312"/>
      <point x="290" y="346" type="qcurve"/>
      <point x="192" y="377" type="line"/>
      <point x="61" y="423"/>
      <point x="61" y="530" type="qcurve"/>
      <point x="61" y="586"/>
      <point x="86" y="625" type="qcurve"/>
      <point x="149" y="709"/>
      <point x="258" y="709" type="qcurve"/>
      <point x="304" y="709"/>
      <point x="381" y="676"/>
      <point x="426" y="631"/>
      <point x="426" y="614" type="qcurve"/>
      <point x="426" y="597"/>
      <point x="414" y="570"/>
      <point x="404" y="570" type="qcurve"/>
      <point x="394" y="570"/>
      <point x="383" y="586" type="qcurve"/>
      <point x="365" y="609" type="line"/>
      <point x="322" y="657"/>
      <point x="261" y="657" type="qcurve"/>
      <point x="221" y="657"/>
      <point x="188" y="641" type="qcurve"/>
      <point x="118" y="603"/>
      <point x="118" y="537" type="qcurve"/>
      <point x="118" y="487"/>
      <point x="172" y="436"/>
      <point x="260" y="409"/>
      <point x="306" y="395" type="qcurve"/>
      <point x="460" y="345"/>
      <point x="460" y="192" type="qcurve"/>
      <point x="460" y="138"/>
      <point x="409" y="42"/>
      <point x="314" y="-14"/>
    </contour>
  </outline>
</glyph>
<glyph name="T" format="2">
  <advance height="1000" width="500"/>
  <unicode hex="0054"/>
  <outline>
    <contour>
      <point x="265" y="-11" type="qcurve"/>
      <point x="250" y="-11"/>
      <point x="219" y="5"/>
      <point x="219" y="17" type="qcurve"/>
      <point x="219" y="29"/>
      <point x="221" y="81"/>
      <point x="221" y="640" type="qcurve"/>
      <point x="105" y="632"/>
      <point x="91" y="630" type="qcurve"/>
      <point x="72" y="627"/>
      <point x="59" y="627" type="qcurve"/>
      <point x="48" y="627"/>
      <point x="31" y="657"/>
      <point x="31" y="670" type="qcurve"/>
      <point x="31" y="683"/>
      <point x="44" y="683" type="qcurve"/>
      <point x="110" y="682" type="line"/>
      <point x="410" y="702"/>
      <point x="437" y="707" type="qcurve"/>
      <point x="453" y="707"/>
      <point x="469" y="677"/>
      <point x="469" y="664" type="qcurve"/>
      <point x="469" y="650"/>
      <point x="456" y="650" type="qcurve"/>
      <point x="435" y="651" type="line"/>
      <point x="389" y="651"/>
      <point x="278" y="644" type="qcurve"/>
      <point x="278" y="105" type="line"/>
      <point x="281" y="-1" type="line"/>
      <point x="281" y="-11"/>
    </contour>
  </outline>
</glyph>
<glyph name="U" format="2">
  <advance height="1000" width="500"/>
  <unicode hex="0055"/>
  <outline>
    <contour>
      <point x="232" y="-15" type="qcurve"/>
      <point x="138" y="-15"/>
      <point x="58" y="97"/>
      <point x="58" y="199" type="qcurve"/>
      <point x="58" y="616"/>
      <point x="55" y="678"/>
      <point x="55" y="694" type="qcurve"/>
      <point x="55" y="705"/>
      <point x="72" y="705" type="qcurve"/>
      <point x="89" y="705"/>
      <point x="116" y="690"/>
      <point x="116" y="679" type="qcurve"/>
      <point x="116" y="667"/>
      <point x="114" y="609"/>
      <point x="114" y="211" type="qcurve"/>
      <point x="114" y="120"/>
      <point x="166" y="38"/>
      <point x="232" y="38" type="qcurve"/>
      <point x="280" y="38"/>
      <point x="313" y="64" type="qcurve"/>
      <point x="385" y="124"/>
      <point x="385" y="243" type="qcurve"/>
      <point x="385" y="592" type="line"/>
      <point x="382" y="696" type="line"/>
      <point x="382" y="707"/>
      <point x="399" y="707" type="qcurve"/>
      <point x="416" y="707"/>
      <point x="443" y="692"/>
      <point x="443" y="681" type="qcurve"/>
      <point x="443" y="669"/>
      <point x="441" y="619"/>
      <point x="441" y="231" type="qcurve"/>
      <point x="441" y="160"/>
      <point x="392" y="49"/>
      <point x="297" y="-15"/>
    </contour>
  </outline>
</glyph>
<glyph name="V" format="2">
  <advance height="1000" width="500"/>
  <unicode hex="0056"/>
  <outline>
    <contour>
      <point x="257" y="-16" type="qcurve"/>
      <point x="223" y="-16"/>
      <point x="207" y="48" type="qcurve"/>
      <point x="168" y="215"/>
      <point x="77" y="552" type="qcurve"/>
      <point x="55" y="637"/>
      <point x="37" y="682"/>
      <point x="36" y="689" type="qcurve"/>
      <point x="36" y="703"/>
      <point x="65" y="703" type="qcurve"/>
      <point x="94" y="703"/>
      <point x="101" y="685" type="qcurve"/>
      <point x="103" y="680"/>
      <point x="113" y="630" type="qcurve"/>
      <point x="186" y="381"/>
      <point x="246" y="106" type="qcurve"/>
      <point x="308" y="338"/>
      <point x="389" y="618" type="qcurve"/>
      <point x="398" y="651"/>
      <point x="406" y="698" type="qcurve"/>
      <point x="408" y="710"/>
      <point x="423" y="710" type="qcurve"/>
      <point x="437" y="710"/>
      <point x="467" y="685"/>
      <point x="467" y="672" type="qcurve"/>
      <point x="467" y="669"/>
      <point x="453" y="636"/>
      <point x="442" y="602" type="qcurve"/>
      <point x="422" y="529"/>
      <point x="343" y="261"/>
      <point x="294" y="81" type="qcurve"/>
      <point x="285" y="26"/>
      <point x="272" y="-16"/>
    </contour>
  </outline>
</glyph>
<glyph name="W" format="2">
  <advance height="1000" width="500"/>
  <unicode hex="0057"/>
  <outline>
    <contour>
      <point x="369" y="-14" type="qcurve"/>
      <point x="350" y="-14"/>
      <point x="310" y="20"/>
      <point x="307" y="46" type="qcurve"/>
      <point x="277" y="366"/>
      <point x="247" y="582" type="qcurve"/>
      <point x="241" y="535"/>
      <point x="231" y="445" type="qcurve"/>
      <point x="190" y="64"/>
      <point x="188" y="7" type="qcurve"/>
      <point x="186" y="-13"/>
      <point x="164" y="-13" type="qcurve"/>
      <point x="143" y="-13"/>
      <point x="105" y="19"/>
      <point x="101" y="46" type="qcurve"/>
      <point x="64" y="459"/>
      <point x="35" y="662"/>
      <point x="24" y="694" type="qcurve"/>
      <point x="24" y="704"/>
      <point x="42" y="704" type="qcurve"/>
      <point x="61" y="704"/>
      <point x="91" y="689"/>
      <point x="97" y="670"/>
      <point x="98" y="641"/>
      <point x="98" y="628"/>
      <point x="125" y="389"/>
      <point x="147" y="110" type="qcurve"/>
      <point x="170" y="361"/>
      <point x="203" y="633"/>
      <point x="204" y="670" type="qcurve"/>
      <point x="204" y="689"/>
      <point x="239" y="689" type="qcurve"/>
      <point x="255" y="689"/>
      <point x="285" y="676"/>
      <point x="289" y="661"/>
      <point x="289" y="652" type="qcurve"/>
      <point x="289" y="636"/>
      <point x="291" y="623" type="qcurve"/>
      <point x="328" y="355"/>
      <point x="353" y="107" type="qcurve"/>
      <point x="375" y="359"/>
      <point x="410" y="640"/>
      <point x="410" y="691" type="qcurve"/>
      <point x="411" y="704"/>
      <point x="428" y="704" type="qcurve"/>
      <point x="445" y="704"/>
      <point x="476" y="686"/>
      <point x="476" y="676" type="qcurve"/>
      <point x="459" y="632"/>
      <point x="403" y="85" type="qcurve"/>
      <point x="396" y="8"/>
      <point x="388" y="-14"/>
    </contour>
  </outline>
</glyph>
<glyph name="X" format="2">
  <advance height="1000" width="500"/>
  <unicode hex="0058"/>
  <outline>
    <contour>
      <point x="399" y="-9" type="qcurve"/>
      <point x="382" y="-9"/>
      <point x="378" y="5" type="qcurve"/>
      <point x="367" y="36"/>
      <point x="250" y="287" type="qcurve"/>
      <point x="153" y="87" type="line"/>
      <point x="117" y="2" type="line"/>
      <point x="114" y="-9"/>
      <point x="96" y="-9" type="qcurve"/>
      <point x="78" y="-9"/>
      <point x="48" y="7"/>
      <point x="48" y="16" type="qcurve"/>
      <point x="48" y="19"/>
      <point x="92" y="90"/>
      <point x="107" y="118" type="qcurve"/>
      <point x="220" y="354" type="line"/>
      <point x="109" y="593" type="line"/>
      <point x="87" y="641"/>
      <point x="65" y="673" type="qcurve"/>
      <point x="63" y="678"/>
      <point x="63" y="680" type="qcurve"/>
      <point x="63" y="690"/>
      <point x="93" y="706"/>
      <point x="108" y="706" type="qcurve"/>
      <point x="123" y="706"/>
      <point x="126" y="697" type="qcurve"/>
      <point x="144" y="653"/>
      <point x="251" y="419" type="qcurve"/>
      <point x="368" y="665"/>
      <point x="378" y="691" type="qcurve"/>
      <point x="382" y="699"/>
      <point x="395" y="699" type="qcurve"/>
      <point x="408" y="699"/>
      <point x="438" y="676"/>
      <point x="438" y="666" type="qcurve"/>
      <point x="436" y="661" type="line"/>
      <point x="414" y="629"/>
      <point x="394" y="587" type="qcurve"/>
      <point x="281" y="353" type="line"/>
      <point x="389" y="118" type="line"/>
      <point x="408" y="78"/>
      <point x="445" y="23" type="qcurve"/>
      <point x="447" y="19" type="line"/>
      <point x="447" y="10"/>
      <point x="416" y="-9"/>
    </contour>
  </outline>
</glyph>
<glyph name="Y" format="2">
  <advance height="1000" width="500"/>
  <unicode hex="0059"/>
  <outline>
    <contour>
      <point x="260" y="-10" type="qcurve"/>
      <point x="244" y="-10"/>
      <point x="214" y="6"/>
      <point x="214" y="18" type="qcurve"/>
      <point x="215" y="80"/>
      <point x="215" y="294" type="qcurve"/>
      <point x="179" y="385"/>
      <point x="72" y="618"/>
      <point x="41" y="671" type="qcurve"/>
      <point x="40" y="675" type="line"/>
      <point x="37" y="681" type="line"/>
      <point x="37" y="689"/>
      <point x="64" y="700"/>
      <point x="79" y="700" type="qcurve"/>
      <point x="93" y="700"/>
      <point x="105" y="684"/>
      <point x="111" y="662" type="qcurve"/>
      <point x="123" y="631" type="line"/>
      <point x="190" y="494"/>
      <point x="245" y="354" type="qcurve"/>
      <point x="353" y="599" type="line"/>
      <point x="372" y="641"/>
      <point x="386" y="677"/>
      <point x="393" y="691"/>
      <point x="398" y="708"/>
      <point x="414" y="708" type="qcurve"/>
      <point x="430" y="708"/>
      <point x="460" y="690"/>
      <point x="460" y="683" type="qcurve"/>
      <point x="460" y="682"/>
      <point x="458" y="680" type="qcurve"/>
      <point x="393" y="578"/>
      <point x="274" y="294" type="qcurve"/>
      <point x="274" y="94"/>
      <point x="276" y="24"/>
      <point x="276" y="0" type="qcurve"/>
      <point x="276" y="-10"/>
    </contour>
  </outline>
</glyph>
<glyph name="bracketleft" format="2">
  <advance height="1000" width="500"/>
  <unicode hex="005B"/>
  <outline>
    <contour>
      <point x="252" y="-145" type="line"/>
      <point x="234" y="-145"/>
      <point x="210" y="-149" type="qcurve"/>
      <point x="199" y="-149"/>
      <point x="176" y="-125"/>
      <point x="176" y="-114" type="qcurve"/>
      <point x="179" y="-85" type="line"/>
      <point x="180" y="-63"/>
      <point x="180" y="678" type="qcurve"/>
      <point x="174" y="736" type="line"/>
      <point x="174" y="751"/>
      <point x="191" y="762"/>
      <point x="261" y="762"/>
      <point x="309" y="764" type="qcurve"/>
      <point x="338" y="764" type="line"/>
      <point x="349" y="764"/>
      <point x="366" y="744"/>
      <point x="366" y="719"/>
      <point x="354" y="718" type="qcurve"/>
      <point x="233" y="718" type="line"/>
      <point x="233" y="-102" type="line"/>
      <point x="290" y="-100" type="line"/>
      <point x="312" y="-99"/>
      <point x="346" y="-99"/>
      <point x="364" y="-120"/>
      <point x="364" y="-131" type="qcurve"/>
      <point x="364" y="-144"/>
      <point x="352" y="-145" type="qcurve"/>
    </contour>
  </outline>
</glyph>
<glyph name="backslash" format="2">
  <advance height="1000" width="500"/>
  <unicode hex="005C"/>
  <outline>
    <contour>
      <point x="430" y="-71" type="qcurve"/>
      <point x="420" y="-71"/>
      <point x="411" y="-46"/>
      <point x="397" y="-11"/>
      <point x="91" y="675" type="qcurve"/>
      <point x="76" y="707"/>
      <point x="54" y="743" type="qcurve"/>
      <point x="52" y="748" type="line"/>
      <point x="52" y="758"/>
      <point x="74" y="790"/>
      <point x="86" y="790" type="qcurve"/>
      <point x="97" y="790"/>
      <point x="101" y="779" type="qcurve"/>
      <point x="114" y="745"/>
      <point x="128" y="715" type="qcurve"/>
      <point x="439" y="10"/>
      <point x="452" y="-9" type="qcurve"/>
      <point x="461" y="-24"/>
      <point x="461" y="-33" type="qcurve"/>
      <point x="461" y="-43"/>
      <point x="441" y="-71"/>
    </contour>
  </outline>
</glyph>
<glyph name="bracketright" format="2">
  <advance height="1000" width="500"/>
  <unicode hex="005D"/>
  <outline>
    <contour>
      <point x="213" y="-147"/>
      <point x="173" y="-147"/>
      <point x="151" y="-148"/>
      <point x="134" y="-127"/>
      <point x="134" y="-116" type="qcurve"/>
      <point x="134" y="-102"/>
      <point x="146" y="-102" type="qcurve"/>
      <point x="267" y="-102" type="line"/>
      <point x="267" y="718" type="line"/>
      <point x="211" y="716" type="line"/>
      <point x="190" y="715"/>
      <point x="155" y="715"/>
      <point x="136" y="736"/>
      <point x="136" y="747" type="qcurve"/>
      <point x="136" y="761"/>
      <point x="148" y="761" type="qcurve"/>
      <point x="249" y="761" type="line"/>
      <point x="285" y="761"/>
      <point x="290" y="765" type="qcurve"/>
      <point x="301" y="765"/>
      <point x="324" y="742"/>
      <point x="324" y="714"/>
      <point x="320" y="676"/>
      <point x="320" y="-62" type="qcurve"/>
      <point x="320" y="-80"/>
      <point x="325" y="-99" type="qcurve"/>
      <point x="326" y="-120" type="line"/>
      <point x="326" y="-134"/>
      <point x="309" y="-146"/>
      <point x="281" y="-146" type="qcurve"/>
      <point x="237" y="-146" type="line"/>
    </contour>
  </outline>
</glyph>
<glyph name="asciicircum" format="2">
  <advance height="1000" width="500"/>
  <unicode hex="005E"/>
  <outline>
    <contour>
      <point x="103" y="464" type="qcurve"/>
      <point x="89" y="464"/>
      <point x="63" y="477"/>
      <point x="63" y="485" type="qcurve"/>
      <point x="63" y="489"/>
      <point x="68" y="497" type="qcurve"/>
      <point x="82" y="514"/>
      <point x="210" y="741" type="qcurve"/>
      <point x="216" y="755"/>
      <point x="218" y="776"/>
      <point x="247" y="785"/>
      <point x="256" y="785" type="qcurve"/>
      <point x="272" y="785"/>
      <point x="281" y="761" type="qcurve"/>
      <point x="282" y="757"/>
      <point x="403" y="541"/>
      <point x="408" y="534" type="qcurve"/>
      <point x="433" y="491"/>
      <point x="439" y="479" type="qcurve"/>
      <point x="439" y="466"/>
      <point x="410" y="466" type="qcurve"/>
      <point x="382" y="466"/>
      <point x="372" y="491"/>
      <point x="357" y="524"/>
      <point x="250" y="711" type="qcurve"/>
      <point x="152" y="538" type="line"/>
      <point x="137" y="510"/>
      <point x="120" y="472" type="qcurve"/>
      <point x="117" y="464"/>
    </contour>
  </outline>
</glyph>
<glyph name="grave" format="2">
  <advance height="1000" width="500"/>
  <unicode hex="0060"/>
  <unicode hex="0300"/>
  <unicode hex="02CB"/>
  <outline>
    <contour>
      <point x="332" y="589"/>
      <point x="317" y="571"/>
      <point x="297" y="571"/>
      <point x="290" y="578" type="qcurve"/>
      <point x="170" y="686" type="line"/>
      <point x="162" y="695"/>
      <point x="162" y="713"/>
      <point x="185" y="732"/>
      <point x="212" y="732"/>
      <point x="222" y="722" type="qcurve"/>
      <point x="325" y="616" type="line"/>
      <point x="332" y="609"/>
    </contour>
  </outline>
</glyph>
<glyph name="a" format="2">
  <advance height="1000" width="500"/>
  <unicode hex="0061"/>
  <outline>
    <contour>
      <point x="198" y="34" type="qcurve"/>
      <point x="238" y="34"/>
      <point x="279" y="66" type="qcurve"/>
      <point x="376" y="143"/>
      <point x="376" y="334" type="qcurve"/>
      <point x="376" y="361"/>
      <point x="377" y="375" type="qcurve"/>
      <point x="377" y="376"/>
      <point x="356" y="376"/>
      <point x="352" y="381" type="qcurve"/>
      <point x="320" y="436"/>
      <point x="273" y="436" type="qcurve"/>
      <point x="216" y="436"/>
      <point x="161" y="363" type="qcurve"/>
      <point x="106" y="286"/>
      <point x="106" y="180" type="qcurve"/>
      <point x="106" y="34"/>
    </contour>
    <contour>
      <point x="187" y="-16" type="qcurve"/>
      <point x="127" y="-16"/>
      <point x="48" y="82"/>
      <point x="48" y="175" type="qcurve"/>
      <point x="48" y="298"/>
      <point x="190" y="484"/>
      <point x="272" y="484" type="qcurve"/>
      <point x="307" y="484"/>
      <point x="368" y="447"/>
      <point x="377" y="423" type="qcurve"/>
      <point x="379" y="475" type="line"/>
      <point x="379" y="484"/>
      <point x="395" y="484" type="qcurve"/>
      <point x="411" y="484"/>
      <point x="441" y="469"/>
      <point x="441" y="457" type="qcurve"/>
      <point x="435" y="408"/>
      <point x="429" y="214"/>
      <point x="429" y="193" type="qcurve"/>
      <point x="431" y="153" type="line"/>
      <point x="432" y="92"/>
      <point x="460" y="33" type="qcurve"/>
      <point x="462" y="27" type="line"/>
      <point x="462" y="17"/>
      <point x="443" y="-11"/>
      <point x="428" y="-11" type="qcurve"/>
      <point x="408" y="-11"/>
      <point x="378" y="90"/>
      <point x="376" y="115" type="qcurve"/>
      <point x="348" y="54"/>
      <point x="248" y="-16"/>
    </contour>
  </outline>
</glyph>
<glyph name="b" format="2">
  <advance height="1000" width="500"/>
  <unicode hex="0062"/>
  <outline>
    <contour>
      <point x="231" y="33" type="qcurve"/>
      <point x="266" y="33"/>
      <point x="342" y="88"/>
      <point x="394" y="197"/>
      <point x="394" y="277" type="qcurve"/>
      <point x="394" y="357"/>
      <point x="335" y="434"/>
      <point x="296" y="434" type="qcurve"/>
      <point x="258" y="434"/>
      <point x="223" y="412" type="qcurve"/>
      <point x="149" y="364"/>
      <point x="125" y="254" type="qcurve"/>
      <point x="118" y="219"/>
      <point x="118" y="108" type="qcurve"/>
      <point x="117" y="106" type="line"/>
      <point x="117" y="103"/>
      <point x="137" y="103"/>
      <point x="147" y="86" type="qcurve"/>
      <point x="182" y="33"/>
    </contour>
    <contour>
      <point x="228" y="-15" type="qcurve"/>
      <point x="191" y="-15"/>
      <point x="127" y="26"/>
      <point x="117" y="48" type="qcurve"/>
      <point x="114" y="27" type="line"/>
      <point x="112" y="17"/>
      <point x="90" y="-3"/>
      <point x="77" y="-3" type="qcurve"/>
      <point x="63" y="-3"/>
      <point x="63" y="12" type="qcurve"/>
      <point x="63" y="27"/>
      <point x="65" y="81"/>
      <point x="65" y="353" type="qcurve"/>
      <point x="65" y="625"/>
      <point x="62" y="682"/>
      <point x="62" y="699" type="qcurve"/>
      <point x="62" y="708"/>
      <point x="78" y="708" type="qcurve"/>
      <point x="93" y="708"/>
      <point x="122" y="692"/>
      <point x="122" y="681" type="qcurve"/>
      <point x="122" y="669"/>
      <point x="120" y="618"/>
      <point x="120" y="367" type="qcurve"/>
      <point x="179" y="484"/>
      <point x="295" y="484" type="qcurve"/>
      <point x="364" y="484"/>
      <point x="450" y="378"/>
      <point x="450" y="286" type="qcurve"/>
      <point x="450" y="195"/>
      <point x="421" y="129" type="qcurve"/>
      <point x="352" y="-15"/>
    </contour>
  </outline>
</glyph>
<glyph name="c" format="2">
  <advance height="1000" width="500"/>
  <unicode hex="0063"/>
  <outline>
    <contour>
      <point x="241" y="-16" type="qcurve"/>
      <point x="190" y="-16"/>
      <point x="110" y="33"/>
      <point x="62" y="127"/>
      <point x="62" y="190" type="qcurve"/>
      <point x="62" y="310"/>
      <point x="135" y="398" type="qcurve"/>
      <point x="211" y="484"/>
      <point x="295" y="484" type="qcurve"/>
      <point x="334" y="484"/>
      <point x="360" y="471" type="qcurve"/>
      <point x="409" y="444"/>
      <point x="420" y="415" type="qcurve"/>
      <point x="427" y="402"/>
      <point x="427" y="395" type="qcurve"/>
      <point x="427" y="387"/>
      <point x="405" y="362"/>
      <point x="395" y="362" type="qcurve"/>
      <point x="385" y="362"/>
      <point x="382" y="368" type="qcurve"/>
      <point x="350" y="434"/>
      <point x="292" y="434" type="qcurve"/>
      <point x="234" y="434"/>
      <point x="119" y="295"/>
      <point x="119" y="199" type="qcurve"/>
      <point x="119" y="141"/>
      <point x="157" y="68"/>
      <point x="211" y="34"/>
      <point x="245" y="34" type="qcurve"/>
      <point x="280" y="34"/>
      <point x="312" y="50" type="qcurve"/>
      <point x="377" y="87"/>
      <point x="419" y="138" type="qcurve"/>
      <point x="432" y="152"/>
      <point x="442" y="152" type="qcurve"/>
      <point x="451" y="152"/>
      <point x="451" y="144" type="qcurve"/>
      <point x="451" y="136"/>
      <point x="425" y="85"/>
      <point x="373" y="26"/>
      <point x="293" y="-16"/>
    </contour>
  </outline>
</glyph>
<glyph name="d" format="2">
  <advance height="1000" width="500"/>
  <unicode hex="0064"/>
  <outline>
    <contour>
      <point x="197" y="34" type="qcurve"/>
      <point x="259" y="34"/>
      <point x="318" y="106" type="qcurve"/>
      <point x="380" y="182"/>
      <point x="380" y="276" type="qcurve"/>
      <point x="380" y="373" type="line"/>
      <point x="380" y="376"/>
      <point x="362" y="376"/>
      <point x="358" y="382" type="qcurve"/>
      <point x="328" y="436"/>
      <point x="274" y="436" type="qcurve"/>
      <point x="206" y="436"/>
      <point x="105" y="279"/>
      <point x="105" y="194" type="qcurve"/>
      <point x="105" y="109"/>
      <point x="161" y="34"/>
    </contour>
    <contour>
      <point x="197" y="-16" type="qcurve"/>
      <point x="130" y="-16"/>
      <point x="48" y="90"/>
      <point x="48" y="186" type="qcurve"/>
      <point x="48" y="304"/>
      <point x="185" y="484"/>
      <point x="269" y="484" type="qcurve"/>
      <point x="354" y="484"/>
      <point x="380" y="430" type="qcurve"/>
      <point x="378" y="699" type="line"/>
      <point x="378" y="708"/>
      <point x="393" y="708" type="qcurve"/>
      <point x="408" y="708"/>
      <point x="437" y="692"/>
      <point x="437" y="681" type="qcurve"/>
      <point x="437" y="669"/>
      <point x="435" y="618"/>
      <point x="435" y="185" type="qcurve"/>
      <point x="435" y="80"/>
      <point x="466" y="37" type="qcurve"/>
      <point x="467" y="35"/>
      <point x="467" y="27" type="qcurve"/>
      <point x="467" y="20"/>
      <point x="447" y="-10"/>
      <point x="434" y="-10" type="qcurve"/>
      <point x="421" y="-10"/>
      <point x="409" y="12" type="qcurve"/>
      <point x="383" y="63"/>
      <point x="383" y="121" type="qcurve"/>
      <point x="310" y="-16"/>
    </contour>
  </outline>
</glyph>
<glyph name="f" format="2">
  <advance height="1000" width="500"/>
  <unicode hex="0066"/>
  <outline>
    <contour>
      <point x="251" y="-6" type="qcurve"/>
      <point x="237" y="-6"/>
      <point x="202" y="7"/>
      <point x="202" y="18" type="qcurve"/>
      <point x="202" y="29"/>
      <point x="205" y="91"/>
      <point x="205" y="430" type="qcurve"/>
      <point x="89" y="429"/>
      <point x="79" y="428" type="qcurve"/>
      <point x="77" y="428" type="line"/>
      <point x="61" y="428"/>
      <point x="61" y="465" type="qcurve"/>
      <point x="61" y="480"/>
      <point x="74" y="480" type="qcurve"/>
      <point x="104" y="478"/>
      <point x="205" y="478" type="qcurve"/>
      <point x="205" y="589" type="line"/>
      <point x="205" y="662"/>
      <point x="271" y="691" type="qcurve"/>
      <point x="301" y="703"/>
      <point x="335" y="703" type="qcurve"/>
      <point x="370" y="703"/>
      <point x="420" y="684"/>
      <point x="446" y="657"/>
      <point x="446" y="644" type="qcurve"/>
      <point x="446" y="631"/>
      <point x="428" y="605"/>
      <point x="418" y="605" type="qcurve"/>
      <point x="418" y="607"/>
      <point x="414" y="611" type="qcurve"/>
      <point x="387" y="652"/>
      <point x="329" y="652" type="qcurve"/>
      <point x="301" y="652"/>
      <point x="262" y="617"/>
      <point x="262" y="585" type="qcurve"/>
      <point x="262" y="478" type="line"/>
      <point x="382" y="478"/>
      <point x="421" y="481" type="qcurve"/>
      <point x="440" y="481"/>
      <point x="440" y="443" type="qcurve"/>
      <point x="440" y="428"/>
      <point x="428" y="428" type="qcurve"/>
      <point x="262" y="430" type="line"/>
      <point x="262" y="74"/>
      <point x="266" y="16"/>
      <point x="266" y="-1" type="qcurve"/>
      <point x="266" y="-6"/>
    </contour>
  </outline>
</glyph>
<glyph name="g" format="2">
  <advance height="1000" width="500"/>
  <unicode hex="0067"/>
  <outline>
    <contour>
      <point x="207" y="59" type="qcurve"/>
      <point x="289" y="59"/>
      <point x="348" y="133" type="qcurve"/>
      <point x="391" y="187"/>
      <point x="392" y="270" type="qcurve"/>
      <point x="393" y="302"/>
      <point x="393" y="380" type="qcurve"/>
      <point x="391" y="375"/>
      <point x="381" y="375" type="qcurve"/>
      <point x="371" y="375"/>
      <point x="366" y="381" type="qcurve"/>
      <point x="329" y="435"/>
      <point x="271" y="435" type="qcurve"/>
      <point x="212" y="435"/>
      <point x="113" y="291"/>
      <point x="113" y="210" type="qcurve"/>
      <point x="113" y="130"/>
      <point x="169" y="59"/>
    </contour>
    <contour>
      <point x="230" y="-173" type="qcurve"/>
      <point x="174" y="-173"/>
      <point x="142" y="-157" type="qcurve"/>
      <point x="80" y="-124"/>
      <point x="67" y="-89" type="qcurve"/>
      <point x="60" y="-73" type="line"/>
      <point x="60" y="-62"/>
      <point x="82" y="-35"/>
      <point x="94" y="-35" type="qcurve"/>
      <point x="106" y="-35"/>
      <point x="110" y="-46" type="qcurve"/>
      <point x="135" y="-122"/>
      <point x="225" y="-122" type="qcurve"/>
      <point x="323" y="-122"/>
      <point x="370" y="-47" type="qcurve"/>
      <point x="393" y="-8"/>
      <point x="393" y="51" type="qcurve"/>
      <point x="393" y="123" type="line"/>
      <point x="362" y="66"/>
      <point x="264" y="9"/>
      <point x="214" y="9" type="qcurve"/>
      <point x="141" y="9"/>
      <point x="57" y="113"/>
      <point x="57" y="213" type="qcurve"/>
      <point x="57" y="312"/>
      <point x="120" y="397" type="qcurve"/>
      <point x="150" y="437"/>
      <point x="230" y="484"/>
      <point x="272" y="484" type="qcurve"/>
      <point x="367" y="484"/>
      <point x="393" y="421" type="qcurve"/>
      <point x="392" y="475" type="line"/>
      <point x="392" y="484"/>
      <point x="408" y="484" type="qcurve"/>
      <point x="423" y="484"/>
      <point x="451" y="468"/>
      <point x="451" y="458" type="qcurve"/>
      <point x="448" y="317"/>
      <point x="448" y="50" type="qcurve"/>
      <point x="448" y="-21"/>
      <point x="388" y="-121"/>
      <point x="286" y="-173"/>
    </contour>
  </outline>
</glyph>
<glyph name="h" format="2">
  <advance height="1000" width="500"/>
  <unicode hex="0068"/>
  <outline>
    <contour>
      <point x="424" y="-10" type="qcurve"/>
      <point x="408" y="-10"/>
      <point x="381" y="5"/>
      <point x="381" y="15" type="qcurve"/>
      <point x="381" y="63"/>
      <point x="382" y="84" type="qcurve"/>
      <point x="382" y="293" type="line"/>
      <point x="382" y="334"/>
      <point x="375" y="365" type="qcurve"/>
      <point x="363" y="431"/>
      <point x="302" y="431" type="qcurve"/>
      <point x="273" y="431"/>
      <point x="239" y="416" type="qcurve"/>
      <point x="170" y="389"/>
      <point x="139" y="288" type="qcurve"/>
      <point x="127" y="227"/>
      <point x="127" y="162" type="qcurve"/>
      <point x="125" y="97" type="line"/>
      <point x="125" y="71"/>
      <point x="128" y="-1" type="qcurve"/>
      <point x="128" y="-10"/>
      <point x="113" y="-10" type="qcurve"/>
      <point x="98" y="-10"/>
      <point x="69" y="6"/>
      <point x="69" y="17" type="qcurve"/>
      <point x="69" y="46" type="line"/>
      <point x="70" y="92"/>
      <point x="70" y="350" type="qcurve"/>
      <point x="70" y="607"/>
      <point x="68" y="664" type="qcurve"/>
      <point x="68" y="697" type="line"/>
      <point x="68" y="706"/>
      <point x="83" y="706" type="qcurve"/>
      <point x="98" y="706"/>
      <point x="127" y="690"/>
      <point x="127" y="679" type="qcurve"/>
      <point x="125" y="545"/>
      <point x="125" y="371" type="qcurve"/>
      <point x="137" y="398"/>
      <point x="166" y="426" type="qcurve"/>
      <point x="234" y="483"/>
      <point x="302" y="483" type="qcurve"/>
      <point x="384" y="483"/>
      <point x="414" y="419" type="qcurve"/>
      <point x="436" y="371"/>
      <point x="436" y="297" type="qcurve"/>
      <point x="436" y="99"/>
      <point x="439" y="22"/>
      <point x="439" y="-1" type="qcurve"/>
      <point x="439" y="-10"/>
    </contour>
  </outline>
</glyph>
<glyph name="i" format="2">
  <advance height="1000" width="500"/>
  <unicode hex="0069"/>
  <outline>
    <contour>
      <point x="103" y="-4" type="qcurve"/>
      <point x="101" y="-4" type="line"/>
      <point x="90" y="-4"/>
      <point x="73" y="26"/>
      <point x="73" y="39" type="qcurve"/>
      <point x="73" y="52"/>
      <point x="86" y="52" type="qcurve"/>
      <point x="141" y="52"/>
      <point x="222" y="54" type="qcurve"/>
      <point x="222" y="422" type="line"/>
      <point x="191" y="417"/>
      <point x="116" y="417" type="qcurve"/>
      <point x="102" y="417"/>
      <point x="86" y="451"/>
      <point x="86" y="463" type="qcurve"/>
      <point x="86" y="476"/>
      <point x="102" y="476" type="qcurve"/>
      <point x="133" y="471"/>
      <point x="167" y="470" type="qcurve"/>
      <point x="217" y="471"/>
      <point x="244" y="481" type="qcurve"/>
      <point x="267" y="481"/>
      <point x="280" y="452" type="qcurve"/>
      <point x="285" y="442"/>
      <point x="285" y="436" type="qcurve"/>
      <point x="285" y="430"/>
      <point x="279" y="417"/>
      <point x="279" y="55" type="qcurve"/>
      <point x="375" y="57"/>
      <point x="391" y="59" type="qcurve"/>
      <point x="399" y="59" type="line"/>
      <point x="412" y="59"/>
      <point x="428" y="26"/>
      <point x="428" y="13" type="qcurve"/>
      <point x="428" y="0"/>
      <point x="417" y="0" type="qcurve"/>
      <point x="391" y="3"/>
      <point x="341" y="3" type="qcurve"/>
      <point x="132" y="-1" type="line"/>
      <point x="115" y="-4"/>
    </contour>
    <contour>
      <point x="255" y="602" type="qcurve"/>
      <point x="235" y="602"/>
      <point x="209" y="638"/>
      <point x="209" y="655" type="qcurve"/>
      <point x="209" y="693"/>
      <point x="246" y="696" type="qcurve"/>
      <point x="264" y="696"/>
      <point x="291" y="660"/>
      <point x="291" y="641" type="qcurve"/>
      <point x="291" y="602"/>
    </contour>
  </outline>
</glyph>
<glyph name="j" format="2">
  <advance height="1000" width="500"/>
  <unicode hex="006A"/>
  <outline>
    <contour>
      <point x="357" y="602" type="qcurve"/>
      <point x="337" y="602"/>
      <point x="310" y="638"/>
      <point x="310" y="655" type="qcurve"/>
      <point x="310" y="693"/>
      <point x="347" y="696" type="qcurve"/>
      <point x="365" y="696"/>
      <point x="393" y="660"/>
      <point x="393" y="641" type="qcurve"/>
      <point x="393" y="602"/>
    </contour>
    <contour>
      <point x="203" y="-173" type="qcurve"/>
      <point x="154" y="-173"/>
      <point x="124" y="-156" type="qcurve"/>
      <point x="72" y="-122"/>
      <point x="61" y="-87" type="qcurve"/>
      <point x="56" y="-73" type="line"/>
      <point x="56" y="-63"/>
      <point x="75" y="-35"/>
      <point x="89" y="-35" type="qcurve"/>
      <point x="104" y="-35"/>
      <point x="107" y="-47" type="qcurve"/>
      <point x="128" y="-122"/>
      <point x="199" y="-122" type="qcurve"/>
      <point x="277" y="-122"/>
      <point x="314" y="-48" type="qcurve"/>
      <point x="334" y="-9"/>
      <point x="334" y="51" type="qcurve"/>
      <point x="334" y="422" type="line"/>
      <point x="302" y="417"/>
      <point x="183" y="417" type="qcurve"/>
      <point x="169" y="417"/>
      <point x="152" y="451"/>
      <point x="152" y="463" type="qcurve"/>
      <point x="152" y="476"/>
      <point x="168" y="476" type="qcurve"/>
      <point x="200" y="471"/>
      <point x="278" y="470" type="qcurve"/>
      <point x="329" y="471"/>
      <point x="356" y="481" type="qcurve"/>
      <point x="378" y="481"/>
      <point x="391" y="452" type="qcurve"/>
      <point x="397" y="442"/>
      <point x="397" y="436" type="qcurve"/>
      <point x="397" y="430"/>
      <point x="390" y="417"/>
      <point x="390" y="50" type="qcurve"/>
      <point x="390" y="-88"/>
      <point x="296" y="-146" type="qcurve"/>
      <point x="252" y="-173"/>
    </contour>
  </outline>
</glyph>
<glyph name="k" format="2">
  <advance height="1000" width="500"/>
  <unicode hex="006B"/>
  <outline>
    <contour>
      <point x="417" y="-13" type="qcurve"/>
      <point x="404" y="-13"/>
      <point x="358" y="36" type="qcurve"/>
      <point x="236" y="183"/>
      <point x="162" y="262" type="qcurve"/>
      <point x="134" y="242" type="line"/>
      <point x="134" y="106"/>
      <point x="137" y="0" type="qcurve"/>
      <point x="137" y="-9"/>
      <point x="122" y="-9" type="qcurve"/>
      <point x="107" y="-9"/>
      <point x="78" y="7"/>
      <point x="78" y="18" type="qcurve"/>
      <point x="80" y="70"/>
      <point x="80" y="346" type="qcurve"/>
      <point x="80" y="598"/>
      <point x="77" y="697" type="qcurve"/>
      <point x="77" y="706"/>
      <point x="92" y="706" type="qcurve"/>
      <point x="108" y="706"/>
      <point x="136" y="690"/>
      <point x="136" y="679" type="qcurve"/>
      <point x="134" y="561"/>
      <point x="134" y="305" type="qcurve"/>
      <point x="306" y="438" type="line"/>
      <point x="329" y="458"/>
      <point x="346" y="477" type="qcurve"/>
      <point x="351" y="483"/>
      <point x="366" y="483" type="qcurve"/>
      <point x="380" y="483"/>
      <point x="412" y="466"/>
      <point x="412" y="458" type="qcurve"/>
      <point x="412" y="455"/>
      <point x="408" y="452" type="qcurve"/>
      <point x="372" y="426"/>
      <point x="203" y="294" type="qcurve"/>
      <point x="231" y="265"/>
      <point x="301" y="182"/>
      <point x="348" y="129" type="qcurve"/>
      <point x="409" y="52"/>
      <point x="454" y="27" type="qcurve"/>
      <point x="460" y="24"/>
      <point x="460" y="18" type="qcurve"/>
      <point x="460" y="11"/>
      <point x="431" y="-13"/>
    </contour>
  </outline>
</glyph>
<glyph name="l" format="2">
  <advance height="1000" width="500"/>
  <unicode hex="006C"/>
  <outline>
    <contour>
      <point x="286" y="-13" type="qcurve"/>
      <point x="235" y="-13"/>
      <point x="193" y="47"/>
      <point x="193" y="110" type="qcurve"/>
      <point x="192" y="652" type="line"/>
      <point x="148" y="646"/>
      <point x="98" y="646"/>
      <point x="84" y="645" type="qcurve"/>
      <point x="75" y="645"/>
      <point x="58" y="679"/>
      <point x="58" y="692" type="qcurve"/>
      <point x="58" y="705"/>
      <point x="63" y="705" type="qcurve"/>
      <point x="101" y="699"/>
      <point x="142" y="699" type="qcurve"/>
      <point x="184" y="699"/>
      <point x="224" y="709" type="qcurve"/>
      <point x="239" y="709"/>
      <point x="252" y="684" type="qcurve"/>
      <point x="258" y="674"/>
      <point x="258" y="667" type="qcurve"/>
      <point x="258" y="661"/>
      <point x="251" y="648"/>
      <point x="251" y="108" type="qcurve"/>
      <point x="251" y="67"/>
      <point x="269" y="41"/>
      <point x="296" y="41" type="qcurve"/>
      <point x="344" y="41"/>
      <point x="408" y="83" type="qcurve"/>
      <point x="424" y="95"/>
      <point x="430" y="95" type="qcurve"/>
      <point x="435" y="95"/>
      <point x="435" y="88" type="qcurve"/>
      <point x="435" y="81"/>
      <point x="412" y="49"/>
      <point x="368" y="12"/>
      <point x="310" y="-13"/>
    </contour>
  </outline>
</glyph>
<glyph name="m" format="2">
  <advance height="1000" width="500"/>
  <unicode hex="006D"/>
  <outline>
    <contour>
      <point x="448" y="-10" type="qcurve"/>
      <point x="433" y="-10"/>
      <point x="403" y="6"/>
      <point x="403" y="18" type="qcurve"/>
      <point x="405" y="82" type="line"/>
      <point x="405" y="332"/>
      <point x="402" y="364" type="qcurve"/>
      <point x="394" y="433"/>
      <point x="349" y="433" type="qcurve"/>
      <point x="334" y="433"/>
      <point x="319" y="411" type="qcurve"/>
      <point x="278" y="349"/>
      <point x="278" y="225" type="qcurve"/>
      <point x="278" y="102"/>
      <point x="281" y="35"/>
      <point x="281" y="0" type="qcurve"/>
      <point x="281" y="-10"/>
      <point x="265" y="-10" type="qcurve"/>
      <point x="250" y="-10"/>
      <point x="221" y="6"/>
      <point x="221" y="18" type="qcurve"/>
      <point x="223" y="82"/>
      <point x="223" y="293" type="qcurve"/>
      <point x="223" y="433"/>
      <point x="173" y="433" type="qcurve"/>
      <point x="159" y="433"/>
      <point x="144" y="413" type="qcurve"/>
      <point x="113" y="363"/>
      <point x="101" y="296" type="qcurve"/>
      <point x="96" y="241"/>
      <point x="96" y="132" type="qcurve"/>
      <point x="99" y="0" type="line"/>
      <point x="99" y="-10"/>
      <point x="84" y="-10" type="qcurve"/>
      <point x="68" y="-10"/>
      <point x="39" y="6"/>
      <point x="39" y="18" type="qcurve"/>
      <point x="41" y="72"/>
      <point x="41" y="245" type="qcurve"/>
      <point x="41" y="369"/>
      <point x="38" y="471" type="qcurve"/>
      <point x="38" y="481"/>
      <point x="53" y="481" type="qcurve"/>
      <point x="69" y="481"/>
      <point x="97" y="465"/>
      <point x="97" y="453" type="qcurve"/>
      <point x="97" y="416"/>
      <point x="94" y="416" type="qcurve"/>
      <point x="94" y="419" type="line"/>
      <point x="96" y="429"/>
      <point x="144" y="485"/>
      <point x="181" y="485" type="qcurve"/>
      <point x="217" y="485"/>
      <point x="261" y="429"/>
      <point x="265" y="401" type="qcurve"/>
      <point x="269" y="423"/>
      <point x="315" y="485"/>
      <point x="356" y="485" type="qcurve"/>
      <point x="398" y="485"/>
      <point x="421" y="457" type="qcurve"/>
      <point x="461" y="406"/>
      <point x="461" y="297" type="qcurve"/>
      <point x="461" y="102"/>
      <point x="463" y="35"/>
      <point x="463" y="0" type="qcurve"/>
      <point x="463" y="-10"/>
    </contour>
  </outline>
</glyph>
<glyph name="n" format="2">
  <advance height="1000" width="500"/>
  <unicode hex="006E"/>
  <outline>
    <contour>
      <point x="422" y="-10" type="qcurve"/>
      <point x="408" y="-10"/>
      <point x="378" y="6"/>
      <point x="378" y="17" type="qcurve"/>
      <point x="380" y="79"/>
      <point x="380" y="294" type="qcurve"/>
      <point x="380" y="335"/>
      <point x="374" y="366" type="qcurve"/>
      <point x="360" y="432"/>
      <point x="300" y="432" type="qcurve"/>
      <point x="271" y="432"/>
      <point x="237" y="417" type="qcurve"/>
      <point x="168" y="390"/>
      <point x="138" y="289" type="qcurve"/>
      <point x="123" y="220"/>
      <point x="123" y="143" type="qcurve"/>
      <point x="123" y="65"/>
      <point x="126" y="14"/>
      <point x="126" y="-1" type="qcurve"/>
      <point x="126" y="-10"/>
      <point x="111" y="-10" type="qcurve"/>
      <point x="96" y="-10"/>
      <point x="67" y="6"/>
      <point x="67" y="17" type="qcurve"/>
      <point x="69" y="69"/>
      <point x="69" y="246" type="qcurve"/>
      <point x="69" y="373"/>
      <point x="66" y="472" type="qcurve"/>
      <point x="66" y="481"/>
      <point x="81" y="481" type="qcurve"/>
      <point x="96" y="481"/>
      <point x="125" y="465"/>
      <point x="125" y="454" type="qcurve"/>
      <point x="125" y="392"/>
      <point x="124" y="373" type="qcurve"/>
      <point x="136" y="399"/>
      <point x="166" y="427" type="qcurve"/>
      <point x="232" y="484"/>
      <point x="306" y="484" type="qcurve"/>
      <point x="435" y="484"/>
      <point x="435" y="298" type="qcurve"/>
      <point x="435" y="99"/>
      <point x="437" y="34"/>
      <point x="437" y="-1" type="qcurve"/>
      <point x="437" y="-10"/>
    </contour>
  </outline>
</glyph>
<glyph name="o" format="2">
  <advance height="1000" width="500"/>
  <unicode hex="006F"/>
  <outline>
    <contour>
      <point x="237" y="35" type="qcurve"/>
      <point x="280" y="35"/>
      <point x="316" y="63" type="qcurve"/>
      <point x="398" y="129"/>
      <point x="398" y="245" type="qcurve"/>
      <point x="398" y="330"/>
      <point x="332" y="434"/>
      <point x="272" y="434" type="qcurve"/>
      <point x="203" y="434"/>
      <point x="151" y="362" type="qcurve"/>
      <point x="102" y="287"/>
      <point x="102" y="208" type="qcurve"/>
      <point x="102" y="42"/>
    </contour>
    <contour>
      <point x="243" y="-16" type="qcurve"/>
      <point x="145" y="-16"/>
      <point x="46" y="105"/>
      <point x="46" y="207" type="qcurve"/>
      <point x="46" y="252"/>
      <point x="59" y="295" type="qcurve"/>
      <point x="88" y="385"/>
      <point x="127" y="430" type="qcurve"/>
      <point x="145" y="452"/>
      <point x="157" y="452" type="qcurve"/>
      <point x="169" y="452"/>
      <point x="172" y="445" type="qcurve"/>
      <point x="216" y="484"/>
      <point x="278" y="484" type="qcurve"/>
      <point x="357" y="484"/>
      <point x="454" y="357"/>
      <point x="454" y="253" type="qcurve"/>
      <point x="454" y="150"/>
      <point x="399" y="68" type="qcurve"/>
      <point x="340" y="-16"/>
    </contour>
  </outline>
</glyph>
<glyph name="p" format="2">
  <advance height="1000" width="500"/>
  <unicode hex="0070"/>
  <outline>
    <contour>
      <point x="233" y="33" type="qcurve"/>
      <point x="282" y="33"/>
      <point x="356" y="102"/>
      <point x="396" y="211"/>
      <point x="396" y="283" type="qcurve"/>
      <point x="396" y="354"/>
      <point x="341" y="434"/>
      <point x="301" y="434" type="qcurve"/>
      <point x="261" y="434"/>
      <point x="227" y="412" type="qcurve"/>
      <point x="150" y="362"/>
      <point x="127" y="253" type="qcurve"/>
      <point x="123" y="232"/>
      <point x="123" y="101" type="qcurve"/>
      <point x="126" y="102" type="line"/>
      <point x="139" y="102"/>
      <point x="150" y="86" type="qcurve"/>
      <point x="185" y="33"/>
    </contour>
    <contour>
      <point x="111" y="-171" type="qcurve"/>
      <point x="96" y="-171"/>
      <point x="67" y="-155"/>
      <point x="67" y="-144" type="qcurve"/>
      <point x="67" y="-132"/>
      <point x="69" y="-80"/>
      <point x="69" y="162" type="qcurve"/>
      <point x="69" y="403"/>
      <point x="66" y="472" type="qcurve"/>
      <point x="66" y="481"/>
      <point x="81" y="481" type="qcurve"/>
      <point x="96" y="481"/>
      <point x="126" y="465"/>
      <point x="126" y="454" type="qcurve"/>
      <point x="124" y="375" type="line"/>
      <point x="133" y="396"/>
      <point x="161" y="424" type="qcurve"/>
      <point x="225" y="484"/>
      <point x="299" y="484" type="qcurve"/>
      <point x="373" y="484"/>
      <point x="453" y="375"/>
      <point x="453" y="270" type="qcurve"/>
      <point x="453" y="165"/>
      <point x="336" y="-15"/>
      <point x="242" y="-15" type="qcurve"/>
      <point x="206" y="-15"/>
      <point x="136" y="21"/>
      <point x="123" y="44" type="qcurve"/>
      <point x="123" y="-87"/>
      <point x="126" y="-145"/>
      <point x="126" y="-162" type="qcurve"/>
      <point x="126" y="-171"/>
    </contour>
  </outline>
</glyph>
<glyph name="q" format="2">
  <advance height="1000" width="500"/>
  <unicode hex="0071"/>
  <outline>
    <contour>
      <point x="197" y="34" type="qcurve"/>
      <point x="259" y="34"/>
      <point x="382" y="182"/>
      <point x="382" y="274" type="qcurve"/>
      <point x="382" y="374" type="line"/>
      <point x="382" y="376"/>
      <point x="364" y="376"/>
      <point x="361" y="382" type="qcurve"/>
      <point x="329" y="436"/>
      <point x="274" y="436" type="qcurve"/>
      <point x="205" y="436"/>
      <point x="105" y="280"/>
      <point x="105" y="195" type="qcurve"/>
      <point x="105" y="110"/>
      <point x="161" y="34"/>
    </contour>
    <contour>
      <point x="424" y="-175" type="qcurve"/>
      <point x="409" y="-175"/>
      <point x="380" y="-159"/>
      <point x="380" y="-148" type="qcurve"/>
      <point x="380" y="-136"/>
      <point x="382" y="-84"/>
      <point x="382" y="114" type="qcurve"/>
      <point x="317" y="-16"/>
      <point x="197" y="-16" type="qcurve"/>
      <point x="130" y="-16"/>
      <point x="49" y="92"/>
      <point x="49" y="186" type="qcurve"/>
      <point x="49" y="304"/>
      <point x="181" y="484"/>
      <point x="273" y="484" type="qcurve"/>
      <point x="346" y="484"/>
      <point x="380" y="429" type="qcurve"/>
      <point x="380" y="475" type="line"/>
      <point x="380" y="484"/>
      <point x="395" y="484" type="qcurve"/>
      <point x="410" y="484"/>
      <point x="438" y="468"/>
      <point x="438" y="457" type="qcurve"/>
      <point x="438" y="445"/>
      <point x="436" y="394"/>
      <point x="436" y="-60" type="qcurve"/>
      <point x="439" y="-166" type="line"/>
      <point x="439" y="-175"/>
    </contour>
  </outline>
</glyph>
<glyph name="r" format="2">
  <advance height="1000" width="500"/>
  <unicode hex="0072"/>
  <outline>
    <contour>
      <point x="161" y="106" type="qcurve"/>
      <point x="164" y="0" type="line"/>
      <point x="164" y="-9"/>
      <point x="136" y="-9"/>
      <point x="105" y="6"/>
      <point x="105" y="18" type="qcurve"/>
      <point x="107" y="81" type="line"/>
      <point x="107" y="378"/>
      <point x="104" y="454"/>
      <point x="104" y="474" type="qcurve"/>
      <point x="104" y="483"/>
      <point x="133" y="483"/>
      <point x="163" y="468"/>
      <point x="163" y="456" type="qcurve"/>
      <point x="162" y="391" type="line"/>
      <point x="183" y="430"/>
      <point x="267" y="484"/>
      <point x="320" y="484" type="qcurve"/>
      <point x="347" y="484"/>
      <point x="400" y="465"/>
      <point x="433" y="438"/>
      <point x="433" y="411"/>
      <point x="415" y="381"/>
      <point x="398" y="381"/>
      <point x="391" y="391" type="qcurve"/>
      <point x="380" y="411"/>
      <point x="333" y="429"/>
      <point x="317" y="429" type="qcurve"/>
      <point x="274" y="429"/>
      <point x="234" y="400" type="qcurve"/>
      <point x="174" y="357"/>
      <point x="165" y="266" type="qcurve"/>
      <point x="161" y="220"/>
    </contour>
  </outline>
</glyph>
<glyph name="s" format="2">
  <advance height="1000" width="500"/>
  <unicode hex="0073"/>
  <outline>
    <contour>
      <point x="256" y="-16" type="qcurve"/>
      <point x="203" y="-16"/>
      <point x="167" y="-2" type="qcurve"/>
      <point x="97" y="30"/>
      <point x="81" y="66" type="qcurve"/>
      <point x="72" y="82"/>
      <point x="72" y="91" type="qcurve"/>
      <point x="72" y="100"/>
      <point x="93" y="128"/>
      <point x="103" y="128" type="qcurve"/>
      <point x="113" y="128"/>
      <point x="116" y="120" type="qcurve"/>
      <point x="140" y="52"/>
      <point x="200" y="40" type="qcurve"/>
      <point x="227" y="34"/>
      <point x="254" y="34" type="qcurve"/>
      <point x="308" y="34"/>
      <point x="373" y="90"/>
      <point x="373" y="126" type="qcurve"/>
      <point x="373" y="163"/>
      <point x="333" y="210"/>
      <point x="284" y="222" type="qcurve"/>
      <point x="194" y="246" type="line"/>
      <point x="94" y="270"/>
      <point x="94" y="352" type="qcurve"/>
      <point x="94" y="393"/>
      <point x="116" y="422" type="qcurve"/>
      <point x="170" y="484"/>
      <point x="259" y="484" type="qcurve"/>
      <point x="312" y="484"/>
      <point x="350" y="466" type="qcurve"/>
      <point x="408" y="438"/>
      <point x="408" y="407" type="qcurve"/>
      <point x="408" y="395"/>
      <point x="388" y="374"/>
      <point x="380" y="374" type="qcurve"/>
      <point x="373" y="374"/>
      <point x="370" y="380"/>
      <point x="366" y="384"/>
      <point x="364" y="387" type="qcurve"/>
      <point x="337" y="437"/>
      <point x="259" y="437" type="qcurve"/>
      <point x="209" y="437"/>
      <point x="147" y="390"/>
      <point x="147" y="354" type="qcurve"/>
      <point x="147" y="309"/>
      <point x="216" y="292" type="qcurve"/>
      <point x="302" y="269" type="line"/>
      <point x="428" y="239"/>
      <point x="428" y="128" type="qcurve"/>
      <point x="428" y="90"/>
      <point x="387" y="24"/>
      <point x="309" y="-16"/>
    </contour>
  </outline>
</glyph>
<glyph name="t" format="2">
  <advance height="1000" width="500"/>
  <unicode hex="0074"/>
  <outline>
    <contour>
      <point x="277" y="-13" type="qcurve"/>
      <point x="226" y="-13"/>
      <point x="179" y="46"/>
      <point x="179" y="110" type="qcurve"/>
      <point x="179" y="430" type="line"/>
      <point x="96" y="430"/>
      <point x="79" y="427" type="qcurve"/>
      <point x="61" y="427"/>
      <point x="61" y="465" type="qcurve"/>
      <point x="61" y="480"/>
      <point x="74" y="480" type="qcurve"/>
      <point x="105" y="478"/>
      <point x="179" y="478" type="qcurve"/>
      <point x="179" y="559" type="line"/>
      <point x="177" y="615"/>
      <point x="177" y="635" type="qcurve"/>
      <point x="177" y="640"/>
      <point x="188" y="640" type="qcurve"/>
      <point x="239" y="640"/>
      <point x="239" y="617" type="qcurve"/>
      <point x="237" y="563"/>
      <point x="236" y="478" type="qcurve"/>
      <point x="382" y="478"/>
      <point x="421" y="481" type="qcurve"/>
      <point x="440" y="481"/>
      <point x="440" y="443" type="qcurve"/>
      <point x="440" y="428"/>
      <point x="428" y="428" type="qcurve"/>
      <point x="236" y="430" type="line"/>
      <point x="236" y="108" type="line"/>
      <point x="236" y="68"/>
      <point x="258" y="41"/>
      <point x="298" y="41" type="qcurve"/>
      <point x="339" y="41"/>
      <point x="412" y="84" type="qcurve"/>
      <point x="429" y="95"/>
      <point x="434" y="95" type="qcurve"/>
      <point x="436" y="95"/>
      <point x="436" y="89" type="qcurve"/>
      <point x="436" y="67"/>
      <point x="328" y="-13"/>
    </contour>
  </outline>
</glyph>
<glyph name="u" format="2">
  <advance height="1000" width="500"/>
  <unicode hex="0075"/>
  <outline>
    <contour>
      <point x="204" y="-16" type="qcurve"/>
      <point x="151" y="-16"/>
      <point x="121" y="13" type="qcurve"/>
      <point x="68" y="62"/>
      <point x="68" y="171" type="qcurve"/>
      <point x="68" y="368"/>
      <point x="65" y="474" type="qcurve"/>
      <point x="65" y="483"/>
      <point x="81" y="483" type="qcurve"/>
      <point x="96" y="483"/>
      <point x="125" y="467"/>
      <point x="125" y="456" type="qcurve"/>
      <point x="123" y="340"/>
      <point x="123" y="175" type="qcurve"/>
      <point x="123" y="115"/>
      <point x="164" y="34"/>
      <point x="204" y="34" type="qcurve"/>
      <point x="245" y="34"/>
      <point x="283" y="69" type="qcurve"/>
      <point x="370" y="149"/>
      <point x="376" y="321" type="qcurve"/>
      <point x="378" y="398"/>
      <point x="378" y="475" type="qcurve"/>
      <point x="378" y="484"/>
      <point x="393" y="484" type="qcurve"/>
      <point x="409" y="484"/>
      <point x="438" y="469"/>
      <point x="438" y="457" type="qcurve"/>
      <point x="427" y="385"/>
      <point x="427" y="243" type="qcurve"/>
      <point x="427" y="100"/>
      <point x="461" y="33" type="qcurve"/>
      <point x="463" y="27" type="line"/>
      <point x="463" y="18"/>
      <point x="444" y="-11"/>
      <point x="429" y="-11" type="qcurve"/>
      <point x="406" y="-11"/>
      <point x="380" y="100"/>
      <point x="380" y="119" type="qcurve"/>
      <point x="320" y="-16"/>
    </contour>
  </outline>
</glyph>
<glyph name="v" format="2">
  <advance height="1000" width="500"/>
  <unicode hex="0076"/>
  <outline>
    <contour>
      <point x="254" y="-15" type="qcurve"/>
      <point x="243" y="-15"/>
      <point x="233" y="-8" type="qcurve"/>
      <point x="215" y="2"/>
      <point x="209" y="20" type="qcurve"/>
      <point x="79" y="407"/>
      <point x="66" y="439" type="qcurve"/>
      <point x="56" y="461"/>
      <point x="56" y="464" type="qcurve"/>
      <point x="56" y="480"/>
      <point x="86" y="480" type="qcurve"/>
      <point x="116" y="480"/>
      <point x="121" y="465" type="qcurve"/>
      <point x="128" y="440"/>
      <point x="244" y="75" type="qcurve"/>
      <point x="380" y="440"/>
      <point x="389" y="474" type="qcurve"/>
      <point x="392" y="484"/>
      <point x="407" y="484" type="qcurve"/>
      <point x="422" y="484"/>
      <point x="451" y="468"/>
      <point x="451" y="459" type="qcurve"/>
      <point x="422" y="395"/>
      <point x="298" y="67" type="qcurve"/>
      <point x="287" y="38"/>
      <point x="272" y="-15"/>
    </contour>
  </outline>
</glyph>
<glyph name="w" format="2">
  <advance height="1000" width="500"/>
  <unicode hex="0077"/>
  <outline>
    <contour>
      <point x="360" y="-15" type="qcurve"/>
      <point x="348" y="-15"/>
      <point x="336" y="-6" type="qcurve"/>
      <point x="313" y="7"/>
      <point x="310" y="27" type="qcurve"/>
      <point x="246" y="368" type="line"/>
      <point x="178" y="2" type="line"/>
      <point x="173" y="-15"/>
      <point x="159" y="-15" type="qcurve"/>
      <point x="145" y="-15"/>
      <point x="132" y="-7" type="qcurve"/>
      <point x="109" y="5"/>
      <point x="105" y="25" type="qcurve"/>
      <point x="37" y="431"/>
      <point x="29" y="462" type="qcurve"/>
      <point x="29" y="480"/>
      <point x="54" y="480" type="qcurve"/>
      <point x="66" y="480"/>
      <point x="89" y="470"/>
      <point x="90" y="463" type="qcurve"/>
      <point x="95" y="415"/>
      <point x="145" y="82" type="qcurve"/>
      <point x="211" y="446"/>
      <point x="212" y="469"/>
      <point x="229" y="469" type="qcurve"/>
      <point x="247" y="469"/>
      <point x="279" y="455"/>
      <point x="281" y="446" type="qcurve"/>
      <point x="349" y="80" type="line"/>
      <point x="407" y="405" type="line"/>
      <point x="413" y="442"/>
      <point x="415" y="475" type="qcurve"/>
      <point x="415" y="486"/>
      <point x="431" y="486" type="qcurve"/>
      <point x="446" y="486"/>
      <point x="474" y="470"/>
      <point x="474" y="457" type="qcurve"/>
      <point x="469" y="437" type="line"/>
      <point x="386" y="14" type="line"/>
      <point x="382" y="-3"/>
      <point x="372" y="-15"/>
    </contour>
  </outline>
</glyph>
<glyph name="x" format="2">
  <advance height="1000" width="500"/>
  <unicode hex="0078"/>
  <outline>
    <contour>
      <point x="98" y="-10" type="qcurve"/>
      <point x="82" y="-10"/>
      <point x="54" y="2"/>
      <point x="54" y="8" type="qcurve"/>
      <point x="54" y="14"/>
      <point x="86" y="50" type="qcurve"/>
      <point x="98" y="64"/>
      <point x="220" y="245" type="qcurve"/>
      <point x="119" y="394" type="line"/>
      <point x="100" y="423"/>
      <point x="72" y="453" type="qcurve"/>
      <point x="69" y="457" type="line"/>
      <point x="69" y="464"/>
      <point x="101" y="478"/>
      <point x="115" y="478" type="qcurve"/>
      <point x="130" y="478"/>
      <point x="133" y="471" type="qcurve"/>
      <point x="143" y="451"/>
      <point x="161" y="422" type="qcurve"/>
      <point x="250" y="290" type="line"/>
      <point x="343" y="426" type="line"/>
      <point x="361" y="455"/>
      <point x="371" y="475" type="qcurve"/>
      <point x="375" y="482"/>
      <point x="389" y="482" type="qcurve"/>
      <point x="403" y="482"/>
      <point x="434" y="468"/>
      <point x="434" y="461" type="qcurve"/>
      <point x="432" y="457" type="line"/>
      <point x="403" y="427"/>
      <point x="384" y="398" type="qcurve"/>
      <point x="281" y="245" type="line"/>
      <point x="386" y="90" type="line"/>
      <point x="415" y="50"/>
      <point x="446" y="15"/>
      <point x="446" y="11" type="qcurve"/>
      <point x="446" y="4"/>
      <point x="419" y="-8"/>
      <point x="403" y="-8" type="qcurve"/>
      <point x="387" y="-8"/>
      <point x="380" y="3" type="qcurve"/>
      <point x="368" y="25"/>
      <point x="250" y="199" type="qcurve"/>
      <point x="130" y="19"/>
      <point x="120" y="1" type="qcurve"/>
      <point x="114" y="-10"/>
    </contour>
  </outline>
</glyph>
<glyph name="y" format="2">
  <advance height="1000" width="500"/>
  <unicode hex="0079"/>
  <outline>
    <contour>
      <point x="145" y="-162" type="qcurve"/>
      <point x="114" y="-162"/>
      <point x="71" y="-153"/>
      <point x="49" y="-134" type="qcurve"/>
      <point x="44" y="-131"/>
      <point x="44" y="-121" type="qcurve"/>
      <point x="44" y="-111"/>
      <point x="61" y="-81"/>
      <point x="72" y="-81" type="qcurve"/>
      <point x="83" y="-81"/>
      <point x="88" y="-89" type="qcurve"/>
      <point x="105" y="-109"/>
      <point x="138" y="-109" type="qcurve"/>
      <point x="171" y="-109"/>
      <point x="195" y="-51" type="qcurve"/>
      <point x="235" y="43" type="line"/>
      <point x="100" y="379" type="line"/>
      <point x="80" y="427"/>
      <point x="63" y="460" type="qcurve"/>
      <point x="61" y="465" type="line"/>
      <point x="61" y="480"/>
      <point x="92" y="480" type="qcurve"/>
      <point x="122" y="480"/>
      <point x="128" y="465" type="qcurve"/>
      <point x="140" y="430"/>
      <point x="264" y="114" type="qcurve"/>
      <point x="380" y="381" type="line"/>
      <point x="400" y="425"/>
      <point x="413" y="474" type="qcurve"/>
      <point x="417" y="484"/>
      <point x="430" y="484" type="qcurve"/>
      <point x="443" y="484"/>
      <point x="469" y="462"/>
      <point x="469" y="452" type="qcurve"/>
      <point x="469" y="443"/>
      <point x="462" y="428"/>
      <point x="441" y="386"/>
      <point x="241" y="-80" type="qcurve"/>
      <point x="206" y="-162"/>
    </contour>
  </outline>
</glyph>
<glyph name="z" format="2">
  <advance height="1000" width="500"/>
  <unicode hex="007A"/>
  <outline>
    <contour>
      <point x="86" y="-8" type="qcurve"/>
      <point x="59" y="-8"/>
      <point x="59" y="33" type="qcurve"/>
      <point x="61" y="48" type="line"/>
      <point x="63" y="59"/>
      <point x="83" y="77"/>
      <point x="89" y="87" type="qcurve"/>
      <point x="216" y="277"/>
      <point x="338" y="423" type="qcurve"/>
      <point x="156" y="409"/>
      <point x="134" y="405" type="qcurve"/>
      <point x="116" y="405"/>
      <point x="93" y="442"/>
      <point x="93" y="452" type="qcurve"/>
      <point x="93" y="463"/>
      <point x="104" y="463" type="qcurve"/>
      <point x="128" y="461"/>
      <point x="157" y="461" type="qcurve"/>
      <point x="185" y="461"/>
      <point x="341" y="473"/>
      <point x="358" y="479"/>
      <point x="372" y="479" type="qcurve"/>
      <point x="385" y="479"/>
      <point x="412" y="440"/>
      <point x="412" y="431" type="qcurve"/>
      <point x="412" y="422"/>
      <point x="403" y="415" type="qcurve"/>
      <point x="381" y="398"/>
      <point x="206" y="166"/>
      <point x="127" y="47" type="qcurve"/>
      <point x="154" y="49"/>
      <point x="207" y="52"/>
      <point x="343" y="52" type="qcurve"/>
      <point x="358" y="52" type="line"/>
      <point x="402" y="53" type="line"/>
      <point x="414" y="53"/>
      <point x="430" y="21"/>
      <point x="430" y="8" type="qcurve"/>
      <point x="430" y="-5"/>
      <point x="417" y="-5" type="qcurve"/>
      <point x="381" y="0"/>
      <point x="345" y="1" type="qcurve"/>
      <point x="224" y="1" type="line"/>
      <point x="95" y="1"/>
    </contour>
  </outline>
</glyph>
<glyph name="braceleft" format="2">
  <advance height="1000" width="500"/>
  <unicode hex="007B"/>
  <outline>
    <contour>
      <point x="386" y="-157" type="qcurve"/>
      <point x="382" y="-157"/>
      <point x="331" y="-144"/>
      <point x="300" y="-129" type="qcurve"/>
      <point x="223" y="-88"/>
      <point x="223" y="-4" type="qcurve"/>
      <point x="223" y="28"/>
      <point x="241" y="116"/>
      <point x="241" y="211"/>
      <point x="233" y="234" type="qcurve"/>
      <point x="219" y="285"/>
      <point x="133" y="293" type="qcurve"/>
      <point x="121" y="295"/>
      <point x="103" y="315"/>
      <point x="103" y="326" type="qcurve"/>
      <point x="103" y="341"/>
      <point x="116" y="341" type="qcurve"/>
      <point x="129" y="341" type="line"/>
      <point x="240" y="341"/>
      <point x="240" y="472" type="qcurve"/>
      <point x="240" y="513"/>
      <point x="235" y="583" type="qcurve"/>
      <point x="234" y="593" type="line"/>
      <point x="233" y="629" type="line"/>
      <point x="233" y="669"/>
      <point x="256" y="697" type="qcurve"/>
      <point x="305" y="752"/>
      <point x="359" y="769" type="qcurve"/>
      <point x="382" y="777"/>
      <point x="385" y="777" type="qcurve"/>
      <point x="396" y="777"/>
      <point x="396" y="754"/>
      <point x="386" y="748" type="qcurve"/>
      <point x="286" y="700"/>
      <point x="286" y="627" type="qcurve"/>
      <point x="287" y="598" type="line"/>
      <point x="293" y="568"/>
      <point x="293" y="442"/>
      <point x="286" y="411" type="qcurve"/>
      <point x="275" y="347"/>
      <point x="203" y="311" type="qcurve"/>
      <point x="248" y="302"/>
      <point x="293" y="235"/>
      <point x="293" y="193" type="qcurve"/>
      <point x="293" y="114"/>
      <point x="275" y="11"/>
      <point x="275" y="-4" type="qcurve"/>
      <point x="275" y="-46"/>
      <point x="333" y="-106"/>
      <point x="385" y="-130" type="qcurve"/>
      <point x="396" y="-137"/>
      <point x="396" y="-157"/>
    </contour>
  </outline>
</glyph>
<glyph name="bar" format="2">
  <advance height="1000" width="500"/>
  <unicode hex="007C"/>
  <outline>
    <contour>
      <point x="283" y="-33" type="line"/>
      <point x="283" y="-54"/>
      <point x="284" y="-74" type="qcurve"/>
      <point x="284" y="-104" type="line"/>
      <point x="284" y="-111"/>
      <point x="257" y="-112"/>
      <point x="229" y="-99"/>
      <point x="229" y="-88" type="qcurve"/>
      <point x="230" y="717" type="line"/>
      <point x="228" y="771" type="line"/>
      <point x="228" y="780"/>
      <point x="256" y="780"/>
      <point x="283" y="768"/>
      <point x="283" y="757" type="qcurve"/>
      <point x="282" y="718" type="line"/>
    </contour>
  </outline>
</glyph>
<glyph name="braceright" format="2">
  <advance height="1000" width="500"/>
  <unicode hex="007D"/>
  <outline>
    <contour>
      <point x="259" y="151" type="qcurve"/>
      <point x="267" y="-6" type="line"/>
      <point x="267" y="-46"/>
      <point x="245" y="-74" type="qcurve"/>
      <point x="194" y="-129"/>
      <point x="140" y="-145" type="qcurve"/>
      <point x="117" y="-154"/>
      <point x="115" y="-154" type="qcurve"/>
      <point x="103" y="-154"/>
      <point x="103" y="-141" type="qcurve"/>
      <point x="103" y="-131"/>
      <point x="113" y="-125" type="qcurve"/>
      <point x="213" y="-76"/>
      <point x="213" y="-4" type="qcurve"/>
      <point x="211" y="61" type="line"/>
      <point x="206" y="114"/>
      <point x="206" y="183"/>
      <point x="213" y="213" type="qcurve"/>
      <point x="224" y="277"/>
      <point x="296" y="312" type="qcurve"/>
      <point x="251" y="321"/>
      <point x="206" y="389"/>
      <point x="206" y="430" type="qcurve"/>
      <point x="206" y="510"/>
      <point x="224" y="612"/>
      <point x="224" y="627" type="qcurve"/>
      <point x="224" y="670"/>
      <point x="166" y="729"/>
      <point x="114" y="753" type="qcurve"/>
      <point x="103" y="760"/>
      <point x="103" y="780"/>
      <point x="111" y="780" type="qcurve"/>
      <point x="144" y="780"/>
      <point x="199" y="752" type="qcurve"/>
      <point x="276" y="713"/>
      <point x="276" y="627" type="qcurve"/>
      <point x="276" y="596"/>
      <point x="258" y="508"/>
      <point x="258" y="413"/>
      <point x="266" y="390" type="qcurve"/>
      <point x="281" y="338"/>
      <point x="366" y="330" type="qcurve"/>
      <point x="378" y="329"/>
      <point x="396" y="309"/>
      <point x="396" y="297" type="qcurve"/>
      <point x="396" y="282"/>
      <point x="383" y="282" type="qcurve"/>
      <point x="370" y="282" type="line"/>
      <point x="259" y="282"/>
    </contour>
  </outline>
</glyph>
<glyph name="exclamdown" format="2">
  <advance height="1000" width="500"/>
  <unicode hex="00A1"/>
  <outline>
    <contour>
      <point x="256" y="409" type="qcurve"/>
      <point x="239" y="409"/>
      <point x="208" y="446"/>
      <point x="208" y="465" type="qcurve"/>
      <point x="208" y="505"/>
      <point x="244" y="505" type="qcurve"/>
      <point x="266" y="505"/>
      <point x="295" y="469"/>
      <point x="295" y="451" type="qcurve"/>
      <point x="295" y="409"/>
    </contour>
    <contour>
      <point x="251" y="336"/>
      <point x="276" y="324"/>
      <point x="275" y="303"/>
      <point x="275" y="-144"/>
      <point x="281" y="-192" type="qcurve"/>
      <point x="281" y="-209"/>
      <point x="261" y="-209" type="qcurve"/>
      <point x="247" y="-209"/>
      <point x="214" y="-191"/>
      <point x="214" y="-178" type="qcurve"/>
      <point x="219" y="-145"/>
      <point x="220" y="-107" type="qcurve"/>
      <point x="228" y="279"/>
      <point x="228" y="329" type="qcurve"/>
      <point x="228" y="336"/>
    </contour>
  </outline>
</glyph>
<glyph name="cent" format="2">
  <advance height="1000" width="500"/>
  <unicode hex="00A2"/>
  <outline>
    <contour>
      <point x="178" y="53" type="qcurve"/>
      <point x="290" y="434" type="line"/>
      <point x="230" y="430"/>
      <point x="119" y="290"/>
      <point x="119" y="199" type="qcurve"/>
      <point x="119" y="141"/>
      <point x="156" y="68"/>
    </contour>
    <contour>
      <point x="181" y="-82" type="qcurve"/>
      <point x="169" y="-82"/>
      <point x="146" y="-59"/>
      <point x="146" y="-51" type="qcurve"/>
      <point x="146" y="-42"/>
      <point x="162" y="2" type="qcurve"/>
      <point x="117" y="24"/>
      <point x="62" y="122"/>
      <point x="62" y="188" type="qcurve"/>
      <point x="62" y="310"/>
      <point x="135" y="398" type="qcurve"/>
      <point x="211" y="484"/>
      <point x="295" y="484" type="qcurve"/>
      <point x="305" y="484" type="line"/>
      <point x="324" y="562" type="line"/>
      <point x="325" y="570"/>
      <point x="337" y="570" type="qcurve"/>
      <point x="348" y="570"/>
      <point x="372" y="545"/>
      <point x="372" y="536" type="qcurve"/>
      <point x="372" y="527"/>
      <point x="371" y="526" type="qcurve"/>
      <point x="353" y="474" type="line"/>
      <point x="399" y="454"/>
      <point x="418" y="421" type="qcurve"/>
      <point x="427" y="407"/>
      <point x="427" y="397" type="qcurve"/>
      <point x="427" y="387"/>
      <point x="405" y="362"/>
      <point x="395" y="362" type="qcurve"/>
      <point x="385" y="362"/>
      <point x="382" y="368" type="qcurve"/>
      <point x="361" y="413"/>
      <point x="338" y="423" type="qcurve"/>
      <point x="225" y="34" type="line"/>
      <point x="235" y="34" type="line"/>
      <point x="333" y="34"/>
      <point x="419" y="138" type="qcurve"/>
      <point x="432" y="152"/>
      <point x="442" y="152" type="qcurve"/>
      <point x="451" y="152"/>
      <point x="451" y="144" type="qcurve"/>
      <point x="451" y="136"/>
      <point x="425" y="85"/>
      <point x="399" y="55" type="qcurve"/>
      <point x="336" y="-16"/>
      <point x="238" y="-16" type="qcurve"/>
      <point x="223" y="-16"/>
      <point x="210" y="-14" type="qcurve"/>
      <point x="204" y="-36"/>
      <point x="190" y="-82"/>
    </contour>
  </outline>
</glyph>
<glyph name="sterling" format="2">
  <advance height="1000" width="500"/>
  <unicode hex="00A3"/>
  <outline>
    <contour>
      <point x="373" y="-15" type="qcurve"/>
      <point x="343" y="-15"/>
      <point x="310" y="-6" type="qcurve"/>
      <point x="220" y="17"/>
      <point x="169" y="17" type="qcurve"/>
      <point x="139" y="17"/>
      <point x="97" y="-6" type="qcurve"/>
      <point x="78" y="-15"/>
      <point x="62" y="-15" type="qcurve"/>
      <point x="34" y="-15"/>
      <point x="34" y="-4" type="qcurve"/>
      <point x="34" y="2"/>
      <point x="36" y="11" type="qcurve"/>
      <point x="42" y="40"/>
      <point x="58" y="40" type="qcurve"/>
      <point x="64" y="40" type="line"/>
      <point x="127" y="40"/>
      <point x="127" y="260" type="qcurve"/>
      <point x="127" y="285"/>
      <point x="125" y="318" type="qcurve"/>
      <point x="88" y="315"/>
      <point x="69" y="312" type="qcurve"/>
      <point x="55" y="312"/>
      <point x="43" y="341"/>
      <point x="43" y="353" type="qcurve"/>
      <point x="43" y="365"/>
      <point x="53" y="365" type="qcurve"/>
      <point x="120" y="364" type="line"/>
      <point x="112" y="476"/>
      <point x="112" y="484" type="qcurve"/>
      <point x="112" y="561"/>
      <point x="156" y="662"/>
      <point x="231" y="712"/>
      <point x="267" y="712" type="qcurve"/>
      <point x="303" y="712"/>
      <point x="327" y="708" type="qcurve"/>
      <point x="375" y="704"/>
      <point x="438" y="639" type="qcurve"/>
      <point x="442" y="632"/>
      <point x="442" y="623" type="qcurve"/>
      <point x="442" y="614"/>
      <point x="428" y="588"/>
      <point x="417" y="588" type="qcurve"/>
      <point x="407" y="588"/>
      <point x="399" y="598" type="qcurve"/>
      <point x="355" y="661"/>
      <point x="277" y="661" type="qcurve"/>
      <point x="225" y="661"/>
      <point x="167" y="565"/>
      <point x="167" y="482" type="qcurve"/>
      <point x="167" y="443"/>
      <point x="172" y="408" type="qcurve"/>
      <point x="175" y="366" type="line"/>
      <point x="298" y="372"/>
      <point x="359" y="377" type="qcurve"/>
      <point x="371" y="377"/>
      <point x="384" y="347"/>
      <point x="384" y="336" type="qcurve"/>
      <point x="384" y="325"/>
      <point x="376" y="325" type="qcurve"/>
      <point x="375" y="325" type="line"/>
      <point x="300" y="325"/>
      <point x="178" y="319" type="qcurve"/>
      <point x="180" y="297"/>
      <point x="180" y="249" type="qcurve"/>
      <point x="180" y="126"/>
      <point x="156" y="63" type="qcurve"/>
      <point x="179" y="64" type="line"/>
      <point x="202" y="64"/>
      <point x="339" y="35"/>
      <point x="362" y="35" type="qcurve"/>
      <point x="407" y="35"/>
      <point x="442" y="59" type="qcurve"/>
      <point x="453" y="66"/>
      <point x="461" y="66" type="qcurve"/>
      <point x="473" y="66"/>
      <point x="473" y="57" type="qcurve"/>
      <point x="473" y="48"/>
      <point x="447" y="13"/>
      <point x="403" y="-15"/>
    </contour>
  </outline>
</glyph>
<glyph name="currency" format="2">
  <advance height="1000" width="500"/>
  <unicode hex="00A4"/>
  <outline>
    <contour>
      <point x="258" y="207" type="qcurve"/>
      <point x="293" y="207"/>
      <point x="321" y="224" type="qcurve"/>
      <point x="382" y="264"/>
      <point x="382" y="331" type="qcurve"/>
      <point x="382" y="366"/>
      <point x="366" y="394" type="qcurve"/>
      <point x="329" y="455"/>
      <point x="258" y="455" type="qcurve"/>
      <point x="224" y="455"/>
      <point x="196" y="439" type="qcurve"/>
      <point x="134" y="402"/>
      <point x="134" y="331" type="qcurve"/>
      <point x="134" y="297"/>
      <point x="151" y="269" type="qcurve"/>
      <point x="191" y="207"/>
    </contour>
    <contour>
      <point x="473" y="150"/>
      <point x="444" y="127"/>
      <point x="425" y="127"/>
      <point x="422" y="131" type="qcurve"/>
      <point x="402" y="159"/>
      <point x="363" y="194" type="qcurve"/>
      <point x="318" y="158"/>
      <point x="197" y="158"/>
      <point x="148" y="198" type="qcurve"/>
      <point x="108" y="160"/>
      <point x="85" y="131" type="qcurve"/>
      <point x="83" y="127"/>
      <point x="63" y="127"/>
      <point x="34" y="150"/>
      <point x="34" y="166"/>
      <point x="38" y="170" type="qcurve"/>
      <point x="88" y="213"/>
      <point x="113" y="237" type="qcurve"/>
      <point x="85" y="279"/>
      <point x="85" y="381"/>
      <point x="111" y="421" type="qcurve"/>
      <point x="79" y="453"/>
      <point x="43" y="482" type="qcurve"/>
      <point x="39" y="487"/>
      <point x="39" y="502"/>
      <point x="68" y="525"/>
      <point x="88" y="525"/>
      <point x="93" y="517"/>
      <point x="97" y="514" type="qcurve"/>
      <point x="115" y="491"/>
      <point x="145" y="462" type="qcurve"/>
      <point x="194" y="504"/>
      <point x="321" y="504"/>
      <point x="366" y="465" type="qcurve"/>
      <point x="398" y="496"/>
      <point x="417" y="521" type="qcurve"/>
      <point x="420" y="525"/>
      <point x="439" y="525"/>
      <point x="468" y="502"/>
      <point x="468" y="487"/>
      <point x="464" y="482" type="qcurve"/>
      <point x="432" y="456"/>
      <point x="402" y="427" type="qcurve"/>
      <point x="431" y="384"/>
      <point x="431" y="276"/>
      <point x="400" y="232" type="qcurve"/>
      <point x="433" y="199"/>
      <point x="469" y="170" type="qcurve"/>
      <point x="473" y="166"/>
    </contour>
  </outline>
</glyph>
<glyph name="yen" format="2">
  <advance height="1000" width="500"/>
  <unicode hex="00A5"/>
  <outline>
    <contour>
      <point x="262" y="-9" type="qcurve"/>
      <point x="247" y="-9"/>
      <point x="217" y="7"/>
      <point x="217" y="19" type="qcurve"/>
      <point x="218" y="42" type="line"/>
      <point x="218" y="101"/>
      <point x="219" y="120" type="qcurve"/>
      <point x="219" y="179" type="line"/>
      <point x="95" y="170" type="line"/>
      <point x="80" y="170"/>
      <point x="64" y="202"/>
      <point x="64" y="212" type="qcurve"/>
      <point x="64" y="223"/>
      <point x="76" y="223" type="qcurve"/>
      <point x="98" y="221"/>
      <point x="128" y="221" type="qcurve"/>
      <point x="147" y="221"/>
      <point x="219" y="224" type="qcurve"/>
      <point x="219" y="319" type="line"/>
      <point x="109" y="312"/>
      <point x="95" y="310" type="qcurve"/>
      <point x="80" y="310"/>
      <point x="64" y="342"/>
      <point x="64" y="352" type="qcurve"/>
      <point x="64" y="363"/>
      <point x="76" y="363" type="qcurve"/>
      <point x="98" y="361"/>
      <point x="148" y="361" type="qcurve"/>
      <point x="205" y="364" type="line"/>
      <point x="167" y="436"/>
      <point x="137" y="497" type="qcurve"/>
      <point x="82" y="605"/>
      <point x="34" y="673" type="qcurve"/>
      <point x="32" y="675"/>
      <point x="32" y="677" type="qcurve"/>
      <point x="32" y="684"/>
      <point x="61" y="701"/>
      <point x="75" y="701" type="qcurve"/>
      <point x="89" y="701"/>
      <point x="102" y="682"/>
      <point x="116" y="647"/>
      <point x="176" y="537"/>
      <point x="247" y="392" type="qcurve"/>
      <point x="386" y="666" type="line"/>
      <point x="393" y="682"/>
      <point x="401" y="697" type="qcurve"/>
      <point x="405" y="708"/>
      <point x="421" y="708" type="qcurve"/>
      <point x="436" y="708"/>
      <point x="465" y="691"/>
      <point x="465" y="684" type="qcurve"/>
      <point x="465" y="682"/>
      <point x="462" y="679" type="qcurve"/>
      <point x="421" y="624"/>
      <point x="289" y="368" type="qcurve"/>
      <point x="347" y="370"/>
      <point x="375" y="374" type="qcurve"/>
      <point x="398" y="377"/>
      <point x="409" y="377" type="qcurve"/>
      <point x="420" y="377"/>
      <point x="436" y="350"/>
      <point x="436" y="339" type="qcurve"/>
      <point x="436" y="328"/>
      <point x="424" y="328" type="qcurve"/>
      <point x="274" y="321" type="line"/>
      <point x="274" y="227" type="line"/>
      <point x="337" y="230"/>
      <point x="361" y="233" type="qcurve"/>
      <point x="398" y="237"/>
      <point x="409" y="237" type="qcurve"/>
      <point x="420" y="237"/>
      <point x="436" y="210"/>
      <point x="436" y="199" type="qcurve"/>
      <point x="436" y="188"/>
      <point x="424" y="188" type="qcurve"/>
      <point x="274" y="181" type="line"/>
      <point x="278" y="1" type="line"/>
      <point x="278" y="-9"/>
    </contour>
  </outline>
</glyph>
<glyph name="brokenbar" format="2">
  <advance height="1000" width="500"/>
  <unicode hex="00A6"/>
  <outline>
    <contour>
      <point x="279" y="-11" type="line"/>
      <point x="220" y="-11" type="line"/>
      <point x="220" y="262" type="line"/>
      <point x="279" y="262" type="line"/>
    </contour>
    <contour>
      <point x="279" y="439" type="line"/>
      <point x="220" y="439" type="line"/>
      <point x="220" y="712" type="line"/>
      <point x="279" y="712" type="line"/>
    </contour>
  </outline>
</glyph>
<glyph name="section" format="2">
  <advance height="1000" width="500"/>
  <unicode hex="00A7"/>
  <outline>
    <contour>
      <point x="360" y="257" type="qcurve"/>
      <point x="428" y="292"/>
      <point x="428" y="368" type="qcurve"/>
      <point x="428" y="427"/>
      <point x="360" y="483"/>
      <point x="286" y="499" type="qcurve"/>
      <point x="249" y="507"/>
      <point x="245" y="507" type="qcurve"/>
      <point x="134" y="507"/>
      <point x="99" y="456" type="qcurve"/>
      <point x="83" y="433"/>
      <point x="83" y="405" type="qcurve"/>
      <point x="83" y="381"/>
      <point x="100" y="343"/>
      <point x="148" y="314"/>
      <point x="196" y="303" type="qcurve"/>
      <point x="288" y="282" type="line"/>
      <point x="328" y="275"/>
    </contour>
    <contour>
      <point x="244" y="-72" type="qcurve"/>
      <point x="170" y="-72"/>
      <point x="61" y="-22"/>
      <point x="17" y="29" type="qcurve"/>
      <point x="13" y="35"/>
      <point x="13" y="42" type="qcurve"/>
      <point x="13" y="57"/>
      <point x="32" y="85"/>
      <point x="40" y="85" type="qcurve"/>
      <point x="43" y="85"/>
      <point x="46" y="81" type="qcurve"/>
      <point x="57" y="59"/>
      <point x="106" y="20" type="qcurve"/>
      <point x="160" y="-23"/>
      <point x="244" y="-23" type="qcurve"/>
      <point x="321" y="-23"/>
      <point x="410" y="45"/>
      <point x="410" y="101" type="qcurve"/>
      <point x="410" y="157"/>
      <point x="340" y="219"/>
      <point x="268" y="235" type="qcurve"/>
      <point x="175" y="257" type="line"/>
      <point x="94" y="277"/>
      <point x="29" y="353"/>
      <point x="29" y="403" type="qcurve"/>
      <point x="29" y="444"/>
      <point x="79" y="511"/>
      <point x="143" y="535" type="qcurve"/>
      <point x="82" y="563"/>
      <point x="46" y="622"/>
      <point x="46" y="661" type="qcurve"/>
      <point x="46" y="697"/>
      <point x="94" y="764"/>
      <point x="186" y="807"/>
      <point x="246" y="807" type="qcurve"/>
      <point x="366" y="807"/>
      <point x="438" y="742" type="qcurve"/>
      <point x="444" y="735"/>
      <point x="444" y="723" type="qcurve"/>
      <point x="444" y="709"/>
      <point x="430" y="683"/>
      <point x="424" y="683" type="qcurve"/>
      <point x="421" y="683"/>
      <point x="418" y="687" type="qcurve"/>
      <point x="399" y="716"/>
      <point x="332" y="747" type="qcurve"/>
      <point x="298" y="759"/>
      <point x="245" y="759" type="qcurve"/>
      <point x="174" y="759"/>
      <point x="100" y="700"/>
      <point x="100" y="663" type="qcurve"/>
      <point x="100" y="639"/>
      <point x="118" y="604"/>
      <point x="166" y="578"/>
      <point x="260" y="557"/>
      <point x="306" y="546" type="qcurve"/>
      <point x="393" y="527"/>
      <point x="482" y="440"/>
      <point x="482" y="369" type="qcurve"/>
      <point x="482" y="289"/>
      <point x="406" y="231" type="qcurve"/>
      <point x="464" y="177"/>
      <point x="464" y="102" type="qcurve"/>
      <point x="464" y="1"/>
      <point x="362" y="-50" type="qcurve"/>
      <point x="313" y="-72"/>
    </contour>
  </outline>
</glyph>
<glyph name="dieresis" format="2">
  <advance height="1000" width="1000"/>
  <unicode hex="00A8"/>
  <outline>
    <contour>
      <point x="591" y="745" type="qcurve"/>
      <point x="572" y="745"/>
      <point x="542" y="781"/>
      <point x="542" y="799" type="qcurve"/>
      <point x="542" y="837"/>
      <point x="581" y="840" type="qcurve"/>
      <point x="598" y="840"/>
      <point x="629" y="805"/>
      <point x="629" y="785" type="qcurve"/>
      <point x="629" y="749"/>
    </contour>
    <contour>
      <point x="418" y="745" type="qcurve"/>
      <point x="399" y="745"/>
      <point x="369" y="781"/>
      <point x="369" y="799" type="qcurve"/>
      <point x="369" y="837"/>
      <point x="408" y="840" type="qcurve"/>
      <point x="425" y="840"/>
      <point x="456" y="805"/>
      <point x="456" y="785" type="qcurve"/>
      <point x="456" y="749"/>
    </contour>
  </outline>
</glyph>
<glyph name="copyright" format="2">
  <advance height="1000" width="1000"/>
  <unicode hex="00A9"/>
  <outline>
    <contour>
      <point x="659" y="213" type="qcurve"/>
      <point x="601" y="123"/>
      <point x="488" y="123" type="qcurve"/>
      <point x="381" y="123"/>
      <point x="332" y="208" type="qcurve"/>
      <point x="309" y="249"/>
      <point x="309" y="306" type="qcurve"/>
      <point x="309" y="413"/>
      <point x="453" y="559"/>
      <point x="535" y="559" type="qcurve"/>
      <point x="571" y="559"/>
      <point x="596" y="549" type="qcurve"/>
      <point x="643" y="526"/>
      <point x="655" y="499" type="qcurve"/>
      <point x="661" y="487"/>
      <point x="661" y="472"/>
      <point x="640" y="450"/>
      <point x="625" y="450"/>
      <point x="622" y="455" type="qcurve"/>
      <point x="611" y="485"/>
      <point x="580" y="503" type="qcurve"/>
      <point x="563" y="513"/>
      <point x="495" y="513"/>
      <point x="414" y="458"/>
      <point x="361" y="366"/>
      <point x="361" y="263"/>
      <point x="397" y="201"/>
      <point x="451" y="169"/>
      <point x="479" y="169" type="qcurve"/>
      <point x="538" y="169"/>
      <point x="606" y="198"/>
      <point x="638" y="230" type="qcurve"/>
      <point x="651" y="242"/>
      <point x="666" y="242"/>
      <point x="666" y="223"/>
    </contour>
    <contour>
      <point x="381" y="630"/>
      <point x="208" y="458"/>
      <point x="208" y="215"/>
      <point x="381" y="42"/>
      <point x="624" y="42"/>
      <point x="796" y="215"/>
      <point x="796" y="458"/>
      <point x="624" y="630"/>
    </contour>
    <contour>
      <point x="362" y="-3"/>
      <point x="162" y="197"/>
      <point x="162" y="476"/>
      <point x="362" y="675"/>
      <point x="641" y="675"/>
      <point x="841" y="476"/>
      <point x="841" y="197"/>
      <point x="741" y="97" type="qcurve"/>
      <point x="639" y="-3"/>
    </contour>
  </outline>
</glyph>
<glyph name="ordfeminine" format="2">
  <advance height="1000" width="500"/>
  <unicode hex="00AA"/>
  <outline>
    <contour>
      <point x="220" y="518" type="qcurve"/>
      <point x="255" y="518"/>
      <point x="307" y="576"/>
      <point x="312" y="630" type="qcurve"/>
      <point x="312" y="652"/>
      <point x="314" y="675" type="qcurve"/>
      <point x="311" y="674" type="line"/>
      <point x="304" y="674"/>
      <point x="283" y="699"/>
      <point x="244" y="699"/>
      <point x="204" y="668"/>
      <point x="178" y="614"/>
      <point x="178" y="581" type="qcurve"/>
      <point x="178" y="518"/>
    </contour>
    <contour>
      <point x="171" y="700"/>
      <point x="232" y="743"/>
      <point x="299" y="743"/>
      <point x="314" y="722" type="qcurve"/>
      <point x="314" y="730" type="line"/>
      <point x="314" y="738"/>
      <point x="342" y="738"/>
      <point x="365" y="728"/>
      <point x="365" y="719" type="qcurve"/>
      <point x="358" y="613"/>
      <point x="358" y="543"/>
      <point x="374" y="514" type="qcurve"/>
      <point x="375" y="513"/>
      <point x="375" y="499"/>
      <point x="358" y="475"/>
      <point x="347" y="475" type="qcurve"/>
      <point x="326" y="475"/>
      <point x="318" y="536" type="qcurve"/>
      <point x="301" y="506"/>
      <point x="246" y="473"/>
      <point x="180" y="473"/>
      <point x="130" y="527"/>
      <point x="130" y="624"/>
    </contour>
  </outline>
</glyph>
<glyph name="guillemotleft" format="2">
  <advance height="1000" width="500"/>
  <unicode hex="00AB"/>
  <outline>
    <contour>
      <point x="438" y="-15" type="qcurve"/>
      <point x="432" y="-15"/>
      <point x="428" y="-10" type="qcurve"/>
      <point x="393" y="39"/>
      <point x="273" y="177"/>
      <point x="230" y="212" type="qcurve"/>
      <point x="218" y="226"/>
      <point x="218" y="243" type="qcurve"/>
      <point x="218" y="261"/>
      <point x="221" y="264" type="qcurve"/>
      <point x="248" y="288" type="line"/>
      <point x="390" y="428"/>
      <point x="426" y="484" type="qcurve"/>
      <point x="431" y="489"/>
      <point x="439" y="489" type="qcurve"/>
      <point x="447" y="489"/>
      <point x="461" y="463"/>
      <point x="461" y="453" type="qcurve"/>
      <point x="461" y="442"/>
      <point x="452" y="430"/>
      <point x="430" y="406" type="qcurve"/>
      <point x="328" y="298"/>
      <point x="271" y="242" type="qcurve"/>
      <point x="315" y="197"/>
      <point x="457" y="42" type="qcurve"/>
      <point x="462" y="36"/>
      <point x="462" y="25" type="qcurve"/>
      <point x="462" y="14"/>
      <point x="449" y="-15"/>
    </contour>
    <contour>
      <point x="253" y="-15" type="qcurve"/>
      <point x="247" y="-15"/>
      <point x="244" y="-10" type="qcurve"/>
      <point x="209" y="39"/>
      <point x="89" y="177"/>
      <point x="46" y="212" type="qcurve"/>
      <point x="33" y="226"/>
      <point x="33" y="243" type="qcurve"/>
      <point x="33" y="261"/>
      <point x="37" y="264" type="qcurve"/>
      <point x="64" y="288" type="line"/>
      <point x="206" y="428"/>
      <point x="242" y="484" type="qcurve"/>
      <point x="246" y="489"/>
      <point x="254" y="489" type="qcurve"/>
      <point x="262" y="489"/>
      <point x="277" y="463"/>
      <point x="277" y="453" type="qcurve"/>
      <point x="277" y="442"/>
      <point x="267" y="430"/>
      <point x="245" y="406" type="qcurve"/>
      <point x="144" y="298"/>
      <point x="86" y="242" type="qcurve"/>
      <point x="130" y="197"/>
      <point x="273" y="42" type="qcurve"/>
      <point x="278" y="36"/>
      <point x="278" y="25" type="qcurve"/>
      <point x="278" y="14"/>
      <point x="264" y="-15"/>
    </contour>
  </outline>
</glyph>
<glyph name="logicalnot" format="2">
  <advance height="1000" width="500"/>
  <unicode hex="00AC"/>
  <outline>
    <contour>
      <point x="411" y="182" type="qcurve"/>
      <point x="400" y="182"/>
      <point x="384" y="192"/>
      <point x="384" y="199" type="qcurve"/>
      <point x="384" y="393" type="line"/>
      <point x="64" y="393" type="line"/>
      <point x="46" y="393"/>
      <point x="46" y="419" type="qcurve"/>
      <point x="46" y="445"/>
      <point x="64" y="445" type="qcurve"/>
      <point x="394" y="445" type="line"/>
      <point x="434" y="445"/>
      <point x="437" y="400" type="qcurve"/>
      <point x="437" y="199" type="line"/>
      <point x="437" y="192"/>
      <point x="421" y="182"/>
    </contour>
  </outline>
</glyph>
<glyph name="uni00AD" format="2">
  <advance height="1000" width="500"/>
  <unicode hex="00AD"/>
  <outline>
    <contour>
      <point x="500" y="355" type="qcurve"/>
      <point x="0" y="355" type="line"/>
      <point x="-7" y="355"/>
      <point x="-15" y="371"/>
      <point x="-15" y="390"/>
      <point x="-7" y="406"/>
      <point x="0" y="406" type="qcurve"/>
      <point x="500" y="406" type="line"/>
      <point x="515" y="406"/>
      <point x="515" y="355"/>
    </contour>
  </outline>
</glyph>
<glyph name="registered" format="2">
  <advance height="1000" width="1000"/>
  <unicode hex="00AE"/>
  <outline>
    <contour>
      <point x="425" y="367" type="line"/>
      <point x="430" y="372"/>
      <point x="446" y="371"/>
      <point x="466" y="371" type="qcurve"/>
      <point x="559" y="371"/>
      <point x="593" y="419" type="qcurve"/>
      <point x="607" y="439"/>
      <point x="607" y="456" type="qcurve"/>
      <point x="607" y="487"/>
      <point x="555" y="520"/>
      <point x="459" y="520"/>
      <point x="425" y="509" type="qcurve"/>
    </contour>
    <contour>
      <point x="426" y="133" type="line"/>
      <point x="426" y="124"/>
      <point x="398" y="124"/>
      <point x="375" y="134"/>
      <point x="375" y="144" type="qcurve"/>
      <point x="376" y="169" type="line"/>
      <point x="376" y="497" type="line"/>
      <point x="367" y="501"/>
      <point x="355" y="524"/>
      <point x="355" y="545"/>
      <point x="363" y="546" type="qcurve"/>
      <point x="382" y="548"/>
      <point x="425" y="557" type="qcurve"/>
      <point x="455" y="565"/>
      <point x="568" y="565"/>
      <point x="598" y="549" type="qcurve"/>
      <point x="656" y="518"/>
      <point x="656" y="458" type="qcurve"/>
      <point x="656" y="425"/>
      <point x="634" y="392" type="qcurve"/>
      <point x="600" y="340"/>
      <point x="491" y="332" type="qcurve"/>
      <point x="520" y="304"/>
      <point x="589" y="216"/>
      <point x="658" y="159"/>
      <point x="672" y="154" type="qcurve"/>
      <point x="701" y="143"/>
      <point x="701" y="122"/>
      <point x="671" y="121" type="qcurve"/>
      <point x="665" y="122" type="line"/>
      <point x="656" y="122" type="line"/>
      <point x="599" y="126"/>
      <point x="493" y="263" type="qcurve"/>
      <point x="448" y="317"/>
      <point x="425" y="325" type="qcurve"/>
      <point x="425" y="184"/>
      <point x="426" y="164" type="qcurve"/>
    </contour>
    <contour>
      <point x="381" y="630"/>
      <point x="208" y="458"/>
      <point x="208" y="215"/>
      <point x="381" y="42"/>
      <point x="624" y="42"/>
      <point x="796" y="215"/>
      <point x="796" y="458"/>
      <point x="624" y="630"/>
    </contour>
    <contour>
      <point x="362" y="-3"/>
      <point x="162" y="197"/>
      <point x="162" y="476"/>
      <point x="362" y="675"/>
      <point x="641" y="675"/>
      <point x="841" y="476"/>
      <point x="841" y="197"/>
      <point x="741" y="97" type="qcurve"/>
      <point x="639" y="-3"/>
    </contour>
  </outline>
</glyph>
<glyph name="degree" format="2">
  <advance height="1000" width="1000"/>
  <unicode hex="00B0"/>
  <outline>
    <contour>
      <point x="94" y="678"/>
      <point x="134" y="638"/>
      <point x="191" y="638"/>
      <point x="230" y="678"/>
      <point x="230" y="735"/>
      <point x="191" y="774"/>
      <point x="134" y="774"/>
      <point x="94" y="735"/>
    </contour>
    <contour>
      <point x="118" y="601"/>
      <point x="57" y="662"/>
      <point x="57" y="750"/>
      <point x="118" y="811"/>
      <point x="206" y="811"/>
      <point x="267" y="750"/>
      <point x="267" y="662"/>
      <point x="206" y="601"/>
    </contour>
  </outline>
</glyph>
<glyph name="plusminus" format="2">
  <advance height="1000" width="1000"/>
  <unicode hex="00B1"/>
  <outline>
    <contour>
      <point x="527" y="683" type="qcurve"/>
      <point x="524" y="644"/>
      <point x="524" y="483" type="qcurve"/>
      <point x="753" y="486"/>
      <point x="777" y="488" type="qcurve"/>
      <point x="812" y="489" type="line"/>
      <point x="821" y="489"/>
      <point x="832" y="469"/>
      <point x="832" y="458" type="qcurve"/>
      <point x="832" y="437"/>
      <point x="817" y="437" type="qcurve"/>
      <point x="770" y="438" type="line"/>
      <point x="524" y="435" type="line"/>
      <point x="524" y="290"/>
      <point x="525" y="266" type="qcurve"/>
      <point x="525" y="220" type="line"/>
      <point x="525" y="213"/>
      <point x="512" y="205"/>
      <point x="493" y="205"/>
      <point x="473" y="216"/>
      <point x="473" y="226" type="qcurve"/>
      <point x="476" y="259"/>
      <point x="476" y="434" type="qcurve"/>
      <point x="267" y="432" type="line"/>
      <point x="204" y="432"/>
      <point x="186" y="429" type="qcurve"/>
      <point x="176" y="429"/>
      <point x="166" y="450"/>
      <point x="166" y="461" type="qcurve"/>
      <point x="166" y="482"/>
      <point x="181" y="482" type="qcurve"/>
      <point x="221" y="480"/>
      <point x="268" y="480" type="qcurve"/>
      <point x="476" y="483" type="line"/>
      <point x="476" y="601" type="line"/>
      <point x="476" y="648"/>
      <point x="474" y="688" type="qcurve"/>
      <point x="474" y="703"/>
      <point x="490" y="703" type="qcurve"/>
      <point x="527" y="703"/>
    </contour>
    <contour>
      <point x="501" y="63" type="line"/>
      <point x="205" y="59"/>
      <point x="176" y="57"/>
      <point x="166" y="78"/>
      <point x="166" y="89" type="qcurve"/>
      <point x="166" y="110"/>
      <point x="181" y="110" type="qcurve"/>
      <point x="221" y="108"/>
      <point x="268" y="108" type="qcurve"/>
      <point x="753" y="114"/>
      <point x="777" y="116" type="qcurve"/>
      <point x="812" y="117" type="line"/>
      <point x="821" y="117"/>
      <point x="832" y="97"/>
      <point x="832" y="86" type="qcurve"/>
      <point x="832" y="65"/>
      <point x="817" y="65" type="qcurve"/>
      <point x="770" y="66" type="line"/>
    </contour>
  </outline>
</glyph>
<glyph name="uni00B2" format="2">
  <advance height="1000" width="500"/>
  <unicode hex="00B2"/>
  <outline>
    <contour>
      <point x="349" y="333" type="line"/>
      <point x="201" y="335" type="line"/>
      <point x="178" y="335"/>
      <point x="150" y="329" type="qcurve"/>
      <point x="134" y="329"/>
      <point x="118" y="352"/>
      <point x="118" y="370"/>
      <point x="124" y="380"/>
      <point x="131" y="385"/>
      <point x="149" y="416"/>
      <point x="214" y="487"/>
      <point x="286" y="545"/>
      <point x="327" y="590"/>
      <point x="327" y="613" type="qcurve"/>
      <point x="327" y="662"/>
      <point x="267" y="662" type="qcurve"/>
      <point x="234" y="662"/>
      <point x="200" y="637"/>
      <point x="180" y="594"/>
      <point x="168" y="594" type="qcurve"/>
      <point x="157" y="594"/>
      <point x="146" y="614" type="qcurve"/>
      <point x="142" y="622"/>
      <point x="142" y="634"/>
      <point x="170" y="674"/>
      <point x="227" y="708"/>
      <point x="322" y="708"/>
      <point x="376" y="656"/>
      <point x="376" y="576"/>
      <point x="322" y="513"/>
      <point x="282" y="483" type="qcurve"/>
      <point x="219" y="431"/>
      <point x="181" y="379" type="qcurve"/>
      <point x="198" y="380"/>
      <point x="289" y="380" type="qcurve"/>
      <point x="322" y="379" type="line"/>
      <point x="355" y="381" type="line"/>
      <point x="366" y="381"/>
      <point x="379" y="359"/>
      <point x="379" y="348" type="qcurve"/>
      <point x="379" y="332"/>
      <point x="365" y="332" type="qcurve"/>
    </contour>
  </outline>
</glyph>
<glyph name="uni00B3" format="2">
  <advance height="1000" width="500"/>
  <unicode hex="00B3"/>
  <outline>
    <contour>
      <point x="260" y="509" type="qcurve"/>
      <point x="236" y="509"/>
      <point x="212" y="501" type="qcurve"/>
      <point x="203" y="501"/>
      <point x="188" y="522"/>
      <point x="188" y="543"/>
      <point x="205" y="545"/>
      <point x="243" y="553"/>
      <point x="265" y="562" type="qcurve"/>
      <point x="318" y="582"/>
      <point x="318" y="619" type="qcurve"/>
      <point x="318" y="664"/>
      <point x="258" y="664" type="qcurve"/>
      <point x="209" y="664"/>
      <point x="177" y="625" type="qcurve"/>
      <point x="168" y="613"/>
      <point x="155" y="613"/>
      <point x="150" y="619" type="qcurve"/>
      <point x="136" y="634"/>
      <point x="136" y="655"/>
      <point x="143" y="660" type="qcurve"/>
      <point x="191" y="708"/>
      <point x="307" y="708"/>
      <point x="364" y="662"/>
      <point x="364" y="621" type="qcurve"/>
      <point x="364" y="566"/>
      <point x="302" y="538" type="qcurve"/>
      <point x="333" y="534"/>
      <point x="377" y="485"/>
      <point x="377" y="399"/>
      <point x="312" y="324"/>
      <point x="238" y="324" type="qcurve"/>
      <point x="180" y="324"/>
      <point x="134" y="356" type="qcurve"/>
      <point x="115" y="370"/>
      <point x="115" y="393"/>
      <point x="130" y="413"/>
      <point x="145" y="413"/>
      <point x="150" y="408" type="qcurve"/>
      <point x="186" y="370"/>
      <point x="283" y="370"/>
      <point x="330" y="413"/>
      <point x="330" y="447" type="qcurve"/>
      <point x="330" y="506"/>
    </contour>
  </outline>
</glyph>
<glyph name="mu" format="2">
  <advance height="1000" width="500"/>
  <unicode hex="00B5"/>
  <outline>
    <contour>
      <point x="108" y="-178" type="qcurve"/>
      <point x="93" y="-178"/>
      <point x="65" y="-162"/>
      <point x="65" y="-151" type="qcurve"/>
      <point x="66" y="-88" type="line"/>
      <point x="66" y="374"/>
      <point x="64" y="451"/>
      <point x="64" y="474" type="qcurve"/>
      <point x="64" y="483"/>
      <point x="79" y="483" type="qcurve"/>
      <point x="94" y="483"/>
      <point x="123" y="467"/>
      <point x="123" y="456" type="qcurve"/>
      <point x="121" y="340"/>
      <point x="121" y="175" type="qcurve"/>
      <point x="121" y="93"/>
      <point x="162" y="53" type="qcurve"/>
      <point x="181" y="34"/>
      <point x="215" y="34" type="qcurve"/>
      <point x="248" y="34"/>
      <point x="283" y="68" type="qcurve"/>
      <point x="362" y="141"/>
      <point x="373" y="301" type="qcurve"/>
      <point x="376" y="334"/>
      <point x="376" y="475" type="qcurve"/>
      <point x="376" y="484"/>
      <point x="392" y="484" type="qcurve"/>
      <point x="407" y="484"/>
      <point x="436" y="469"/>
      <point x="436" y="457" type="qcurve"/>
      <point x="425" y="385"/>
      <point x="425" y="243" type="qcurve"/>
      <point x="425" y="100"/>
      <point x="459" y="33" type="qcurve"/>
      <point x="461" y="27" type="line"/>
      <point x="461" y="18"/>
      <point x="442" y="-11"/>
      <point x="428" y="-11" type="qcurve"/>
      <point x="405" y="-11"/>
      <point x="378" y="101"/>
      <point x="378" y="120" type="qcurve"/>
      <point x="321" y="-16"/>
      <point x="208" y="-16" type="qcurve"/>
      <point x="178" y="-16"/>
      <point x="125" y="18"/>
      <point x="120" y="27" type="qcurve"/>
      <point x="120" y="-69"/>
      <point x="123" y="-146"/>
      <point x="123" y="-169" type="qcurve"/>
      <point x="123" y="-178"/>
    </contour>
  </outline>
</glyph>
<glyph name="paragraph" format="2">
  <advance height="1000" width="1000"/>
  <unicode hex="00B6"/>
  <outline>
    <contour>
      <point x="459" y="-40" type="qcurve"/>
      <point x="459" y="-55"/>
      <point x="442" y="-55" type="qcurve"/>
      <point x="404" y="-55"/>
      <point x="404" y="-34" type="qcurve"/>
      <point x="406" y="-12"/>
      <point x="407" y="40"/>
      <point x="407" y="390" type="qcurve"/>
      <point x="385" y="385"/>
      <point x="320" y="385"/>
      <point x="242" y="420"/>
      <point x="194" y="492"/>
      <point x="194" y="609"/>
      <point x="224" y="657" type="qcurve"/>
      <point x="287" y="755"/>
      <point x="406" y="762" type="qcurve"/>
      <point x="616" y="772" type="line"/>
      <point x="642" y="772"/>
      <point x="666" y="744"/>
      <point x="666" y="726" type="qcurve"/>
      <point x="666" y="64" type="line"/>
      <point x="666" y="-5"/>
      <point x="667" y="-29" type="qcurve"/>
      <point x="667" y="-44"/>
      <point x="650" y="-44" type="qcurve"/>
      <point x="612" y="-44"/>
      <point x="612" y="-23" type="qcurve"/>
      <point x="614" y="-1"/>
      <point x="615" y="51"/>
      <point x="615" y="724" type="qcurve"/>
      <point x="458" y="717" type="line"/>
      <point x="458" y="53" type="line"/>
      <point x="458" y="-17"/>
    </contour>
  </outline>
</glyph>
<glyph name="cedilla" format="2">
  <advance height="1000" width="500"/>
  <unicode hex="00B8"/>
  <unicode hex="0327"/>
  <outline>
    <contour>
      <point x="264" y="-67" type="qcurve"/>
      <point x="242" y="-67"/>
      <point x="222" y="-72" type="qcurve"/>
      <point x="208" y="-72"/>
      <point x="191" y="-56"/>
      <point x="191" y="-45" type="qcurve"/>
      <point x="207" y="4" type="line"/>
      <point x="212" y="21" type="line"/>
      <point x="268" y="17" type="line"/>
      <point x="251" y="-29" type="line"/>
      <point x="253" y="-29" type="line"/>
      <point x="263" y="-27"/>
      <point x="274" y="-27" type="qcurve"/>
      <point x="310" y="-27"/>
      <point x="358" y="-62"/>
      <point x="358" y="-97" type="qcurve"/>
      <point x="358" y="-173"/>
      <point x="254" y="-178" type="qcurve"/>
      <point x="211" y="-178"/>
      <point x="166" y="-156" type="qcurve"/>
      <point x="156" y="-150"/>
      <point x="156" y="-123"/>
      <point x="165" y="-102"/>
      <point x="172" y="-102" type="qcurve"/>
      <point x="175" y="-102"/>
      <point x="186" y="-110" type="qcurve"/>
      <point x="213" y="-130"/>
      <point x="307" y="-130"/>
      <point x="307" y="-67"/>
    </contour>
  </outline>
</glyph>
<glyph name="uni00B9" format="2">
  <advance height="1000" width="500"/>
  <unicode hex="00B9"/>
  <outline>
    <contour>
      <point x="240" y="632" type="line"/>
      <point x="197" y="604"/>
      <point x="167" y="604"/>
      <point x="147" y="616"/>
      <point x="147" y="627"/>
      <point x="155" y="630" type="qcurve"/>
      <point x="213" y="658"/>
      <point x="243" y="695" type="qcurve"/>
      <point x="254" y="708"/>
      <point x="269" y="708"/>
      <point x="293" y="690"/>
      <point x="293" y="679" type="qcurve"/>
      <point x="292" y="659" type="line"/>
      <point x="289" y="635"/>
      <point x="289" y="622" type="qcurve"/>
      <point x="289" y="429" type="line"/>
      <point x="289" y="399"/>
      <point x="291" y="338" type="qcurve"/>
      <point x="291" y="325"/>
      <point x="263" y="325"/>
      <point x="239" y="341"/>
      <point x="239" y="354" type="qcurve"/>
      <point x="240" y="389" type="line"/>
    </contour>
  </outline>
</glyph>
<glyph name="ordmasculine" format="2">
  <advance height="1000" width="500"/>
  <unicode hex="00BA"/>
  <outline>
    <contour>
      <point x="177" y="560"/>
      <point x="213" y="518"/>
      <point x="277" y="518"/>
      <point x="326" y="576"/>
      <point x="326" y="652"/>
      <point x="294" y="699"/>
      <point x="239" y="699"/>
      <point x="219" y="683" type="qcurve"/>
      <point x="177" y="645"/>
      <point x="177" y="595" type="qcurve"/>
    </contour>
    <contour>
      <point x="244" y="473" type="qcurve"/>
      <point x="136" y="473"/>
      <point x="130" y="596" type="qcurve"/>
      <point x="130" y="652"/>
      <point x="172" y="708" type="qcurve"/>
      <point x="189" y="729"/>
      <point x="204" y="729"/>
      <point x="209" y="725" type="qcurve"/>
      <point x="230" y="743"/>
      <point x="313" y="743"/>
      <point x="373" y="677"/>
      <point x="373" y="615" type="qcurve"/>
      <point x="373" y="581"/>
      <point x="358" y="548" type="qcurve"/>
      <point x="325" y="473"/>
    </contour>
  </outline>
</glyph>
<glyph name="guillemotright" format="2">
  <advance height="1000" width="500"/>
  <unicode hex="00BB"/>
  <outline>
    <contour>
      <point x="244" y="-21" type="qcurve"/>
      <point x="235" y="-21"/>
      <point x="221" y="8"/>
      <point x="221" y="19" type="qcurve"/>
      <point x="221" y="30"/>
      <point x="226" y="36" type="qcurve"/>
      <point x="270" y="83" type="line"/>
      <point x="321" y="143"/>
      <point x="413" y="236" type="qcurve"/>
      <point x="222" y="424"/>
      <point x="222" y="445" type="qcurve"/>
      <point x="222" y="457"/>
      <point x="237" y="483"/>
      <point x="245" y="483" type="qcurve"/>
      <point x="254" y="483"/>
      <point x="257" y="478" type="qcurve"/>
      <point x="294" y="422"/>
      <point x="435" y="282" type="qcurve"/>
      <point x="462" y="258" type="line"/>
      <point x="466" y="255"/>
      <point x="466" y="246" type="qcurve"/>
      <point x="466" y="220"/>
      <point x="453" y="206" type="qcurve"/>
      <point x="357" y="124"/>
      <point x="255" y="-16" type="qcurve"/>
      <point x="253" y="-21"/>
    </contour>
    <contour>
      <point x="60" y="-21" type="qcurve"/>
      <point x="51" y="-21"/>
      <point x="37" y="8"/>
      <point x="37" y="19" type="qcurve"/>
      <point x="37" y="30"/>
      <point x="42" y="36" type="qcurve"/>
      <point x="64" y="59"/>
      <point x="84" y="83" type="qcurve"/>
      <point x="136" y="143"/>
      <point x="228" y="236" type="qcurve"/>
      <point x="38" y="424"/>
      <point x="38" y="445" type="qcurve"/>
      <point x="38" y="457"/>
      <point x="53" y="483"/>
      <point x="61" y="483" type="qcurve"/>
      <point x="69" y="483"/>
      <point x="73" y="478" type="qcurve"/>
      <point x="110" y="422"/>
      <point x="251" y="282" type="qcurve"/>
      <point x="278" y="258" type="line"/>
      <point x="281" y="255"/>
      <point x="281" y="246" type="qcurve"/>
      <point x="281" y="220"/>
      <point x="269" y="206" type="qcurve"/>
      <point x="234" y="177"/>
      <point x="121" y="54"/>
      <point x="71" y="-16" type="qcurve"/>
      <point x="69" y="-21"/>
    </contour>
  </outline>
</glyph>
<glyph name="threequarters" format="2">
  <advance height="1000" width="1000"/>
  <unicode hex="00BE"/>
  <outline>
    <contour>
      <point x="645" y="34" type="line"/>
      <point x="642" y="34"/>
      <point x="617" y="29" type="qcurve"/>
      <point x="604" y="29"/>
      <point x="580" y="51"/>
      <point x="580" y="74"/>
      <point x="586" y="81" type="qcurve"/>
      <point x="592" y="88"/>
      <point x="682" y="216"/>
      <point x="708" y="256" type="qcurve"/>
      <point x="772" y="354"/>
      <point x="782" y="382" type="qcurve"/>
      <point x="785" y="388"/>
      <point x="801" y="388"/>
      <point x="827" y="362"/>
      <point x="827" y="345"/>
      <point x="822" y="338" type="qcurve"/>
      <point x="812" y="325"/>
      <point x="782" y="279"/>
      <point x="756" y="240" type="qcurve"/>
      <point x="688" y="139"/>
      <point x="645" y="80" type="qcurve"/>
      <point x="810" y="87" type="line"/>
      <point x="810" y="206" type="line"/>
      <point x="809" y="270" type="line"/>
      <point x="809" y="280"/>
      <point x="837" y="280"/>
      <point x="861" y="269"/>
      <point x="861" y="259" type="qcurve"/>
      <point x="860" y="206" type="line"/>
      <point x="860" y="88" type="line"/>
      <point x="917" y="93" type="line"/>
      <point x="928" y="93"/>
      <point x="941" y="67"/>
      <point x="941" y="42"/>
      <point x="931" y="42" type="qcurve"/>
      <point x="860" y="42" type="line"/>
      <point x="860" y="15" type="line"/>
      <point x="862" y="-47" type="line"/>
      <point x="862" y="-57"/>
      <point x="847" y="-57" type="qcurve"/>
      <point x="809" y="-57"/>
      <point x="809" y="-37" type="qcurve"/>
      <point x="810" y="16" type="line"/>
      <point x="810" y="41" type="line"/>
    </contour>
    <contour>
      <point x="177" y="11" type="line"/>
      <point x="147" y="-19"/>
      <point x="94" y="-80" type="qcurve"/>
      <point x="88" y="-86"/>
      <point x="73" y="-86"/>
      <point x="58" y="-60"/>
      <point x="58" y="-36"/>
      <point x="63" y="-32" type="qcurve"/>
      <point x="102" y="1"/>
      <point x="145" y="44" type="qcurve"/>
      <point x="836" y="739" type="line"/>
      <point x="855" y="759"/>
      <point x="900" y="806"/>
      <point x="919" y="830" type="qcurve"/>
      <point x="925" y="837"/>
      <point x="940" y="837"/>
      <point x="955" y="810"/>
      <point x="955" y="786"/>
      <point x="950" y="782" type="qcurve"/>
      <point x="932" y="765"/>
      <point x="888" y="727"/>
      <point x="868" y="706" type="qcurve"/>
    </contour>
    <contour>
      <point x="252" y="552" type="qcurve"/>
      <point x="232" y="552"/>
      <point x="200" y="544" type="qcurve"/>
      <point x="190" y="544"/>
      <point x="173" y="568"/>
      <point x="173" y="592"/>
      <point x="185" y="593" type="qcurve"/>
      <point x="263" y="599"/>
      <point x="305" y="639" type="qcurve"/>
      <point x="325" y="658"/>
      <point x="325" y="703"/>
      <point x="281" y="731"/>
      <point x="250" y="731" type="qcurve"/>
      <point x="184" y="731"/>
      <point x="152" y="688" type="qcurve"/>
      <point x="141" y="675"/>
      <point x="120" y="675"/>
      <point x="105" y="705"/>
      <point x="105" y="724"/>
      <point x="146" y="755"/>
      <point x="210" y="779"/>
      <point x="304" y="779"/>
      <point x="376" y="726"/>
      <point x="376" y="640"/>
      <point x="317" y="589"/>
      <point x="281" y="583" type="qcurve"/>
      <point x="281" y="581" type="line"/>
      <point x="334" y="581"/>
      <point x="395" y="525"/>
      <point x="395" y="416"/>
      <point x="305" y="336"/>
      <point x="227" y="336" type="qcurve"/>
      <point x="184" y="336"/>
      <point x="118" y="359"/>
      <point x="82" y="388"/>
      <point x="82" y="410"/>
      <point x="102" y="433"/>
      <point x="120" y="433"/>
      <point x="125" y="427" type="qcurve"/>
      <point x="160" y="384"/>
      <point x="227" y="384" type="qcurve"/>
      <point x="293" y="384"/>
      <point x="328" y="428" type="qcurve"/>
      <point x="344" y="449"/>
      <point x="344" y="510"/>
      <point x="293" y="552"/>
    </contour>
  </outline>
</glyph>
<glyph name="questiondown" format="2">
  <advance height="1000" width="500"/>
  <unicode hex="00BF"/>
  <outline>
    <contour>
      <point x="273" y="405" type="qcurve"/>
      <point x="254" y="405"/>
      <point x="225" y="444"/>
      <point x="225" y="463" type="qcurve"/>
      <point x="225" y="505"/>
      <point x="264" y="505" type="qcurve"/>
      <point x="284" y="505"/>
      <point x="313" y="467"/>
      <point x="313" y="449" type="qcurve"/>
      <point x="313" y="409"/>
    </contour>
    <contour>
      <point x="215" y="-211" type="qcurve"/>
      <point x="141" y="-211"/>
      <point x="59" y="-137"/>
      <point x="59" y="-79" type="qcurve"/>
      <point x="59" y="39"/>
      <point x="174" y="126" type="qcurve"/>
      <point x="201" y="149"/>
      <point x="245" y="207"/>
      <point x="245" y="247" type="qcurve"/>
      <point x="245" y="286"/>
      <point x="236" y="314"/>
      <point x="236" y="318" type="qcurve"/>
      <point x="236" y="332"/>
      <point x="264" y="332" type="qcurve"/>
      <point x="291" y="332"/>
      <point x="301" y="296"/>
      <point x="301" y="276" type="qcurve"/>
      <point x="301" y="165"/>
      <point x="228" y="107" type="qcurve"/>
      <point x="201" y="83"/>
      <point x="176" y="59" type="qcurve"/>
      <point x="119" y="3"/>
      <point x="119" y="-68" type="qcurve"/>
      <point x="119" y="-158"/>
      <point x="210" y="-162" type="qcurve"/>
      <point x="291" y="-162"/>
      <point x="344" y="-109" type="qcurve"/>
      <point x="389" y="-60"/>
      <point x="395" y="-27" type="qcurve"/>
      <point x="399" y="-13"/>
      <point x="413" y="-13" type="qcurve"/>
      <point x="427" y="-13"/>
      <point x="452" y="-35"/>
      <point x="452" y="-43" type="qcurve"/>
      <point x="452" y="-50"/>
      <point x="449" y="-55" type="qcurve"/>
      <point x="370" y="-211"/>
    </contour>
  </outline>
</glyph>
<glyph name="Aacute" format="2">
  <advance height="1000" width="500"/>
  <unicode hex="00C1"/>
  <outline>
    <contour>
      <point x="165" y="276" type="line"/>
      <point x="334" y="286" type="line"/>
      <point x="281" y="487"/>
      <point x="255" y="608" type="qcurve"/>
    </contour>
    <contour>
      <point x="181" y="745" type="qcurve"/>
      <point x="165" y="745"/>
      <point x="165" y="760" type="qcurve"/>
      <point x="165" y="765"/>
      <point x="170" y="771" type="qcurve"/>
      <point x="224" y="824"/>
      <point x="299" y="879" type="qcurve"/>
      <point x="307" y="881" type="line"/>
      <point x="328" y="881"/>
      <point x="346" y="857" type="qcurve"/>
      <point x="353" y="848"/>
      <point x="353" y="842" type="qcurve"/>
      <point x="353" y="835"/>
      <point x="345" y="831" type="qcurve"/>
      <point x="254" y="789"/>
      <point x="193" y="749" type="qcurve"/>
      <point x="187" y="745"/>
    </contour>
    <contour>
      <point x="430" y="-7" type="qcurve"/>
      <point x="412" y="-7"/>
      <point x="410" y="5" type="qcurve"/>
      <point x="405" y="31"/>
      <point x="347" y="238" type="qcurve"/>
      <point x="157" y="229"/>
      <point x="152" y="228" type="qcurve"/>
      <point x="139" y="184"/>
      <point x="106" y="79"/>
      <point x="89" y="12" type="qcurve"/>
      <point x="88" y="4"/>
      <point x="66" y="-6"/>
      <point x="54" y="-6" type="qcurve"/>
      <point x="25" y="-6"/>
      <point x="25" y="12" type="qcurve"/>
      <point x="25" y="17"/>
      <point x="32" y="33" type="qcurve"/>
      <point x="52" y="79"/>
      <point x="95" y="224" type="qcurve"/>
      <point x="91" y="223" type="line"/>
      <point x="76" y="223"/>
      <point x="59" y="254"/>
      <point x="59" y="266" type="qcurve"/>
      <point x="59" y="278"/>
      <point x="72" y="278" type="qcurve"/>
      <point x="90" y="275"/>
      <point x="111" y="275" type="qcurve"/>
      <point x="120" y="308" type="line"/>
      <point x="199" y="558"/>
      <point x="224" y="680" type="qcurve"/>
      <point x="228" y="710"/>
      <point x="247" y="710" type="qcurve"/>
      <point x="260" y="710"/>
      <point x="275" y="701" type="qcurve"/>
      <point x="286" y="695"/>
      <point x="293" y="680" type="qcurve"/>
      <point x="293" y="638"/>
      <point x="349" y="432" type="qcurve"/>
      <point x="439" y="98"/>
      <point x="474" y="24" type="qcurve"/>
      <point x="476" y="20"/>
      <point x="476" y="14" type="qcurve"/>
      <point x="476" y="7"/>
      <point x="449" y="-7"/>
    </contour>
  </outline>
</glyph>
<glyph name="Atilde" format="2">
  <advance height="1000" width="500"/>
  <unicode hex="00C3"/>
  <outline>
    <contour>
      <point x="165" y="276" type="line"/>
      <point x="334" y="286" type="line"/>
      <point x="281" y="487"/>
      <point x="255" y="608" type="qcurve"/>
    </contour>
    <contour>
      <point x="142" y="764" type="qcurve"/>
      <point x="125" y="764"/>
      <point x="125" y="779" type="qcurve"/>
      <point x="131" y="813"/>
      <point x="177" y="867"/>
      <point x="208" y="867" type="qcurve"/>
      <point x="239" y="867"/>
      <point x="276" y="844"/>
      <point x="306" y="816"/>
      <point x="319" y="816" type="qcurve"/>
      <point x="356" y="816"/>
      <point x="374" y="860" type="qcurve"/>
      <point x="379" y="870"/>
      <point x="387" y="870" type="qcurve"/>
      <point x="404" y="870"/>
      <point x="404" y="854" type="qcurve"/>
      <point x="403" y="853"/>
      <point x="403" y="850" type="qcurve"/>
      <point x="397" y="819"/>
      <point x="352" y="767"/>
      <point x="319" y="767" type="qcurve"/>
      <point x="287" y="767"/>
      <point x="251" y="792"/>
      <point x="224" y="818"/>
      <point x="210" y="818" type="qcurve"/>
      <point x="174" y="818"/>
      <point x="154" y="774" type="qcurve"/>
      <point x="150" y="764"/>
    </contour>
    <contour>
      <point x="430" y="-7" type="qcurve"/>
      <point x="412" y="-7"/>
      <point x="410" y="5" type="qcurve"/>
      <point x="405" y="31"/>
      <point x="347" y="238" type="qcurve"/>
      <point x="157" y="229"/>
      <point x="152" y="228" type="qcurve"/>
      <point x="139" y="184"/>
      <point x="106" y="79"/>
      <point x="89" y="12" type="qcurve"/>
      <point x="88" y="4"/>
      <point x="66" y="-6"/>
      <point x="54" y="-6" type="qcurve"/>
      <point x="25" y="-6"/>
      <point x="25" y="12" type="qcurve"/>
      <point x="25" y="17"/>
      <point x="32" y="33" type="qcurve"/>
      <point x="52" y="79"/>
      <point x="95" y="224" type="qcurve"/>
      <point x="91" y="223" type="line"/>
      <point x="76" y="223"/>
      <point x="59" y="254"/>
      <point x="59" y="266" type="qcurve"/>
      <point x="59" y="278"/>
      <point x="72" y="278" type="qcurve"/>
      <point x="90" y="275"/>
      <point x="111" y="275" type="qcurve"/>
      <point x="120" y="308" type="line"/>
      <point x="199" y="558"/>
      <point x="224" y="680" type="qcurve"/>
      <point x="228" y="710"/>
      <point x="247" y="710" type="qcurve"/>
      <point x="260" y="710"/>
      <point x="275" y="701" type="qcurve"/>
      <point x="286" y="695"/>
      <point x="293" y="680" type="qcurve"/>
      <point x="293" y="638"/>
      <point x="349" y="432" type="qcurve"/>
      <point x="439" y="98"/>
      <point x="474" y="24" type="qcurve"/>
      <point x="476" y="20"/>
      <point x="476" y="14" type="qcurve"/>
      <point x="476" y="7"/>
      <point x="449" y="-7"/>
    </contour>
  </outline>
</glyph>
<glyph name="Adieresis" format="2">
  <advance height="1000" width="500"/>
  <unicode hex="00C4"/>
  <outline>
    <contour>
      <point x="165" y="276" type="line"/>
      <point x="334" y="286" type="line"/>
      <point x="281" y="487"/>
      <point x="255" y="608" type="qcurve"/>
    </contour>
    <contour>
      <point x="333" y="769" type="qcurve"/>
      <point x="313" y="769"/>
      <point x="285" y="806"/>
      <point x="285" y="823" type="qcurve"/>
      <point x="285" y="861"/>
      <point x="323" y="864" type="qcurve"/>
      <point x="341" y="864"/>
      <point x="369" y="828"/>
      <point x="369" y="809" type="qcurve"/>
      <point x="369" y="773"/>
    </contour>
    <contour>
      <point x="430" y="-7" type="qcurve"/>
      <point x="412" y="-7"/>
      <point x="410" y="5" type="qcurve"/>
      <point x="405" y="31"/>
      <point x="347" y="238" type="qcurve"/>
      <point x="157" y="229"/>
      <point x="152" y="228" type="qcurve"/>
      <point x="139" y="184"/>
      <point x="106" y="79"/>
      <point x="89" y="12" type="qcurve"/>
      <point x="88" y="4"/>
      <point x="66" y="-6"/>
      <point x="54" y="-6" type="qcurve"/>
      <point x="25" y="-6"/>
      <point x="25" y="12" type="qcurve"/>
      <point x="25" y="17"/>
      <point x="32" y="33" type="qcurve"/>
      <point x="52" y="79"/>
      <point x="95" y="224" type="qcurve"/>
      <point x="91" y="223" type="line"/>
      <point x="76" y="223"/>
      <point x="59" y="254"/>
      <point x="59" y="266" type="qcurve"/>
      <point x="59" y="278"/>
      <point x="72" y="278" type="qcurve"/>
      <point x="90" y="275"/>
      <point x="111" y="275" type="qcurve"/>
      <point x="120" y="308" type="line"/>
      <point x="199" y="558"/>
      <point x="224" y="680" type="qcurve"/>
      <point x="228" y="710"/>
      <point x="247" y="710" type="qcurve"/>
      <point x="260" y="710"/>
      <point x="275" y="701" type="qcurve"/>
      <point x="286" y="695"/>
      <point x="293" y="680" type="qcurve"/>
      <point x="293" y="638"/>
      <point x="349" y="432" type="qcurve"/>
      <point x="439" y="98"/>
      <point x="474" y="24" type="qcurve"/>
      <point x="476" y="20"/>
      <point x="476" y="14" type="qcurve"/>
      <point x="476" y="7"/>
      <point x="449" y="-7"/>
    </contour>
    <contour>
      <point x="177" y="769" type="qcurve"/>
      <point x="157" y="769"/>
      <point x="129" y="806"/>
      <point x="129" y="823" type="qcurve"/>
      <point x="129" y="861"/>
      <point x="167" y="864" type="qcurve"/>
      <point x="185" y="864"/>
      <point x="214" y="828"/>
      <point x="214" y="809" type="qcurve"/>
      <point x="214" y="773"/>
    </contour>
  </outline>
</glyph>
